%TF.GenerationSoftware,KiCad,Pcbnew,7.0.8*%
%TF.CreationDate,2024-02-23T11:16:18-06:00*%
%TF.ProjectId,LT4020_12_BatCharger,4c543430-3230-45f3-9132-5f4261744368,rev?*%
%TF.SameCoordinates,Original*%
%TF.FileFunction,Legend,Top*%
%TF.FilePolarity,Positive*%
%FSLAX46Y46*%
G04 Gerber Fmt 4.6, Leading zero omitted, Abs format (unit mm)*
G04 Created by KiCad (PCBNEW 7.0.8) date 2024-02-23 11:16:18*
%MOMM*%
%LPD*%
G01*
G04 APERTURE LIST*
%ADD10C,0.150000*%
%ADD11C,0.254000*%
%ADD12C,0.125000*%
%ADD13C,0.120000*%
%ADD14C,0.100000*%
%ADD15C,0.200000*%
%ADD16C,0.068000*%
%ADD17C,0.250000*%
G04 APERTURE END LIST*
D10*
X190929419Y-107720971D02*
X190453228Y-108054304D01*
X190929419Y-108292399D02*
X189929419Y-108292399D01*
X189929419Y-108292399D02*
X189929419Y-107911447D01*
X189929419Y-107911447D02*
X189977038Y-107816209D01*
X189977038Y-107816209D02*
X190024657Y-107768590D01*
X190024657Y-107768590D02*
X190119895Y-107720971D01*
X190119895Y-107720971D02*
X190262752Y-107720971D01*
X190262752Y-107720971D02*
X190357990Y-107768590D01*
X190357990Y-107768590D02*
X190405609Y-107816209D01*
X190405609Y-107816209D02*
X190453228Y-107911447D01*
X190453228Y-107911447D02*
X190453228Y-108292399D01*
X191024657Y-107530495D02*
X191024657Y-106768590D01*
X190881800Y-106578113D02*
X190929419Y-106435256D01*
X190929419Y-106435256D02*
X190929419Y-106197161D01*
X190929419Y-106197161D02*
X190881800Y-106101923D01*
X190881800Y-106101923D02*
X190834180Y-106054304D01*
X190834180Y-106054304D02*
X190738942Y-106006685D01*
X190738942Y-106006685D02*
X190643704Y-106006685D01*
X190643704Y-106006685D02*
X190548466Y-106054304D01*
X190548466Y-106054304D02*
X190500847Y-106101923D01*
X190500847Y-106101923D02*
X190453228Y-106197161D01*
X190453228Y-106197161D02*
X190405609Y-106387637D01*
X190405609Y-106387637D02*
X190357990Y-106482875D01*
X190357990Y-106482875D02*
X190310371Y-106530494D01*
X190310371Y-106530494D02*
X190215133Y-106578113D01*
X190215133Y-106578113D02*
X190119895Y-106578113D01*
X190119895Y-106578113D02*
X190024657Y-106530494D01*
X190024657Y-106530494D02*
X189977038Y-106482875D01*
X189977038Y-106482875D02*
X189929419Y-106387637D01*
X189929419Y-106387637D02*
X189929419Y-106149542D01*
X189929419Y-106149542D02*
X189977038Y-106006685D01*
X190405609Y-105578113D02*
X190405609Y-105244780D01*
X190929419Y-105101923D02*
X190929419Y-105578113D01*
X190929419Y-105578113D02*
X189929419Y-105578113D01*
X189929419Y-105578113D02*
X189929419Y-105101923D01*
X190929419Y-104673351D02*
X189929419Y-104673351D01*
X189929419Y-104673351D02*
X190929419Y-104101923D01*
X190929419Y-104101923D02*
X189929419Y-104101923D01*
X190881800Y-103673351D02*
X190929419Y-103530494D01*
X190929419Y-103530494D02*
X190929419Y-103292399D01*
X190929419Y-103292399D02*
X190881800Y-103197161D01*
X190881800Y-103197161D02*
X190834180Y-103149542D01*
X190834180Y-103149542D02*
X190738942Y-103101923D01*
X190738942Y-103101923D02*
X190643704Y-103101923D01*
X190643704Y-103101923D02*
X190548466Y-103149542D01*
X190548466Y-103149542D02*
X190500847Y-103197161D01*
X190500847Y-103197161D02*
X190453228Y-103292399D01*
X190453228Y-103292399D02*
X190405609Y-103482875D01*
X190405609Y-103482875D02*
X190357990Y-103578113D01*
X190357990Y-103578113D02*
X190310371Y-103625732D01*
X190310371Y-103625732D02*
X190215133Y-103673351D01*
X190215133Y-103673351D02*
X190119895Y-103673351D01*
X190119895Y-103673351D02*
X190024657Y-103625732D01*
X190024657Y-103625732D02*
X189977038Y-103578113D01*
X189977038Y-103578113D02*
X189929419Y-103482875D01*
X189929419Y-103482875D02*
X189929419Y-103244780D01*
X189929419Y-103244780D02*
X189977038Y-103101923D01*
X190405609Y-102673351D02*
X190405609Y-102340018D01*
X190929419Y-102197161D02*
X190929419Y-102673351D01*
X190929419Y-102673351D02*
X189929419Y-102673351D01*
X189929419Y-102673351D02*
X189929419Y-102197161D01*
X190405609Y-101435256D02*
X190453228Y-101292399D01*
X190453228Y-101292399D02*
X190500847Y-101244780D01*
X190500847Y-101244780D02*
X190596085Y-101197161D01*
X190596085Y-101197161D02*
X190738942Y-101197161D01*
X190738942Y-101197161D02*
X190834180Y-101244780D01*
X190834180Y-101244780D02*
X190881800Y-101292399D01*
X190881800Y-101292399D02*
X190929419Y-101387637D01*
X190929419Y-101387637D02*
X190929419Y-101768589D01*
X190929419Y-101768589D02*
X189929419Y-101768589D01*
X189929419Y-101768589D02*
X189929419Y-101435256D01*
X189929419Y-101435256D02*
X189977038Y-101340018D01*
X189977038Y-101340018D02*
X190024657Y-101292399D01*
X190024657Y-101292399D02*
X190119895Y-101244780D01*
X190119895Y-101244780D02*
X190215133Y-101244780D01*
X190215133Y-101244780D02*
X190310371Y-101292399D01*
X190310371Y-101292399D02*
X190357990Y-101340018D01*
X190357990Y-101340018D02*
X190405609Y-101435256D01*
X190405609Y-101435256D02*
X190405609Y-101768589D01*
X190929419Y-100244780D02*
X190929419Y-100816208D01*
X190929419Y-100530494D02*
X189929419Y-100530494D01*
X189929419Y-100530494D02*
X190072276Y-100625732D01*
X190072276Y-100625732D02*
X190167514Y-100720970D01*
X190167514Y-100720970D02*
X190215133Y-100816208D01*
X174470219Y-92917543D02*
X173994028Y-93250876D01*
X174470219Y-93488971D02*
X173470219Y-93488971D01*
X173470219Y-93488971D02*
X173470219Y-93108019D01*
X173470219Y-93108019D02*
X173517838Y-93012781D01*
X173517838Y-93012781D02*
X173565457Y-92965162D01*
X173565457Y-92965162D02*
X173660695Y-92917543D01*
X173660695Y-92917543D02*
X173803552Y-92917543D01*
X173803552Y-92917543D02*
X173898790Y-92965162D01*
X173898790Y-92965162D02*
X173946409Y-93012781D01*
X173946409Y-93012781D02*
X173994028Y-93108019D01*
X173994028Y-93108019D02*
X173994028Y-93488971D01*
X174565457Y-92727067D02*
X174565457Y-91965162D01*
X174422600Y-91774685D02*
X174470219Y-91631828D01*
X174470219Y-91631828D02*
X174470219Y-91393733D01*
X174470219Y-91393733D02*
X174422600Y-91298495D01*
X174422600Y-91298495D02*
X174374980Y-91250876D01*
X174374980Y-91250876D02*
X174279742Y-91203257D01*
X174279742Y-91203257D02*
X174184504Y-91203257D01*
X174184504Y-91203257D02*
X174089266Y-91250876D01*
X174089266Y-91250876D02*
X174041647Y-91298495D01*
X174041647Y-91298495D02*
X173994028Y-91393733D01*
X173994028Y-91393733D02*
X173946409Y-91584209D01*
X173946409Y-91584209D02*
X173898790Y-91679447D01*
X173898790Y-91679447D02*
X173851171Y-91727066D01*
X173851171Y-91727066D02*
X173755933Y-91774685D01*
X173755933Y-91774685D02*
X173660695Y-91774685D01*
X173660695Y-91774685D02*
X173565457Y-91727066D01*
X173565457Y-91727066D02*
X173517838Y-91679447D01*
X173517838Y-91679447D02*
X173470219Y-91584209D01*
X173470219Y-91584209D02*
X173470219Y-91346114D01*
X173470219Y-91346114D02*
X173517838Y-91203257D01*
X173946409Y-90774685D02*
X173946409Y-90441352D01*
X174470219Y-90298495D02*
X174470219Y-90774685D01*
X174470219Y-90774685D02*
X173470219Y-90774685D01*
X173470219Y-90774685D02*
X173470219Y-90298495D01*
X174470219Y-89869923D02*
X173470219Y-89869923D01*
X173470219Y-89869923D02*
X174470219Y-89298495D01*
X174470219Y-89298495D02*
X173470219Y-89298495D01*
X174422600Y-88869923D02*
X174470219Y-88727066D01*
X174470219Y-88727066D02*
X174470219Y-88488971D01*
X174470219Y-88488971D02*
X174422600Y-88393733D01*
X174422600Y-88393733D02*
X174374980Y-88346114D01*
X174374980Y-88346114D02*
X174279742Y-88298495D01*
X174279742Y-88298495D02*
X174184504Y-88298495D01*
X174184504Y-88298495D02*
X174089266Y-88346114D01*
X174089266Y-88346114D02*
X174041647Y-88393733D01*
X174041647Y-88393733D02*
X173994028Y-88488971D01*
X173994028Y-88488971D02*
X173946409Y-88679447D01*
X173946409Y-88679447D02*
X173898790Y-88774685D01*
X173898790Y-88774685D02*
X173851171Y-88822304D01*
X173851171Y-88822304D02*
X173755933Y-88869923D01*
X173755933Y-88869923D02*
X173660695Y-88869923D01*
X173660695Y-88869923D02*
X173565457Y-88822304D01*
X173565457Y-88822304D02*
X173517838Y-88774685D01*
X173517838Y-88774685D02*
X173470219Y-88679447D01*
X173470219Y-88679447D02*
X173470219Y-88441352D01*
X173470219Y-88441352D02*
X173517838Y-88298495D01*
X173946409Y-87869923D02*
X173946409Y-87536590D01*
X174470219Y-87393733D02*
X174470219Y-87869923D01*
X174470219Y-87869923D02*
X173470219Y-87869923D01*
X173470219Y-87869923D02*
X173470219Y-87393733D01*
X174184504Y-87012780D02*
X174184504Y-86536590D01*
X174470219Y-87108018D02*
X173470219Y-86774685D01*
X173470219Y-86774685D02*
X174470219Y-86441352D01*
X174470219Y-85584209D02*
X174470219Y-86155637D01*
X174470219Y-85869923D02*
X173470219Y-85869923D01*
X173470219Y-85869923D02*
X173613076Y-85965161D01*
X173613076Y-85965161D02*
X173708314Y-86060399D01*
X173708314Y-86060399D02*
X173755933Y-86155637D01*
D11*
X165131447Y-99882270D02*
X165010495Y-99821794D01*
X165010495Y-99821794D02*
X164889542Y-99700842D01*
X164889542Y-99700842D02*
X164708114Y-99519413D01*
X164708114Y-99519413D02*
X164587161Y-99458937D01*
X164587161Y-99458937D02*
X164466209Y-99458937D01*
X164526685Y-99761318D02*
X164405733Y-99700842D01*
X164405733Y-99700842D02*
X164284780Y-99579889D01*
X164284780Y-99579889D02*
X164224304Y-99337984D01*
X164224304Y-99337984D02*
X164224304Y-98914651D01*
X164224304Y-98914651D02*
X164284780Y-98672746D01*
X164284780Y-98672746D02*
X164405733Y-98551794D01*
X164405733Y-98551794D02*
X164526685Y-98491318D01*
X164526685Y-98491318D02*
X164768590Y-98491318D01*
X164768590Y-98491318D02*
X164889542Y-98551794D01*
X164889542Y-98551794D02*
X165010495Y-98672746D01*
X165010495Y-98672746D02*
X165070971Y-98914651D01*
X165070971Y-98914651D02*
X165070971Y-99337984D01*
X165070971Y-99337984D02*
X165010495Y-99579889D01*
X165010495Y-99579889D02*
X164889542Y-99700842D01*
X164889542Y-99700842D02*
X164768590Y-99761318D01*
X164768590Y-99761318D02*
X164526685Y-99761318D01*
X165494304Y-98491318D02*
X166280495Y-98491318D01*
X166280495Y-98491318D02*
X165857161Y-98975127D01*
X165857161Y-98975127D02*
X166038590Y-98975127D01*
X166038590Y-98975127D02*
X166159542Y-99035603D01*
X166159542Y-99035603D02*
X166220018Y-99096080D01*
X166220018Y-99096080D02*
X166280495Y-99217032D01*
X166280495Y-99217032D02*
X166280495Y-99519413D01*
X166280495Y-99519413D02*
X166220018Y-99640365D01*
X166220018Y-99640365D02*
X166159542Y-99700842D01*
X166159542Y-99700842D02*
X166038590Y-99761318D01*
X166038590Y-99761318D02*
X165675733Y-99761318D01*
X165675733Y-99761318D02*
X165554780Y-99700842D01*
X165554780Y-99700842D02*
X165494304Y-99640365D01*
D10*
X187384266Y-59500019D02*
X187384266Y-60214304D01*
X187384266Y-60214304D02*
X187336647Y-60357161D01*
X187336647Y-60357161D02*
X187241409Y-60452400D01*
X187241409Y-60452400D02*
X187098552Y-60500019D01*
X187098552Y-60500019D02*
X187003314Y-60500019D01*
X188384266Y-60500019D02*
X187812838Y-60500019D01*
X188098552Y-60500019D02*
X188098552Y-59500019D01*
X188098552Y-59500019D02*
X188003314Y-59642876D01*
X188003314Y-59642876D02*
X187908076Y-59738114D01*
X187908076Y-59738114D02*
X187812838Y-59785733D01*
D11*
X165648019Y-102780480D02*
X165224685Y-102780480D01*
X165224685Y-103445718D02*
X165224685Y-102175718D01*
X165224685Y-102175718D02*
X165829447Y-102175718D01*
X166918018Y-103445718D02*
X166313256Y-103445718D01*
X166313256Y-103445718D02*
X166313256Y-102175718D01*
X168006590Y-103445718D02*
X167280875Y-103445718D01*
X167643732Y-103445718D02*
X167643732Y-102175718D01*
X167643732Y-102175718D02*
X167522780Y-102357146D01*
X167522780Y-102357146D02*
X167401828Y-102478099D01*
X167401828Y-102478099D02*
X167280875Y-102538575D01*
X173814618Y-110175318D02*
X173814618Y-108905318D01*
X173814618Y-108905318D02*
X174116999Y-108905318D01*
X174116999Y-108905318D02*
X174298428Y-108965794D01*
X174298428Y-108965794D02*
X174419380Y-109086746D01*
X174419380Y-109086746D02*
X174479857Y-109207699D01*
X174479857Y-109207699D02*
X174540333Y-109449603D01*
X174540333Y-109449603D02*
X174540333Y-109631032D01*
X174540333Y-109631032D02*
X174479857Y-109872937D01*
X174479857Y-109872937D02*
X174419380Y-109993889D01*
X174419380Y-109993889D02*
X174298428Y-110114842D01*
X174298428Y-110114842D02*
X174116999Y-110175318D01*
X174116999Y-110175318D02*
X173814618Y-110175318D01*
X174963666Y-108905318D02*
X175749857Y-108905318D01*
X175749857Y-108905318D02*
X175326523Y-109389127D01*
X175326523Y-109389127D02*
X175507952Y-109389127D01*
X175507952Y-109389127D02*
X175628904Y-109449603D01*
X175628904Y-109449603D02*
X175689380Y-109510080D01*
X175689380Y-109510080D02*
X175749857Y-109631032D01*
X175749857Y-109631032D02*
X175749857Y-109933413D01*
X175749857Y-109933413D02*
X175689380Y-110054365D01*
X175689380Y-110054365D02*
X175628904Y-110114842D01*
X175628904Y-110114842D02*
X175507952Y-110175318D01*
X175507952Y-110175318D02*
X175145095Y-110175318D01*
X175145095Y-110175318D02*
X175024142Y-110114842D01*
X175024142Y-110114842D02*
X174963666Y-110054365D01*
D10*
X195308932Y-103229580D02*
X195261313Y-103277200D01*
X195261313Y-103277200D02*
X195118456Y-103324819D01*
X195118456Y-103324819D02*
X195023218Y-103324819D01*
X195023218Y-103324819D02*
X194880361Y-103277200D01*
X194880361Y-103277200D02*
X194785123Y-103181961D01*
X194785123Y-103181961D02*
X194737504Y-103086723D01*
X194737504Y-103086723D02*
X194689885Y-102896247D01*
X194689885Y-102896247D02*
X194689885Y-102753390D01*
X194689885Y-102753390D02*
X194737504Y-102562914D01*
X194737504Y-102562914D02*
X194785123Y-102467676D01*
X194785123Y-102467676D02*
X194880361Y-102372438D01*
X194880361Y-102372438D02*
X195023218Y-102324819D01*
X195023218Y-102324819D02*
X195118456Y-102324819D01*
X195118456Y-102324819D02*
X195261313Y-102372438D01*
X195261313Y-102372438D02*
X195308932Y-102420057D01*
X195499409Y-103420057D02*
X196261313Y-103420057D01*
X196451790Y-103277200D02*
X196547028Y-103324819D01*
X196547028Y-103324819D02*
X196737504Y-103324819D01*
X196737504Y-103324819D02*
X196832742Y-103277200D01*
X196832742Y-103277200D02*
X196880361Y-103181961D01*
X196880361Y-103181961D02*
X196880361Y-103134342D01*
X196880361Y-103134342D02*
X196832742Y-103039104D01*
X196832742Y-103039104D02*
X196737504Y-102991485D01*
X196737504Y-102991485D02*
X196594647Y-102991485D01*
X196594647Y-102991485D02*
X196499409Y-102943866D01*
X196499409Y-102943866D02*
X196451790Y-102848628D01*
X196451790Y-102848628D02*
X196451790Y-102801009D01*
X196451790Y-102801009D02*
X196499409Y-102705771D01*
X196499409Y-102705771D02*
X196594647Y-102658152D01*
X196594647Y-102658152D02*
X196737504Y-102658152D01*
X196737504Y-102658152D02*
X196832742Y-102705771D01*
X197689885Y-103277200D02*
X197594647Y-103324819D01*
X197594647Y-103324819D02*
X197404171Y-103324819D01*
X197404171Y-103324819D02*
X197308933Y-103277200D01*
X197308933Y-103277200D02*
X197261314Y-103181961D01*
X197261314Y-103181961D02*
X197261314Y-102801009D01*
X197261314Y-102801009D02*
X197308933Y-102705771D01*
X197308933Y-102705771D02*
X197404171Y-102658152D01*
X197404171Y-102658152D02*
X197594647Y-102658152D01*
X197594647Y-102658152D02*
X197689885Y-102705771D01*
X197689885Y-102705771D02*
X197737504Y-102801009D01*
X197737504Y-102801009D02*
X197737504Y-102896247D01*
X197737504Y-102896247D02*
X197261314Y-102991485D01*
X198166076Y-102658152D02*
X198166076Y-103324819D01*
X198166076Y-102753390D02*
X198213695Y-102705771D01*
X198213695Y-102705771D02*
X198308933Y-102658152D01*
X198308933Y-102658152D02*
X198451790Y-102658152D01*
X198451790Y-102658152D02*
X198547028Y-102705771D01*
X198547028Y-102705771D02*
X198594647Y-102801009D01*
X198594647Y-102801009D02*
X198594647Y-103324819D01*
X199023219Y-103277200D02*
X199118457Y-103324819D01*
X199118457Y-103324819D02*
X199308933Y-103324819D01*
X199308933Y-103324819D02*
X199404171Y-103277200D01*
X199404171Y-103277200D02*
X199451790Y-103181961D01*
X199451790Y-103181961D02*
X199451790Y-103134342D01*
X199451790Y-103134342D02*
X199404171Y-103039104D01*
X199404171Y-103039104D02*
X199308933Y-102991485D01*
X199308933Y-102991485D02*
X199166076Y-102991485D01*
X199166076Y-102991485D02*
X199070838Y-102943866D01*
X199070838Y-102943866D02*
X199023219Y-102848628D01*
X199023219Y-102848628D02*
X199023219Y-102801009D01*
X199023219Y-102801009D02*
X199070838Y-102705771D01*
X199070838Y-102705771D02*
X199166076Y-102658152D01*
X199166076Y-102658152D02*
X199308933Y-102658152D01*
X199308933Y-102658152D02*
X199404171Y-102705771D01*
X200261314Y-103277200D02*
X200166076Y-103324819D01*
X200166076Y-103324819D02*
X199975600Y-103324819D01*
X199975600Y-103324819D02*
X199880362Y-103277200D01*
X199880362Y-103277200D02*
X199832743Y-103181961D01*
X199832743Y-103181961D02*
X199832743Y-102801009D01*
X199832743Y-102801009D02*
X199880362Y-102705771D01*
X199880362Y-102705771D02*
X199975600Y-102658152D01*
X199975600Y-102658152D02*
X200166076Y-102658152D01*
X200166076Y-102658152D02*
X200261314Y-102705771D01*
X200261314Y-102705771D02*
X200308933Y-102801009D01*
X200308933Y-102801009D02*
X200308933Y-102896247D01*
X200308933Y-102896247D02*
X199832743Y-102991485D01*
X201070838Y-102801009D02*
X201213695Y-102848628D01*
X201213695Y-102848628D02*
X201261314Y-102896247D01*
X201261314Y-102896247D02*
X201308933Y-102991485D01*
X201308933Y-102991485D02*
X201308933Y-103134342D01*
X201308933Y-103134342D02*
X201261314Y-103229580D01*
X201261314Y-103229580D02*
X201213695Y-103277200D01*
X201213695Y-103277200D02*
X201118457Y-103324819D01*
X201118457Y-103324819D02*
X200737505Y-103324819D01*
X200737505Y-103324819D02*
X200737505Y-102324819D01*
X200737505Y-102324819D02*
X201070838Y-102324819D01*
X201070838Y-102324819D02*
X201166076Y-102372438D01*
X201166076Y-102372438D02*
X201213695Y-102420057D01*
X201213695Y-102420057D02*
X201261314Y-102515295D01*
X201261314Y-102515295D02*
X201261314Y-102610533D01*
X201261314Y-102610533D02*
X201213695Y-102705771D01*
X201213695Y-102705771D02*
X201166076Y-102753390D01*
X201166076Y-102753390D02*
X201070838Y-102801009D01*
X201070838Y-102801009D02*
X200737505Y-102801009D01*
X202261314Y-103324819D02*
X201689886Y-103324819D01*
X201975600Y-103324819D02*
X201975600Y-102324819D01*
X201975600Y-102324819D02*
X201880362Y-102467676D01*
X201880362Y-102467676D02*
X201785124Y-102562914D01*
X201785124Y-102562914D02*
X201689886Y-102610533D01*
X209970619Y-95332133D02*
X209494428Y-95665466D01*
X209970619Y-95903561D02*
X208970619Y-95903561D01*
X208970619Y-95903561D02*
X208970619Y-95522609D01*
X208970619Y-95522609D02*
X209018238Y-95427371D01*
X209018238Y-95427371D02*
X209065857Y-95379752D01*
X209065857Y-95379752D02*
X209161095Y-95332133D01*
X209161095Y-95332133D02*
X209303952Y-95332133D01*
X209303952Y-95332133D02*
X209399190Y-95379752D01*
X209399190Y-95379752D02*
X209446809Y-95427371D01*
X209446809Y-95427371D02*
X209494428Y-95522609D01*
X209494428Y-95522609D02*
X209494428Y-95903561D01*
X210065857Y-95141657D02*
X210065857Y-94379752D01*
X209446809Y-93808323D02*
X209446809Y-94141656D01*
X209970619Y-94141656D02*
X208970619Y-94141656D01*
X208970619Y-94141656D02*
X208970619Y-93665466D01*
X209446809Y-92951180D02*
X209494428Y-92808323D01*
X209494428Y-92808323D02*
X209542047Y-92760704D01*
X209542047Y-92760704D02*
X209637285Y-92713085D01*
X209637285Y-92713085D02*
X209780142Y-92713085D01*
X209780142Y-92713085D02*
X209875380Y-92760704D01*
X209875380Y-92760704D02*
X209923000Y-92808323D01*
X209923000Y-92808323D02*
X209970619Y-92903561D01*
X209970619Y-92903561D02*
X209970619Y-93284513D01*
X209970619Y-93284513D02*
X208970619Y-93284513D01*
X208970619Y-93284513D02*
X208970619Y-92951180D01*
X208970619Y-92951180D02*
X209018238Y-92855942D01*
X209018238Y-92855942D02*
X209065857Y-92808323D01*
X209065857Y-92808323D02*
X209161095Y-92760704D01*
X209161095Y-92760704D02*
X209256333Y-92760704D01*
X209256333Y-92760704D02*
X209351571Y-92808323D01*
X209351571Y-92808323D02*
X209399190Y-92855942D01*
X209399190Y-92855942D02*
X209446809Y-92951180D01*
X209446809Y-92951180D02*
X209446809Y-93284513D01*
X209970619Y-92284513D02*
X208970619Y-92284513D01*
X208970619Y-92284513D02*
X209684904Y-91951180D01*
X209684904Y-91951180D02*
X208970619Y-91617847D01*
X208970619Y-91617847D02*
X209970619Y-91617847D01*
X209684904Y-91189275D02*
X209684904Y-90713085D01*
X209970619Y-91284513D02*
X208970619Y-90951180D01*
X208970619Y-90951180D02*
X209970619Y-90617847D01*
X208970619Y-90379751D02*
X209970619Y-89713085D01*
X208970619Y-89713085D02*
X209970619Y-90379751D01*
X210065857Y-89570228D02*
X210065857Y-88808323D01*
X209970619Y-88046418D02*
X209970619Y-88617846D01*
X209970619Y-88332132D02*
X208970619Y-88332132D01*
X208970619Y-88332132D02*
X209113476Y-88427370D01*
X209113476Y-88427370D02*
X209208714Y-88522608D01*
X209208714Y-88522608D02*
X209256333Y-88617846D01*
X214526019Y-91163590D02*
X214049828Y-91496923D01*
X214526019Y-91735018D02*
X213526019Y-91735018D01*
X213526019Y-91735018D02*
X213526019Y-91354066D01*
X213526019Y-91354066D02*
X213573638Y-91258828D01*
X213573638Y-91258828D02*
X213621257Y-91211209D01*
X213621257Y-91211209D02*
X213716495Y-91163590D01*
X213716495Y-91163590D02*
X213859352Y-91163590D01*
X213859352Y-91163590D02*
X213954590Y-91211209D01*
X213954590Y-91211209D02*
X214002209Y-91258828D01*
X214002209Y-91258828D02*
X214049828Y-91354066D01*
X214049828Y-91354066D02*
X214049828Y-91735018D01*
X214621257Y-90973114D02*
X214621257Y-90211209D01*
X214002209Y-89639780D02*
X214002209Y-89973113D01*
X214526019Y-89973113D02*
X213526019Y-89973113D01*
X213526019Y-89973113D02*
X213526019Y-89496923D01*
X214002209Y-88782637D02*
X214049828Y-88639780D01*
X214049828Y-88639780D02*
X214097447Y-88592161D01*
X214097447Y-88592161D02*
X214192685Y-88544542D01*
X214192685Y-88544542D02*
X214335542Y-88544542D01*
X214335542Y-88544542D02*
X214430780Y-88592161D01*
X214430780Y-88592161D02*
X214478400Y-88639780D01*
X214478400Y-88639780D02*
X214526019Y-88735018D01*
X214526019Y-88735018D02*
X214526019Y-89115970D01*
X214526019Y-89115970D02*
X213526019Y-89115970D01*
X213526019Y-89115970D02*
X213526019Y-88782637D01*
X213526019Y-88782637D02*
X213573638Y-88687399D01*
X213573638Y-88687399D02*
X213621257Y-88639780D01*
X213621257Y-88639780D02*
X213716495Y-88592161D01*
X213716495Y-88592161D02*
X213811733Y-88592161D01*
X213811733Y-88592161D02*
X213906971Y-88639780D01*
X213906971Y-88639780D02*
X213954590Y-88687399D01*
X213954590Y-88687399D02*
X214002209Y-88782637D01*
X214002209Y-88782637D02*
X214002209Y-89115970D01*
X213621257Y-88163589D02*
X213573638Y-88115970D01*
X213573638Y-88115970D02*
X213526019Y-88020732D01*
X213526019Y-88020732D02*
X213526019Y-87782637D01*
X213526019Y-87782637D02*
X213573638Y-87687399D01*
X213573638Y-87687399D02*
X213621257Y-87639780D01*
X213621257Y-87639780D02*
X213716495Y-87592161D01*
X213716495Y-87592161D02*
X213811733Y-87592161D01*
X213811733Y-87592161D02*
X213954590Y-87639780D01*
X213954590Y-87639780D02*
X214526019Y-88211208D01*
X214526019Y-88211208D02*
X214526019Y-87592161D01*
X222518580Y-85030019D02*
X222566200Y-85077638D01*
X222566200Y-85077638D02*
X222613819Y-85220495D01*
X222613819Y-85220495D02*
X222613819Y-85315733D01*
X222613819Y-85315733D02*
X222566200Y-85458590D01*
X222566200Y-85458590D02*
X222470961Y-85553828D01*
X222470961Y-85553828D02*
X222375723Y-85601447D01*
X222375723Y-85601447D02*
X222185247Y-85649066D01*
X222185247Y-85649066D02*
X222042390Y-85649066D01*
X222042390Y-85649066D02*
X221851914Y-85601447D01*
X221851914Y-85601447D02*
X221756676Y-85553828D01*
X221756676Y-85553828D02*
X221661438Y-85458590D01*
X221661438Y-85458590D02*
X221613819Y-85315733D01*
X221613819Y-85315733D02*
X221613819Y-85220495D01*
X221613819Y-85220495D02*
X221661438Y-85077638D01*
X221661438Y-85077638D02*
X221709057Y-85030019D01*
X222709057Y-84839543D02*
X222709057Y-84077638D01*
X222518580Y-83268114D02*
X222566200Y-83315733D01*
X222566200Y-83315733D02*
X222613819Y-83458590D01*
X222613819Y-83458590D02*
X222613819Y-83553828D01*
X222613819Y-83553828D02*
X222566200Y-83696685D01*
X222566200Y-83696685D02*
X222470961Y-83791923D01*
X222470961Y-83791923D02*
X222375723Y-83839542D01*
X222375723Y-83839542D02*
X222185247Y-83887161D01*
X222185247Y-83887161D02*
X222042390Y-83887161D01*
X222042390Y-83887161D02*
X221851914Y-83839542D01*
X221851914Y-83839542D02*
X221756676Y-83791923D01*
X221756676Y-83791923D02*
X221661438Y-83696685D01*
X221661438Y-83696685D02*
X221613819Y-83553828D01*
X221613819Y-83553828D02*
X221613819Y-83458590D01*
X221613819Y-83458590D02*
X221661438Y-83315733D01*
X221661438Y-83315733D02*
X221709057Y-83268114D01*
X222566200Y-82887161D02*
X222613819Y-82744304D01*
X222613819Y-82744304D02*
X222613819Y-82506209D01*
X222613819Y-82506209D02*
X222566200Y-82410971D01*
X222566200Y-82410971D02*
X222518580Y-82363352D01*
X222518580Y-82363352D02*
X222423342Y-82315733D01*
X222423342Y-82315733D02*
X222328104Y-82315733D01*
X222328104Y-82315733D02*
X222232866Y-82363352D01*
X222232866Y-82363352D02*
X222185247Y-82410971D01*
X222185247Y-82410971D02*
X222137628Y-82506209D01*
X222137628Y-82506209D02*
X222090009Y-82696685D01*
X222090009Y-82696685D02*
X222042390Y-82791923D01*
X222042390Y-82791923D02*
X221994771Y-82839542D01*
X221994771Y-82839542D02*
X221899533Y-82887161D01*
X221899533Y-82887161D02*
X221804295Y-82887161D01*
X221804295Y-82887161D02*
X221709057Y-82839542D01*
X221709057Y-82839542D02*
X221661438Y-82791923D01*
X221661438Y-82791923D02*
X221613819Y-82696685D01*
X221613819Y-82696685D02*
X221613819Y-82458590D01*
X221613819Y-82458590D02*
X221661438Y-82315733D01*
X222613819Y-81887161D02*
X221613819Y-81887161D01*
X221613819Y-81887161D02*
X222613819Y-81315733D01*
X222613819Y-81315733D02*
X221613819Y-81315733D01*
X222613819Y-80315733D02*
X222613819Y-80887161D01*
X222613819Y-80601447D02*
X221613819Y-80601447D01*
X221613819Y-80601447D02*
X221756676Y-80696685D01*
X221756676Y-80696685D02*
X221851914Y-80791923D01*
X221851914Y-80791923D02*
X221899533Y-80887161D01*
X186949009Y-68685580D02*
X186901390Y-68733200D01*
X186901390Y-68733200D02*
X186758533Y-68780819D01*
X186758533Y-68780819D02*
X186663295Y-68780819D01*
X186663295Y-68780819D02*
X186520438Y-68733200D01*
X186520438Y-68733200D02*
X186425200Y-68637961D01*
X186425200Y-68637961D02*
X186377581Y-68542723D01*
X186377581Y-68542723D02*
X186329962Y-68352247D01*
X186329962Y-68352247D02*
X186329962Y-68209390D01*
X186329962Y-68209390D02*
X186377581Y-68018914D01*
X186377581Y-68018914D02*
X186425200Y-67923676D01*
X186425200Y-67923676D02*
X186520438Y-67828438D01*
X186520438Y-67828438D02*
X186663295Y-67780819D01*
X186663295Y-67780819D02*
X186758533Y-67780819D01*
X186758533Y-67780819D02*
X186901390Y-67828438D01*
X186901390Y-67828438D02*
X186949009Y-67876057D01*
X187139486Y-68876057D02*
X187901390Y-68876057D01*
X188329962Y-67780819D02*
X188520438Y-67780819D01*
X188520438Y-67780819D02*
X188615676Y-67828438D01*
X188615676Y-67828438D02*
X188710914Y-67923676D01*
X188710914Y-67923676D02*
X188758533Y-68114152D01*
X188758533Y-68114152D02*
X188758533Y-68447485D01*
X188758533Y-68447485D02*
X188710914Y-68637961D01*
X188710914Y-68637961D02*
X188615676Y-68733200D01*
X188615676Y-68733200D02*
X188520438Y-68780819D01*
X188520438Y-68780819D02*
X188329962Y-68780819D01*
X188329962Y-68780819D02*
X188234724Y-68733200D01*
X188234724Y-68733200D02*
X188139486Y-68637961D01*
X188139486Y-68637961D02*
X188091867Y-68447485D01*
X188091867Y-68447485D02*
X188091867Y-68114152D01*
X188091867Y-68114152D02*
X188139486Y-67923676D01*
X188139486Y-67923676D02*
X188234724Y-67828438D01*
X188234724Y-67828438D02*
X188329962Y-67780819D01*
X189187105Y-67780819D02*
X189187105Y-68590342D01*
X189187105Y-68590342D02*
X189234724Y-68685580D01*
X189234724Y-68685580D02*
X189282343Y-68733200D01*
X189282343Y-68733200D02*
X189377581Y-68780819D01*
X189377581Y-68780819D02*
X189568057Y-68780819D01*
X189568057Y-68780819D02*
X189663295Y-68733200D01*
X189663295Y-68733200D02*
X189710914Y-68685580D01*
X189710914Y-68685580D02*
X189758533Y-68590342D01*
X189758533Y-68590342D02*
X189758533Y-67780819D01*
X190091867Y-67780819D02*
X190663295Y-67780819D01*
X190377581Y-68780819D02*
X190377581Y-67780819D01*
X190949010Y-67876057D02*
X190996629Y-67828438D01*
X190996629Y-67828438D02*
X191091867Y-67780819D01*
X191091867Y-67780819D02*
X191329962Y-67780819D01*
X191329962Y-67780819D02*
X191425200Y-67828438D01*
X191425200Y-67828438D02*
X191472819Y-67876057D01*
X191472819Y-67876057D02*
X191520438Y-67971295D01*
X191520438Y-67971295D02*
X191520438Y-68066533D01*
X191520438Y-68066533D02*
X191472819Y-68209390D01*
X191472819Y-68209390D02*
X190901391Y-68780819D01*
X190901391Y-68780819D02*
X191520438Y-68780819D01*
X222274819Y-90973019D02*
X221798628Y-91306352D01*
X222274819Y-91544447D02*
X221274819Y-91544447D01*
X221274819Y-91544447D02*
X221274819Y-91163495D01*
X221274819Y-91163495D02*
X221322438Y-91068257D01*
X221322438Y-91068257D02*
X221370057Y-91020638D01*
X221370057Y-91020638D02*
X221465295Y-90973019D01*
X221465295Y-90973019D02*
X221608152Y-90973019D01*
X221608152Y-90973019D02*
X221703390Y-91020638D01*
X221703390Y-91020638D02*
X221751009Y-91068257D01*
X221751009Y-91068257D02*
X221798628Y-91163495D01*
X221798628Y-91163495D02*
X221798628Y-91544447D01*
X222370057Y-90782543D02*
X222370057Y-90020638D01*
X222179580Y-89211114D02*
X222227200Y-89258733D01*
X222227200Y-89258733D02*
X222274819Y-89401590D01*
X222274819Y-89401590D02*
X222274819Y-89496828D01*
X222274819Y-89496828D02*
X222227200Y-89639685D01*
X222227200Y-89639685D02*
X222131961Y-89734923D01*
X222131961Y-89734923D02*
X222036723Y-89782542D01*
X222036723Y-89782542D02*
X221846247Y-89830161D01*
X221846247Y-89830161D02*
X221703390Y-89830161D01*
X221703390Y-89830161D02*
X221512914Y-89782542D01*
X221512914Y-89782542D02*
X221417676Y-89734923D01*
X221417676Y-89734923D02*
X221322438Y-89639685D01*
X221322438Y-89639685D02*
X221274819Y-89496828D01*
X221274819Y-89496828D02*
X221274819Y-89401590D01*
X221274819Y-89401590D02*
X221322438Y-89258733D01*
X221322438Y-89258733D02*
X221370057Y-89211114D01*
X222227200Y-88830161D02*
X222274819Y-88687304D01*
X222274819Y-88687304D02*
X222274819Y-88449209D01*
X222274819Y-88449209D02*
X222227200Y-88353971D01*
X222227200Y-88353971D02*
X222179580Y-88306352D01*
X222179580Y-88306352D02*
X222084342Y-88258733D01*
X222084342Y-88258733D02*
X221989104Y-88258733D01*
X221989104Y-88258733D02*
X221893866Y-88306352D01*
X221893866Y-88306352D02*
X221846247Y-88353971D01*
X221846247Y-88353971D02*
X221798628Y-88449209D01*
X221798628Y-88449209D02*
X221751009Y-88639685D01*
X221751009Y-88639685D02*
X221703390Y-88734923D01*
X221703390Y-88734923D02*
X221655771Y-88782542D01*
X221655771Y-88782542D02*
X221560533Y-88830161D01*
X221560533Y-88830161D02*
X221465295Y-88830161D01*
X221465295Y-88830161D02*
X221370057Y-88782542D01*
X221370057Y-88782542D02*
X221322438Y-88734923D01*
X221322438Y-88734923D02*
X221274819Y-88639685D01*
X221274819Y-88639685D02*
X221274819Y-88401590D01*
X221274819Y-88401590D02*
X221322438Y-88258733D01*
X222274819Y-87830161D02*
X221274819Y-87830161D01*
X221274819Y-87830161D02*
X222274819Y-87258733D01*
X222274819Y-87258733D02*
X221274819Y-87258733D01*
X222274819Y-86258733D02*
X222274819Y-86830161D01*
X222274819Y-86544447D02*
X221274819Y-86544447D01*
X221274819Y-86544447D02*
X221417676Y-86639685D01*
X221417676Y-86639685D02*
X221512914Y-86734923D01*
X221512914Y-86734923D02*
X221560533Y-86830161D01*
X197529581Y-96958504D02*
X197491485Y-96996600D01*
X197491485Y-96996600D02*
X197377200Y-97034695D01*
X197377200Y-97034695D02*
X197301009Y-97034695D01*
X197301009Y-97034695D02*
X197186723Y-96996600D01*
X197186723Y-96996600D02*
X197110533Y-96920409D01*
X197110533Y-96920409D02*
X197072438Y-96844219D01*
X197072438Y-96844219D02*
X197034342Y-96691838D01*
X197034342Y-96691838D02*
X197034342Y-96577552D01*
X197034342Y-96577552D02*
X197072438Y-96425171D01*
X197072438Y-96425171D02*
X197110533Y-96348980D01*
X197110533Y-96348980D02*
X197186723Y-96272790D01*
X197186723Y-96272790D02*
X197301009Y-96234695D01*
X197301009Y-96234695D02*
X197377200Y-96234695D01*
X197377200Y-96234695D02*
X197491485Y-96272790D01*
X197491485Y-96272790D02*
X197529581Y-96310885D01*
X197681962Y-97110885D02*
X198291485Y-97110885D01*
X198481962Y-97034695D02*
X198481962Y-96234695D01*
X198862914Y-97034695D02*
X198862914Y-96234695D01*
X198862914Y-96234695D02*
X199320057Y-97034695D01*
X199320057Y-97034695D02*
X199320057Y-96234695D01*
X199624818Y-96234695D02*
X200120056Y-96234695D01*
X200120056Y-96234695D02*
X199853390Y-96539457D01*
X199853390Y-96539457D02*
X199967675Y-96539457D01*
X199967675Y-96539457D02*
X200043866Y-96577552D01*
X200043866Y-96577552D02*
X200081961Y-96615647D01*
X200081961Y-96615647D02*
X200120056Y-96691838D01*
X200120056Y-96691838D02*
X200120056Y-96882314D01*
X200120056Y-96882314D02*
X200081961Y-96958504D01*
X200081961Y-96958504D02*
X200043866Y-96996600D01*
X200043866Y-96996600D02*
X199967675Y-97034695D01*
X199967675Y-97034695D02*
X199739104Y-97034695D01*
X199739104Y-97034695D02*
X199662913Y-96996600D01*
X199662913Y-96996600D02*
X199624818Y-96958504D01*
D11*
X179207885Y-87829365D02*
X179147409Y-87889842D01*
X179147409Y-87889842D02*
X178965980Y-87950318D01*
X178965980Y-87950318D02*
X178845028Y-87950318D01*
X178845028Y-87950318D02*
X178663599Y-87889842D01*
X178663599Y-87889842D02*
X178542647Y-87768889D01*
X178542647Y-87768889D02*
X178482170Y-87647937D01*
X178482170Y-87647937D02*
X178421694Y-87406032D01*
X178421694Y-87406032D02*
X178421694Y-87224603D01*
X178421694Y-87224603D02*
X178482170Y-86982699D01*
X178482170Y-86982699D02*
X178542647Y-86861746D01*
X178542647Y-86861746D02*
X178663599Y-86740794D01*
X178663599Y-86740794D02*
X178845028Y-86680318D01*
X178845028Y-86680318D02*
X178965980Y-86680318D01*
X178965980Y-86680318D02*
X179147409Y-86740794D01*
X179147409Y-86740794D02*
X179207885Y-86801270D01*
X179449790Y-88071270D02*
X180417409Y-88071270D01*
X180719789Y-87103651D02*
X180719789Y-88373651D01*
X180719789Y-87164127D02*
X180840742Y-87103651D01*
X180840742Y-87103651D02*
X181082647Y-87103651D01*
X181082647Y-87103651D02*
X181203599Y-87164127D01*
X181203599Y-87164127D02*
X181264075Y-87224603D01*
X181264075Y-87224603D02*
X181324551Y-87345556D01*
X181324551Y-87345556D02*
X181324551Y-87708413D01*
X181324551Y-87708413D02*
X181264075Y-87829365D01*
X181264075Y-87829365D02*
X181203599Y-87889842D01*
X181203599Y-87889842D02*
X181082647Y-87950318D01*
X181082647Y-87950318D02*
X180840742Y-87950318D01*
X180840742Y-87950318D02*
X180719789Y-87889842D01*
X181747885Y-87103651D02*
X182050266Y-87950318D01*
X182050266Y-87950318D02*
X182352647Y-87103651D01*
X182836456Y-87950318D02*
X182836456Y-87103651D01*
X182836456Y-86680318D02*
X182775980Y-86740794D01*
X182775980Y-86740794D02*
X182836456Y-86801270D01*
X182836456Y-86801270D02*
X182896933Y-86740794D01*
X182896933Y-86740794D02*
X182836456Y-86680318D01*
X182836456Y-86680318D02*
X182836456Y-86801270D01*
X183441218Y-87103651D02*
X183441218Y-87950318D01*
X183441218Y-87224603D02*
X183501695Y-87164127D01*
X183501695Y-87164127D02*
X183622647Y-87103651D01*
X183622647Y-87103651D02*
X183804076Y-87103651D01*
X183804076Y-87103651D02*
X183925028Y-87164127D01*
X183925028Y-87164127D02*
X183985504Y-87285080D01*
X183985504Y-87285080D02*
X183985504Y-87950318D01*
X185255505Y-87950318D02*
X184529790Y-87950318D01*
X184892647Y-87950318D02*
X184892647Y-86680318D01*
X184892647Y-86680318D02*
X184771695Y-86861746D01*
X184771695Y-86861746D02*
X184650743Y-86982699D01*
X184650743Y-86982699D02*
X184529790Y-87043175D01*
X210749847Y-67690470D02*
X210628895Y-67629994D01*
X210628895Y-67629994D02*
X210507942Y-67509042D01*
X210507942Y-67509042D02*
X210326514Y-67327613D01*
X210326514Y-67327613D02*
X210205561Y-67267137D01*
X210205561Y-67267137D02*
X210084609Y-67267137D01*
X210145085Y-67569518D02*
X210024133Y-67509042D01*
X210024133Y-67509042D02*
X209903180Y-67388089D01*
X209903180Y-67388089D02*
X209842704Y-67146184D01*
X209842704Y-67146184D02*
X209842704Y-66722851D01*
X209842704Y-66722851D02*
X209903180Y-66480946D01*
X209903180Y-66480946D02*
X210024133Y-66359994D01*
X210024133Y-66359994D02*
X210145085Y-66299518D01*
X210145085Y-66299518D02*
X210386990Y-66299518D01*
X210386990Y-66299518D02*
X210507942Y-66359994D01*
X210507942Y-66359994D02*
X210628895Y-66480946D01*
X210628895Y-66480946D02*
X210689371Y-66722851D01*
X210689371Y-66722851D02*
X210689371Y-67146184D01*
X210689371Y-67146184D02*
X210628895Y-67388089D01*
X210628895Y-67388089D02*
X210507942Y-67509042D01*
X210507942Y-67509042D02*
X210386990Y-67569518D01*
X210386990Y-67569518D02*
X210145085Y-67569518D01*
X211898895Y-67569518D02*
X211173180Y-67569518D01*
X211536037Y-67569518D02*
X211536037Y-66299518D01*
X211536037Y-66299518D02*
X211415085Y-66480946D01*
X211415085Y-66480946D02*
X211294133Y-66601899D01*
X211294133Y-66601899D02*
X211173180Y-66662375D01*
X203484237Y-96433918D02*
X203484237Y-95163918D01*
X204814714Y-96312965D02*
X204754238Y-96373442D01*
X204754238Y-96373442D02*
X204572809Y-96433918D01*
X204572809Y-96433918D02*
X204451857Y-96433918D01*
X204451857Y-96433918D02*
X204270428Y-96373442D01*
X204270428Y-96373442D02*
X204149476Y-96252489D01*
X204149476Y-96252489D02*
X204088999Y-96131537D01*
X204088999Y-96131537D02*
X204028523Y-95889632D01*
X204028523Y-95889632D02*
X204028523Y-95708203D01*
X204028523Y-95708203D02*
X204088999Y-95466299D01*
X204088999Y-95466299D02*
X204149476Y-95345346D01*
X204149476Y-95345346D02*
X204270428Y-95224394D01*
X204270428Y-95224394D02*
X204451857Y-95163918D01*
X204451857Y-95163918D02*
X204572809Y-95163918D01*
X204572809Y-95163918D02*
X204754238Y-95224394D01*
X204754238Y-95224394D02*
X204814714Y-95284870D01*
X206024238Y-96433918D02*
X205298523Y-96433918D01*
X205661380Y-96433918D02*
X205661380Y-95163918D01*
X205661380Y-95163918D02*
X205540428Y-95345346D01*
X205540428Y-95345346D02*
X205419476Y-95466299D01*
X205419476Y-95466299D02*
X205298523Y-95526775D01*
D10*
X190757980Y-73510590D02*
X190805600Y-73558209D01*
X190805600Y-73558209D02*
X190853219Y-73701066D01*
X190853219Y-73701066D02*
X190853219Y-73796304D01*
X190853219Y-73796304D02*
X190805600Y-73939161D01*
X190805600Y-73939161D02*
X190710361Y-74034399D01*
X190710361Y-74034399D02*
X190615123Y-74082018D01*
X190615123Y-74082018D02*
X190424647Y-74129637D01*
X190424647Y-74129637D02*
X190281790Y-74129637D01*
X190281790Y-74129637D02*
X190091314Y-74082018D01*
X190091314Y-74082018D02*
X189996076Y-74034399D01*
X189996076Y-74034399D02*
X189900838Y-73939161D01*
X189900838Y-73939161D02*
X189853219Y-73796304D01*
X189853219Y-73796304D02*
X189853219Y-73701066D01*
X189853219Y-73701066D02*
X189900838Y-73558209D01*
X189900838Y-73558209D02*
X189948457Y-73510590D01*
X190948457Y-73320114D02*
X190948457Y-72558209D01*
X189853219Y-72462970D02*
X190853219Y-72129637D01*
X190853219Y-72129637D02*
X189853219Y-71796304D01*
X190757980Y-70891542D02*
X190805600Y-70939161D01*
X190805600Y-70939161D02*
X190853219Y-71082018D01*
X190853219Y-71082018D02*
X190853219Y-71177256D01*
X190853219Y-71177256D02*
X190805600Y-71320113D01*
X190805600Y-71320113D02*
X190710361Y-71415351D01*
X190710361Y-71415351D02*
X190615123Y-71462970D01*
X190615123Y-71462970D02*
X190424647Y-71510589D01*
X190424647Y-71510589D02*
X190281790Y-71510589D01*
X190281790Y-71510589D02*
X190091314Y-71462970D01*
X190091314Y-71462970D02*
X189996076Y-71415351D01*
X189996076Y-71415351D02*
X189900838Y-71320113D01*
X189900838Y-71320113D02*
X189853219Y-71177256D01*
X189853219Y-71177256D02*
X189853219Y-71082018D01*
X189853219Y-71082018D02*
X189900838Y-70939161D01*
X189900838Y-70939161D02*
X189948457Y-70891542D01*
X190853219Y-69939161D02*
X190853219Y-70510589D01*
X190853219Y-70224875D02*
X189853219Y-70224875D01*
X189853219Y-70224875D02*
X189996076Y-70320113D01*
X189996076Y-70320113D02*
X190091314Y-70415351D01*
X190091314Y-70415351D02*
X190138933Y-70510589D01*
D12*
X190889004Y-91243018D02*
X190927100Y-91281114D01*
X190927100Y-91281114D02*
X190965195Y-91395399D01*
X190965195Y-91395399D02*
X190965195Y-91471590D01*
X190965195Y-91471590D02*
X190927100Y-91585876D01*
X190927100Y-91585876D02*
X190850909Y-91662066D01*
X190850909Y-91662066D02*
X190774719Y-91700161D01*
X190774719Y-91700161D02*
X190622338Y-91738257D01*
X190622338Y-91738257D02*
X190508052Y-91738257D01*
X190508052Y-91738257D02*
X190355671Y-91700161D01*
X190355671Y-91700161D02*
X190279480Y-91662066D01*
X190279480Y-91662066D02*
X190203290Y-91585876D01*
X190203290Y-91585876D02*
X190165195Y-91471590D01*
X190165195Y-91471590D02*
X190165195Y-91395399D01*
X190165195Y-91395399D02*
X190203290Y-91281114D01*
X190203290Y-91281114D02*
X190241385Y-91243018D01*
X191041385Y-91090638D02*
X191041385Y-90481114D01*
X190965195Y-90290637D02*
X190165195Y-90290637D01*
X190965195Y-89909685D02*
X190165195Y-89909685D01*
X190165195Y-89909685D02*
X190965195Y-89452542D01*
X190965195Y-89452542D02*
X190165195Y-89452542D01*
X190965195Y-88652543D02*
X190965195Y-89109686D01*
X190965195Y-88881114D02*
X190165195Y-88881114D01*
X190165195Y-88881114D02*
X190279480Y-88957305D01*
X190279480Y-88957305D02*
X190355671Y-89033495D01*
X190355671Y-89033495D02*
X190393766Y-89109686D01*
D10*
X180116409Y-72571780D02*
X180068790Y-72619400D01*
X180068790Y-72619400D02*
X179925933Y-72667019D01*
X179925933Y-72667019D02*
X179830695Y-72667019D01*
X179830695Y-72667019D02*
X179687838Y-72619400D01*
X179687838Y-72619400D02*
X179592600Y-72524161D01*
X179592600Y-72524161D02*
X179544981Y-72428923D01*
X179544981Y-72428923D02*
X179497362Y-72238447D01*
X179497362Y-72238447D02*
X179497362Y-72095590D01*
X179497362Y-72095590D02*
X179544981Y-71905114D01*
X179544981Y-71905114D02*
X179592600Y-71809876D01*
X179592600Y-71809876D02*
X179687838Y-71714638D01*
X179687838Y-71714638D02*
X179830695Y-71667019D01*
X179830695Y-71667019D02*
X179925933Y-71667019D01*
X179925933Y-71667019D02*
X180068790Y-71714638D01*
X180068790Y-71714638D02*
X180116409Y-71762257D01*
X180306886Y-72762257D02*
X181068790Y-72762257D01*
X181497362Y-71667019D02*
X181687838Y-71667019D01*
X181687838Y-71667019D02*
X181783076Y-71714638D01*
X181783076Y-71714638D02*
X181878314Y-71809876D01*
X181878314Y-71809876D02*
X181925933Y-72000352D01*
X181925933Y-72000352D02*
X181925933Y-72333685D01*
X181925933Y-72333685D02*
X181878314Y-72524161D01*
X181878314Y-72524161D02*
X181783076Y-72619400D01*
X181783076Y-72619400D02*
X181687838Y-72667019D01*
X181687838Y-72667019D02*
X181497362Y-72667019D01*
X181497362Y-72667019D02*
X181402124Y-72619400D01*
X181402124Y-72619400D02*
X181306886Y-72524161D01*
X181306886Y-72524161D02*
X181259267Y-72333685D01*
X181259267Y-72333685D02*
X181259267Y-72000352D01*
X181259267Y-72000352D02*
X181306886Y-71809876D01*
X181306886Y-71809876D02*
X181402124Y-71714638D01*
X181402124Y-71714638D02*
X181497362Y-71667019D01*
X182354505Y-71667019D02*
X182354505Y-72476542D01*
X182354505Y-72476542D02*
X182402124Y-72571780D01*
X182402124Y-72571780D02*
X182449743Y-72619400D01*
X182449743Y-72619400D02*
X182544981Y-72667019D01*
X182544981Y-72667019D02*
X182735457Y-72667019D01*
X182735457Y-72667019D02*
X182830695Y-72619400D01*
X182830695Y-72619400D02*
X182878314Y-72571780D01*
X182878314Y-72571780D02*
X182925933Y-72476542D01*
X182925933Y-72476542D02*
X182925933Y-71667019D01*
X183259267Y-71667019D02*
X183830695Y-71667019D01*
X183544981Y-72667019D02*
X183544981Y-71667019D01*
X184687838Y-72667019D02*
X184116410Y-72667019D01*
X184402124Y-72667019D02*
X184402124Y-71667019D01*
X184402124Y-71667019D02*
X184306886Y-71809876D01*
X184306886Y-71809876D02*
X184211648Y-71905114D01*
X184211648Y-71905114D02*
X184116410Y-71952733D01*
X198911380Y-86721581D02*
X198959000Y-86769200D01*
X198959000Y-86769200D02*
X199006619Y-86912057D01*
X199006619Y-86912057D02*
X199006619Y-87007295D01*
X199006619Y-87007295D02*
X198959000Y-87150152D01*
X198959000Y-87150152D02*
X198863761Y-87245390D01*
X198863761Y-87245390D02*
X198768523Y-87293009D01*
X198768523Y-87293009D02*
X198578047Y-87340628D01*
X198578047Y-87340628D02*
X198435190Y-87340628D01*
X198435190Y-87340628D02*
X198244714Y-87293009D01*
X198244714Y-87293009D02*
X198149476Y-87245390D01*
X198149476Y-87245390D02*
X198054238Y-87150152D01*
X198054238Y-87150152D02*
X198006619Y-87007295D01*
X198006619Y-87007295D02*
X198006619Y-86912057D01*
X198006619Y-86912057D02*
X198054238Y-86769200D01*
X198054238Y-86769200D02*
X198101857Y-86721581D01*
X199101857Y-86531105D02*
X199101857Y-85769200D01*
X198911380Y-84959676D02*
X198959000Y-85007295D01*
X198959000Y-85007295D02*
X199006619Y-85150152D01*
X199006619Y-85150152D02*
X199006619Y-85245390D01*
X199006619Y-85245390D02*
X198959000Y-85388247D01*
X198959000Y-85388247D02*
X198863761Y-85483485D01*
X198863761Y-85483485D02*
X198768523Y-85531104D01*
X198768523Y-85531104D02*
X198578047Y-85578723D01*
X198578047Y-85578723D02*
X198435190Y-85578723D01*
X198435190Y-85578723D02*
X198244714Y-85531104D01*
X198244714Y-85531104D02*
X198149476Y-85483485D01*
X198149476Y-85483485D02*
X198054238Y-85388247D01*
X198054238Y-85388247D02*
X198006619Y-85245390D01*
X198006619Y-85245390D02*
X198006619Y-85150152D01*
X198006619Y-85150152D02*
X198054238Y-85007295D01*
X198054238Y-85007295D02*
X198101857Y-84959676D01*
X198959000Y-84578723D02*
X199006619Y-84435866D01*
X199006619Y-84435866D02*
X199006619Y-84197771D01*
X199006619Y-84197771D02*
X198959000Y-84102533D01*
X198959000Y-84102533D02*
X198911380Y-84054914D01*
X198911380Y-84054914D02*
X198816142Y-84007295D01*
X198816142Y-84007295D02*
X198720904Y-84007295D01*
X198720904Y-84007295D02*
X198625666Y-84054914D01*
X198625666Y-84054914D02*
X198578047Y-84102533D01*
X198578047Y-84102533D02*
X198530428Y-84197771D01*
X198530428Y-84197771D02*
X198482809Y-84388247D01*
X198482809Y-84388247D02*
X198435190Y-84483485D01*
X198435190Y-84483485D02*
X198387571Y-84531104D01*
X198387571Y-84531104D02*
X198292333Y-84578723D01*
X198292333Y-84578723D02*
X198197095Y-84578723D01*
X198197095Y-84578723D02*
X198101857Y-84531104D01*
X198101857Y-84531104D02*
X198054238Y-84483485D01*
X198054238Y-84483485D02*
X198006619Y-84388247D01*
X198006619Y-84388247D02*
X198006619Y-84150152D01*
X198006619Y-84150152D02*
X198054238Y-84007295D01*
X198006619Y-83388247D02*
X198006619Y-83197771D01*
X198006619Y-83197771D02*
X198054238Y-83102533D01*
X198054238Y-83102533D02*
X198149476Y-83007295D01*
X198149476Y-83007295D02*
X198339952Y-82959676D01*
X198339952Y-82959676D02*
X198673285Y-82959676D01*
X198673285Y-82959676D02*
X198863761Y-83007295D01*
X198863761Y-83007295D02*
X198959000Y-83102533D01*
X198959000Y-83102533D02*
X199006619Y-83197771D01*
X199006619Y-83197771D02*
X199006619Y-83388247D01*
X199006619Y-83388247D02*
X198959000Y-83483485D01*
X198959000Y-83483485D02*
X198863761Y-83578723D01*
X198863761Y-83578723D02*
X198673285Y-83626342D01*
X198673285Y-83626342D02*
X198339952Y-83626342D01*
X198339952Y-83626342D02*
X198149476Y-83578723D01*
X198149476Y-83578723D02*
X198054238Y-83483485D01*
X198054238Y-83483485D02*
X198006619Y-83388247D01*
X198006619Y-82531104D02*
X198816142Y-82531104D01*
X198816142Y-82531104D02*
X198911380Y-82483485D01*
X198911380Y-82483485D02*
X198959000Y-82435866D01*
X198959000Y-82435866D02*
X199006619Y-82340628D01*
X199006619Y-82340628D02*
X199006619Y-82150152D01*
X199006619Y-82150152D02*
X198959000Y-82054914D01*
X198959000Y-82054914D02*
X198911380Y-82007295D01*
X198911380Y-82007295D02*
X198816142Y-81959676D01*
X198816142Y-81959676D02*
X198006619Y-81959676D01*
X198006619Y-81626342D02*
X198006619Y-81054914D01*
X199006619Y-81340628D02*
X198006619Y-81340628D01*
X199006619Y-80197771D02*
X199006619Y-80769199D01*
X199006619Y-80483485D02*
X198006619Y-80483485D01*
X198006619Y-80483485D02*
X198149476Y-80578723D01*
X198149476Y-80578723D02*
X198244714Y-80673961D01*
X198244714Y-80673961D02*
X198292333Y-80769199D01*
X205890019Y-74221790D02*
X205413828Y-74555123D01*
X205890019Y-74793218D02*
X204890019Y-74793218D01*
X204890019Y-74793218D02*
X204890019Y-74412266D01*
X204890019Y-74412266D02*
X204937638Y-74317028D01*
X204937638Y-74317028D02*
X204985257Y-74269409D01*
X204985257Y-74269409D02*
X205080495Y-74221790D01*
X205080495Y-74221790D02*
X205223352Y-74221790D01*
X205223352Y-74221790D02*
X205318590Y-74269409D01*
X205318590Y-74269409D02*
X205366209Y-74317028D01*
X205366209Y-74317028D02*
X205413828Y-74412266D01*
X205413828Y-74412266D02*
X205413828Y-74793218D01*
X205985257Y-74031314D02*
X205985257Y-73269409D01*
X205366209Y-72697980D02*
X205366209Y-73031313D01*
X205890019Y-73031313D02*
X204890019Y-73031313D01*
X204890019Y-73031313D02*
X204890019Y-72555123D01*
X205366209Y-71840837D02*
X205413828Y-71697980D01*
X205413828Y-71697980D02*
X205461447Y-71650361D01*
X205461447Y-71650361D02*
X205556685Y-71602742D01*
X205556685Y-71602742D02*
X205699542Y-71602742D01*
X205699542Y-71602742D02*
X205794780Y-71650361D01*
X205794780Y-71650361D02*
X205842400Y-71697980D01*
X205842400Y-71697980D02*
X205890019Y-71793218D01*
X205890019Y-71793218D02*
X205890019Y-72174170D01*
X205890019Y-72174170D02*
X204890019Y-72174170D01*
X204890019Y-72174170D02*
X204890019Y-71840837D01*
X204890019Y-71840837D02*
X204937638Y-71745599D01*
X204937638Y-71745599D02*
X204985257Y-71697980D01*
X204985257Y-71697980D02*
X205080495Y-71650361D01*
X205080495Y-71650361D02*
X205175733Y-71650361D01*
X205175733Y-71650361D02*
X205270971Y-71697980D01*
X205270971Y-71697980D02*
X205318590Y-71745599D01*
X205318590Y-71745599D02*
X205366209Y-71840837D01*
X205366209Y-71840837D02*
X205366209Y-72174170D01*
X205890019Y-70650361D02*
X205890019Y-71221789D01*
X205890019Y-70936075D02*
X204890019Y-70936075D01*
X204890019Y-70936075D02*
X205032876Y-71031313D01*
X205032876Y-71031313D02*
X205128114Y-71126551D01*
X205128114Y-71126551D02*
X205175733Y-71221789D01*
D11*
X180621818Y-97526118D02*
X180621818Y-96256118D01*
X180621818Y-96256118D02*
X180924199Y-96256118D01*
X180924199Y-96256118D02*
X181105628Y-96316594D01*
X181105628Y-96316594D02*
X181226580Y-96437546D01*
X181226580Y-96437546D02*
X181287057Y-96558499D01*
X181287057Y-96558499D02*
X181347533Y-96800403D01*
X181347533Y-96800403D02*
X181347533Y-96981832D01*
X181347533Y-96981832D02*
X181287057Y-97223737D01*
X181287057Y-97223737D02*
X181226580Y-97344689D01*
X181226580Y-97344689D02*
X181105628Y-97465642D01*
X181105628Y-97465642D02*
X180924199Y-97526118D01*
X180924199Y-97526118D02*
X180621818Y-97526118D01*
X181831342Y-96377070D02*
X181891818Y-96316594D01*
X181891818Y-96316594D02*
X182012771Y-96256118D01*
X182012771Y-96256118D02*
X182315152Y-96256118D01*
X182315152Y-96256118D02*
X182436104Y-96316594D01*
X182436104Y-96316594D02*
X182496580Y-96377070D01*
X182496580Y-96377070D02*
X182557057Y-96498022D01*
X182557057Y-96498022D02*
X182557057Y-96618975D01*
X182557057Y-96618975D02*
X182496580Y-96800403D01*
X182496580Y-96800403D02*
X181770866Y-97526118D01*
X181770866Y-97526118D02*
X182557057Y-97526118D01*
D12*
X190601876Y-86139404D02*
X190563780Y-86177500D01*
X190563780Y-86177500D02*
X190449495Y-86215595D01*
X190449495Y-86215595D02*
X190373304Y-86215595D01*
X190373304Y-86215595D02*
X190259018Y-86177500D01*
X190259018Y-86177500D02*
X190182828Y-86101309D01*
X190182828Y-86101309D02*
X190144733Y-86025119D01*
X190144733Y-86025119D02*
X190106637Y-85872738D01*
X190106637Y-85872738D02*
X190106637Y-85758452D01*
X190106637Y-85758452D02*
X190144733Y-85606071D01*
X190144733Y-85606071D02*
X190182828Y-85529880D01*
X190182828Y-85529880D02*
X190259018Y-85453690D01*
X190259018Y-85453690D02*
X190373304Y-85415595D01*
X190373304Y-85415595D02*
X190449495Y-85415595D01*
X190449495Y-85415595D02*
X190563780Y-85453690D01*
X190563780Y-85453690D02*
X190601876Y-85491785D01*
X190754257Y-86291785D02*
X191363780Y-86291785D01*
X191554257Y-86215595D02*
X191554257Y-85682261D01*
X191554257Y-85415595D02*
X191516161Y-85453690D01*
X191516161Y-85453690D02*
X191554257Y-85491785D01*
X191554257Y-85491785D02*
X191592352Y-85453690D01*
X191592352Y-85453690D02*
X191554257Y-85415595D01*
X191554257Y-85415595D02*
X191554257Y-85491785D01*
X191935209Y-85682261D02*
X191935209Y-86215595D01*
X191935209Y-85758452D02*
X191973304Y-85720357D01*
X191973304Y-85720357D02*
X192049494Y-85682261D01*
X192049494Y-85682261D02*
X192163780Y-85682261D01*
X192163780Y-85682261D02*
X192239971Y-85720357D01*
X192239971Y-85720357D02*
X192278066Y-85796547D01*
X192278066Y-85796547D02*
X192278066Y-86215595D01*
X192544733Y-85682261D02*
X192849495Y-85682261D01*
X192659019Y-85415595D02*
X192659019Y-86101309D01*
X192659019Y-86101309D02*
X192697114Y-86177500D01*
X192697114Y-86177500D02*
X192773304Y-86215595D01*
X192773304Y-86215595D02*
X192849495Y-86215595D01*
X193039971Y-85682261D02*
X193230447Y-86215595D01*
X193230447Y-86215595D02*
X193420924Y-85682261D01*
X194068543Y-86177500D02*
X193992352Y-86215595D01*
X193992352Y-86215595D02*
X193839971Y-86215595D01*
X193839971Y-86215595D02*
X193763781Y-86177500D01*
X193763781Y-86177500D02*
X193725686Y-86139404D01*
X193725686Y-86139404D02*
X193687590Y-86063214D01*
X193687590Y-86063214D02*
X193687590Y-85834642D01*
X193687590Y-85834642D02*
X193725686Y-85758452D01*
X193725686Y-85758452D02*
X193763781Y-85720357D01*
X193763781Y-85720357D02*
X193839971Y-85682261D01*
X193839971Y-85682261D02*
X193992352Y-85682261D01*
X193992352Y-85682261D02*
X194068543Y-85720357D01*
X194754257Y-86177500D02*
X194678066Y-86215595D01*
X194678066Y-86215595D02*
X194525685Y-86215595D01*
X194525685Y-86215595D02*
X194449495Y-86177500D01*
X194449495Y-86177500D02*
X194411400Y-86139404D01*
X194411400Y-86139404D02*
X194373304Y-86063214D01*
X194373304Y-86063214D02*
X194373304Y-85834642D01*
X194373304Y-85834642D02*
X194411400Y-85758452D01*
X194411400Y-85758452D02*
X194449495Y-85720357D01*
X194449495Y-85720357D02*
X194525685Y-85682261D01*
X194525685Y-85682261D02*
X194678066Y-85682261D01*
X194678066Y-85682261D02*
X194754257Y-85720357D01*
X195516161Y-86215595D02*
X195059018Y-86215595D01*
X195287590Y-86215595D02*
X195287590Y-85415595D01*
X195287590Y-85415595D02*
X195211399Y-85529880D01*
X195211399Y-85529880D02*
X195135209Y-85606071D01*
X195135209Y-85606071D02*
X195059018Y-85644166D01*
D10*
X197226419Y-75244190D02*
X196750228Y-75577523D01*
X197226419Y-75815618D02*
X196226419Y-75815618D01*
X196226419Y-75815618D02*
X196226419Y-75434666D01*
X196226419Y-75434666D02*
X196274038Y-75339428D01*
X196274038Y-75339428D02*
X196321657Y-75291809D01*
X196321657Y-75291809D02*
X196416895Y-75244190D01*
X196416895Y-75244190D02*
X196559752Y-75244190D01*
X196559752Y-75244190D02*
X196654990Y-75291809D01*
X196654990Y-75291809D02*
X196702609Y-75339428D01*
X196702609Y-75339428D02*
X196750228Y-75434666D01*
X196750228Y-75434666D02*
X196750228Y-75815618D01*
X197321657Y-75053714D02*
X197321657Y-74291809D01*
X196226419Y-74196570D02*
X197226419Y-73863237D01*
X197226419Y-73863237D02*
X196226419Y-73529904D01*
X197131180Y-72625142D02*
X197178800Y-72672761D01*
X197178800Y-72672761D02*
X197226419Y-72815618D01*
X197226419Y-72815618D02*
X197226419Y-72910856D01*
X197226419Y-72910856D02*
X197178800Y-73053713D01*
X197178800Y-73053713D02*
X197083561Y-73148951D01*
X197083561Y-73148951D02*
X196988323Y-73196570D01*
X196988323Y-73196570D02*
X196797847Y-73244189D01*
X196797847Y-73244189D02*
X196654990Y-73244189D01*
X196654990Y-73244189D02*
X196464514Y-73196570D01*
X196464514Y-73196570D02*
X196369276Y-73148951D01*
X196369276Y-73148951D02*
X196274038Y-73053713D01*
X196274038Y-73053713D02*
X196226419Y-72910856D01*
X196226419Y-72910856D02*
X196226419Y-72815618D01*
X196226419Y-72815618D02*
X196274038Y-72672761D01*
X196274038Y-72672761D02*
X196321657Y-72625142D01*
X197226419Y-71672761D02*
X197226419Y-72244189D01*
X197226419Y-71958475D02*
X196226419Y-71958475D01*
X196226419Y-71958475D02*
X196369276Y-72053713D01*
X196369276Y-72053713D02*
X196464514Y-72148951D01*
X196464514Y-72148951D02*
X196512133Y-72244189D01*
X191265980Y-98654162D02*
X191313600Y-98701781D01*
X191313600Y-98701781D02*
X191361219Y-98844638D01*
X191361219Y-98844638D02*
X191361219Y-98939876D01*
X191361219Y-98939876D02*
X191313600Y-99082733D01*
X191313600Y-99082733D02*
X191218361Y-99177971D01*
X191218361Y-99177971D02*
X191123123Y-99225590D01*
X191123123Y-99225590D02*
X190932647Y-99273209D01*
X190932647Y-99273209D02*
X190789790Y-99273209D01*
X190789790Y-99273209D02*
X190599314Y-99225590D01*
X190599314Y-99225590D02*
X190504076Y-99177971D01*
X190504076Y-99177971D02*
X190408838Y-99082733D01*
X190408838Y-99082733D02*
X190361219Y-98939876D01*
X190361219Y-98939876D02*
X190361219Y-98844638D01*
X190361219Y-98844638D02*
X190408838Y-98701781D01*
X190408838Y-98701781D02*
X190456457Y-98654162D01*
X191456457Y-98463686D02*
X191456457Y-97701781D01*
X190837409Y-97130352D02*
X190885028Y-96987495D01*
X190885028Y-96987495D02*
X190932647Y-96939876D01*
X190932647Y-96939876D02*
X191027885Y-96892257D01*
X191027885Y-96892257D02*
X191170742Y-96892257D01*
X191170742Y-96892257D02*
X191265980Y-96939876D01*
X191265980Y-96939876D02*
X191313600Y-96987495D01*
X191313600Y-96987495D02*
X191361219Y-97082733D01*
X191361219Y-97082733D02*
X191361219Y-97463685D01*
X191361219Y-97463685D02*
X190361219Y-97463685D01*
X190361219Y-97463685D02*
X190361219Y-97130352D01*
X190361219Y-97130352D02*
X190408838Y-97035114D01*
X190408838Y-97035114D02*
X190456457Y-96987495D01*
X190456457Y-96987495D02*
X190551695Y-96939876D01*
X190551695Y-96939876D02*
X190646933Y-96939876D01*
X190646933Y-96939876D02*
X190742171Y-96987495D01*
X190742171Y-96987495D02*
X190789790Y-97035114D01*
X190789790Y-97035114D02*
X190837409Y-97130352D01*
X190837409Y-97130352D02*
X190837409Y-97463685D01*
X191313600Y-96511304D02*
X191361219Y-96368447D01*
X191361219Y-96368447D02*
X191361219Y-96130352D01*
X191361219Y-96130352D02*
X191313600Y-96035114D01*
X191313600Y-96035114D02*
X191265980Y-95987495D01*
X191265980Y-95987495D02*
X191170742Y-95939876D01*
X191170742Y-95939876D02*
X191075504Y-95939876D01*
X191075504Y-95939876D02*
X190980266Y-95987495D01*
X190980266Y-95987495D02*
X190932647Y-96035114D01*
X190932647Y-96035114D02*
X190885028Y-96130352D01*
X190885028Y-96130352D02*
X190837409Y-96320828D01*
X190837409Y-96320828D02*
X190789790Y-96416066D01*
X190789790Y-96416066D02*
X190742171Y-96463685D01*
X190742171Y-96463685D02*
X190646933Y-96511304D01*
X190646933Y-96511304D02*
X190551695Y-96511304D01*
X190551695Y-96511304D02*
X190456457Y-96463685D01*
X190456457Y-96463685D02*
X190408838Y-96416066D01*
X190408838Y-96416066D02*
X190361219Y-96320828D01*
X190361219Y-96320828D02*
X190361219Y-96082733D01*
X190361219Y-96082733D02*
X190408838Y-95939876D01*
X190361219Y-95654161D02*
X190361219Y-95082733D01*
X191361219Y-95368447D02*
X190361219Y-95368447D01*
X191361219Y-94225590D02*
X191361219Y-94797018D01*
X191361219Y-94511304D02*
X190361219Y-94511304D01*
X190361219Y-94511304D02*
X190504076Y-94606542D01*
X190504076Y-94606542D02*
X190599314Y-94701780D01*
X190599314Y-94701780D02*
X190646933Y-94797018D01*
X207329019Y-108686409D02*
X206852828Y-109019742D01*
X207329019Y-109257837D02*
X206329019Y-109257837D01*
X206329019Y-109257837D02*
X206329019Y-108876885D01*
X206329019Y-108876885D02*
X206376638Y-108781647D01*
X206376638Y-108781647D02*
X206424257Y-108734028D01*
X206424257Y-108734028D02*
X206519495Y-108686409D01*
X206519495Y-108686409D02*
X206662352Y-108686409D01*
X206662352Y-108686409D02*
X206757590Y-108734028D01*
X206757590Y-108734028D02*
X206805209Y-108781647D01*
X206805209Y-108781647D02*
X206852828Y-108876885D01*
X206852828Y-108876885D02*
X206852828Y-109257837D01*
X207424257Y-108495933D02*
X207424257Y-107734028D01*
X207233780Y-106924504D02*
X207281400Y-106972123D01*
X207281400Y-106972123D02*
X207329019Y-107114980D01*
X207329019Y-107114980D02*
X207329019Y-107210218D01*
X207329019Y-107210218D02*
X207281400Y-107353075D01*
X207281400Y-107353075D02*
X207186161Y-107448313D01*
X207186161Y-107448313D02*
X207090923Y-107495932D01*
X207090923Y-107495932D02*
X206900447Y-107543551D01*
X206900447Y-107543551D02*
X206757590Y-107543551D01*
X206757590Y-107543551D02*
X206567114Y-107495932D01*
X206567114Y-107495932D02*
X206471876Y-107448313D01*
X206471876Y-107448313D02*
X206376638Y-107353075D01*
X206376638Y-107353075D02*
X206329019Y-107210218D01*
X206329019Y-107210218D02*
X206329019Y-107114980D01*
X206329019Y-107114980D02*
X206376638Y-106972123D01*
X206376638Y-106972123D02*
X206424257Y-106924504D01*
X207281400Y-106543551D02*
X207329019Y-106400694D01*
X207329019Y-106400694D02*
X207329019Y-106162599D01*
X207329019Y-106162599D02*
X207281400Y-106067361D01*
X207281400Y-106067361D02*
X207233780Y-106019742D01*
X207233780Y-106019742D02*
X207138542Y-105972123D01*
X207138542Y-105972123D02*
X207043304Y-105972123D01*
X207043304Y-105972123D02*
X206948066Y-106019742D01*
X206948066Y-106019742D02*
X206900447Y-106067361D01*
X206900447Y-106067361D02*
X206852828Y-106162599D01*
X206852828Y-106162599D02*
X206805209Y-106353075D01*
X206805209Y-106353075D02*
X206757590Y-106448313D01*
X206757590Y-106448313D02*
X206709971Y-106495932D01*
X206709971Y-106495932D02*
X206614733Y-106543551D01*
X206614733Y-106543551D02*
X206519495Y-106543551D01*
X206519495Y-106543551D02*
X206424257Y-106495932D01*
X206424257Y-106495932D02*
X206376638Y-106448313D01*
X206376638Y-106448313D02*
X206329019Y-106353075D01*
X206329019Y-106353075D02*
X206329019Y-106114980D01*
X206329019Y-106114980D02*
X206376638Y-105972123D01*
X207329019Y-105019742D02*
X207329019Y-105591170D01*
X207329019Y-105305456D02*
X206329019Y-105305456D01*
X206329019Y-105305456D02*
X206471876Y-105400694D01*
X206471876Y-105400694D02*
X206567114Y-105495932D01*
X206567114Y-105495932D02*
X206614733Y-105591170D01*
X192027980Y-83565762D02*
X192075600Y-83613381D01*
X192075600Y-83613381D02*
X192123219Y-83756238D01*
X192123219Y-83756238D02*
X192123219Y-83851476D01*
X192123219Y-83851476D02*
X192075600Y-83994333D01*
X192075600Y-83994333D02*
X191980361Y-84089571D01*
X191980361Y-84089571D02*
X191885123Y-84137190D01*
X191885123Y-84137190D02*
X191694647Y-84184809D01*
X191694647Y-84184809D02*
X191551790Y-84184809D01*
X191551790Y-84184809D02*
X191361314Y-84137190D01*
X191361314Y-84137190D02*
X191266076Y-84089571D01*
X191266076Y-84089571D02*
X191170838Y-83994333D01*
X191170838Y-83994333D02*
X191123219Y-83851476D01*
X191123219Y-83851476D02*
X191123219Y-83756238D01*
X191123219Y-83756238D02*
X191170838Y-83613381D01*
X191170838Y-83613381D02*
X191218457Y-83565762D01*
X192218457Y-83375286D02*
X192218457Y-82613381D01*
X191599409Y-82041952D02*
X191647028Y-81899095D01*
X191647028Y-81899095D02*
X191694647Y-81851476D01*
X191694647Y-81851476D02*
X191789885Y-81803857D01*
X191789885Y-81803857D02*
X191932742Y-81803857D01*
X191932742Y-81803857D02*
X192027980Y-81851476D01*
X192027980Y-81851476D02*
X192075600Y-81899095D01*
X192075600Y-81899095D02*
X192123219Y-81994333D01*
X192123219Y-81994333D02*
X192123219Y-82375285D01*
X192123219Y-82375285D02*
X191123219Y-82375285D01*
X191123219Y-82375285D02*
X191123219Y-82041952D01*
X191123219Y-82041952D02*
X191170838Y-81946714D01*
X191170838Y-81946714D02*
X191218457Y-81899095D01*
X191218457Y-81899095D02*
X191313695Y-81851476D01*
X191313695Y-81851476D02*
X191408933Y-81851476D01*
X191408933Y-81851476D02*
X191504171Y-81899095D01*
X191504171Y-81899095D02*
X191551790Y-81946714D01*
X191551790Y-81946714D02*
X191599409Y-82041952D01*
X191599409Y-82041952D02*
X191599409Y-82375285D01*
X192075600Y-81422904D02*
X192123219Y-81280047D01*
X192123219Y-81280047D02*
X192123219Y-81041952D01*
X192123219Y-81041952D02*
X192075600Y-80946714D01*
X192075600Y-80946714D02*
X192027980Y-80899095D01*
X192027980Y-80899095D02*
X191932742Y-80851476D01*
X191932742Y-80851476D02*
X191837504Y-80851476D01*
X191837504Y-80851476D02*
X191742266Y-80899095D01*
X191742266Y-80899095D02*
X191694647Y-80946714D01*
X191694647Y-80946714D02*
X191647028Y-81041952D01*
X191647028Y-81041952D02*
X191599409Y-81232428D01*
X191599409Y-81232428D02*
X191551790Y-81327666D01*
X191551790Y-81327666D02*
X191504171Y-81375285D01*
X191504171Y-81375285D02*
X191408933Y-81422904D01*
X191408933Y-81422904D02*
X191313695Y-81422904D01*
X191313695Y-81422904D02*
X191218457Y-81375285D01*
X191218457Y-81375285D02*
X191170838Y-81327666D01*
X191170838Y-81327666D02*
X191123219Y-81232428D01*
X191123219Y-81232428D02*
X191123219Y-80994333D01*
X191123219Y-80994333D02*
X191170838Y-80851476D01*
X191123219Y-80565761D02*
X191123219Y-79994333D01*
X192123219Y-80280047D02*
X191123219Y-80280047D01*
X191218457Y-79708618D02*
X191170838Y-79660999D01*
X191170838Y-79660999D02*
X191123219Y-79565761D01*
X191123219Y-79565761D02*
X191123219Y-79327666D01*
X191123219Y-79327666D02*
X191170838Y-79232428D01*
X191170838Y-79232428D02*
X191218457Y-79184809D01*
X191218457Y-79184809D02*
X191313695Y-79137190D01*
X191313695Y-79137190D02*
X191408933Y-79137190D01*
X191408933Y-79137190D02*
X191551790Y-79184809D01*
X191551790Y-79184809D02*
X192123219Y-79756237D01*
X192123219Y-79756237D02*
X192123219Y-79137190D01*
X203257219Y-101225171D02*
X202781028Y-101558504D01*
X203257219Y-101796599D02*
X202257219Y-101796599D01*
X202257219Y-101796599D02*
X202257219Y-101415647D01*
X202257219Y-101415647D02*
X202304838Y-101320409D01*
X202304838Y-101320409D02*
X202352457Y-101272790D01*
X202352457Y-101272790D02*
X202447695Y-101225171D01*
X202447695Y-101225171D02*
X202590552Y-101225171D01*
X202590552Y-101225171D02*
X202685790Y-101272790D01*
X202685790Y-101272790D02*
X202733409Y-101320409D01*
X202733409Y-101320409D02*
X202781028Y-101415647D01*
X202781028Y-101415647D02*
X202781028Y-101796599D01*
X203352457Y-101034695D02*
X203352457Y-100272790D01*
X203257219Y-99463266D02*
X202781028Y-99796599D01*
X203257219Y-100034694D02*
X202257219Y-100034694D01*
X202257219Y-100034694D02*
X202257219Y-99653742D01*
X202257219Y-99653742D02*
X202304838Y-99558504D01*
X202304838Y-99558504D02*
X202352457Y-99510885D01*
X202352457Y-99510885D02*
X202447695Y-99463266D01*
X202447695Y-99463266D02*
X202590552Y-99463266D01*
X202590552Y-99463266D02*
X202685790Y-99510885D01*
X202685790Y-99510885D02*
X202733409Y-99558504D01*
X202733409Y-99558504D02*
X202781028Y-99653742D01*
X202781028Y-99653742D02*
X202781028Y-100034694D01*
X202257219Y-99177551D02*
X202257219Y-98606123D01*
X203257219Y-98891837D02*
X202257219Y-98891837D01*
X203257219Y-97748980D02*
X203257219Y-98320408D01*
X203257219Y-98034694D02*
X202257219Y-98034694D01*
X202257219Y-98034694D02*
X202400076Y-98129932D01*
X202400076Y-98129932D02*
X202495314Y-98225170D01*
X202495314Y-98225170D02*
X202542933Y-98320408D01*
D11*
X183089247Y-108137270D02*
X182968295Y-108076794D01*
X182968295Y-108076794D02*
X182847342Y-107955842D01*
X182847342Y-107955842D02*
X182665914Y-107774413D01*
X182665914Y-107774413D02*
X182544961Y-107713937D01*
X182544961Y-107713937D02*
X182424009Y-107713937D01*
X182484485Y-108016318D02*
X182363533Y-107955842D01*
X182363533Y-107955842D02*
X182242580Y-107834889D01*
X182242580Y-107834889D02*
X182182104Y-107592984D01*
X182182104Y-107592984D02*
X182182104Y-107169651D01*
X182182104Y-107169651D02*
X182242580Y-106927746D01*
X182242580Y-106927746D02*
X182363533Y-106806794D01*
X182363533Y-106806794D02*
X182484485Y-106746318D01*
X182484485Y-106746318D02*
X182726390Y-106746318D01*
X182726390Y-106746318D02*
X182847342Y-106806794D01*
X182847342Y-106806794D02*
X182968295Y-106927746D01*
X182968295Y-106927746D02*
X183028771Y-107169651D01*
X183028771Y-107169651D02*
X183028771Y-107592984D01*
X183028771Y-107592984D02*
X182968295Y-107834889D01*
X182968295Y-107834889D02*
X182847342Y-107955842D01*
X182847342Y-107955842D02*
X182726390Y-108016318D01*
X182726390Y-108016318D02*
X182484485Y-108016318D01*
X183512580Y-106867270D02*
X183573056Y-106806794D01*
X183573056Y-106806794D02*
X183694009Y-106746318D01*
X183694009Y-106746318D02*
X183996390Y-106746318D01*
X183996390Y-106746318D02*
X184117342Y-106806794D01*
X184117342Y-106806794D02*
X184177818Y-106867270D01*
X184177818Y-106867270D02*
X184238295Y-106988222D01*
X184238295Y-106988222D02*
X184238295Y-107109175D01*
X184238295Y-107109175D02*
X184177818Y-107290603D01*
X184177818Y-107290603D02*
X183452104Y-108016318D01*
X183452104Y-108016318D02*
X184238295Y-108016318D01*
D10*
X215389619Y-107027409D02*
X214913428Y-107360742D01*
X215389619Y-107598837D02*
X214389619Y-107598837D01*
X214389619Y-107598837D02*
X214389619Y-107217885D01*
X214389619Y-107217885D02*
X214437238Y-107122647D01*
X214437238Y-107122647D02*
X214484857Y-107075028D01*
X214484857Y-107075028D02*
X214580095Y-107027409D01*
X214580095Y-107027409D02*
X214722952Y-107027409D01*
X214722952Y-107027409D02*
X214818190Y-107075028D01*
X214818190Y-107075028D02*
X214865809Y-107122647D01*
X214865809Y-107122647D02*
X214913428Y-107217885D01*
X214913428Y-107217885D02*
X214913428Y-107598837D01*
X215484857Y-106836933D02*
X215484857Y-106075028D01*
X215294380Y-105265504D02*
X215342000Y-105313123D01*
X215342000Y-105313123D02*
X215389619Y-105455980D01*
X215389619Y-105455980D02*
X215389619Y-105551218D01*
X215389619Y-105551218D02*
X215342000Y-105694075D01*
X215342000Y-105694075D02*
X215246761Y-105789313D01*
X215246761Y-105789313D02*
X215151523Y-105836932D01*
X215151523Y-105836932D02*
X214961047Y-105884551D01*
X214961047Y-105884551D02*
X214818190Y-105884551D01*
X214818190Y-105884551D02*
X214627714Y-105836932D01*
X214627714Y-105836932D02*
X214532476Y-105789313D01*
X214532476Y-105789313D02*
X214437238Y-105694075D01*
X214437238Y-105694075D02*
X214389619Y-105551218D01*
X214389619Y-105551218D02*
X214389619Y-105455980D01*
X214389619Y-105455980D02*
X214437238Y-105313123D01*
X214437238Y-105313123D02*
X214484857Y-105265504D01*
X215342000Y-104884551D02*
X215389619Y-104741694D01*
X215389619Y-104741694D02*
X215389619Y-104503599D01*
X215389619Y-104503599D02*
X215342000Y-104408361D01*
X215342000Y-104408361D02*
X215294380Y-104360742D01*
X215294380Y-104360742D02*
X215199142Y-104313123D01*
X215199142Y-104313123D02*
X215103904Y-104313123D01*
X215103904Y-104313123D02*
X215008666Y-104360742D01*
X215008666Y-104360742D02*
X214961047Y-104408361D01*
X214961047Y-104408361D02*
X214913428Y-104503599D01*
X214913428Y-104503599D02*
X214865809Y-104694075D01*
X214865809Y-104694075D02*
X214818190Y-104789313D01*
X214818190Y-104789313D02*
X214770571Y-104836932D01*
X214770571Y-104836932D02*
X214675333Y-104884551D01*
X214675333Y-104884551D02*
X214580095Y-104884551D01*
X214580095Y-104884551D02*
X214484857Y-104836932D01*
X214484857Y-104836932D02*
X214437238Y-104789313D01*
X214437238Y-104789313D02*
X214389619Y-104694075D01*
X214389619Y-104694075D02*
X214389619Y-104455980D01*
X214389619Y-104455980D02*
X214437238Y-104313123D01*
X215389619Y-103884551D02*
X214389619Y-103884551D01*
X214389619Y-103884551D02*
X214389619Y-103503599D01*
X214389619Y-103503599D02*
X214437238Y-103408361D01*
X214437238Y-103408361D02*
X214484857Y-103360742D01*
X214484857Y-103360742D02*
X214580095Y-103313123D01*
X214580095Y-103313123D02*
X214722952Y-103313123D01*
X214722952Y-103313123D02*
X214818190Y-103360742D01*
X214818190Y-103360742D02*
X214865809Y-103408361D01*
X214865809Y-103408361D02*
X214913428Y-103503599D01*
X214913428Y-103503599D02*
X214913428Y-103884551D01*
X215389619Y-102360742D02*
X215389619Y-102932170D01*
X215389619Y-102646456D02*
X214389619Y-102646456D01*
X214389619Y-102646456D02*
X214532476Y-102741694D01*
X214532476Y-102741694D02*
X214627714Y-102836932D01*
X214627714Y-102836932D02*
X214675333Y-102932170D01*
D11*
X193789904Y-75885318D02*
X194636571Y-75885318D01*
X194636571Y-75885318D02*
X193789904Y-77155318D01*
X193789904Y-77155318D02*
X194636571Y-77155318D01*
X195785619Y-77155318D02*
X195059904Y-77155318D01*
X195422761Y-77155318D02*
X195422761Y-75885318D01*
X195422761Y-75885318D02*
X195301809Y-76066746D01*
X195301809Y-76066746D02*
X195180857Y-76187699D01*
X195180857Y-76187699D02*
X195059904Y-76248175D01*
X186921018Y-82286118D02*
X186921018Y-81016118D01*
X186921018Y-81016118D02*
X187223399Y-81016118D01*
X187223399Y-81016118D02*
X187404828Y-81076594D01*
X187404828Y-81076594D02*
X187525780Y-81197546D01*
X187525780Y-81197546D02*
X187586257Y-81318499D01*
X187586257Y-81318499D02*
X187646733Y-81560403D01*
X187646733Y-81560403D02*
X187646733Y-81741832D01*
X187646733Y-81741832D02*
X187586257Y-81983737D01*
X187586257Y-81983737D02*
X187525780Y-82104689D01*
X187525780Y-82104689D02*
X187404828Y-82225642D01*
X187404828Y-82225642D02*
X187223399Y-82286118D01*
X187223399Y-82286118D02*
X186921018Y-82286118D01*
X188856257Y-82286118D02*
X188130542Y-82286118D01*
X188493399Y-82286118D02*
X188493399Y-81016118D01*
X188493399Y-81016118D02*
X188372447Y-81197546D01*
X188372447Y-81197546D02*
X188251495Y-81318499D01*
X188251495Y-81318499D02*
X188130542Y-81378975D01*
D10*
X201929819Y-112800933D02*
X201453628Y-113134266D01*
X201929819Y-113372361D02*
X200929819Y-113372361D01*
X200929819Y-113372361D02*
X200929819Y-112991409D01*
X200929819Y-112991409D02*
X200977438Y-112896171D01*
X200977438Y-112896171D02*
X201025057Y-112848552D01*
X201025057Y-112848552D02*
X201120295Y-112800933D01*
X201120295Y-112800933D02*
X201263152Y-112800933D01*
X201263152Y-112800933D02*
X201358390Y-112848552D01*
X201358390Y-112848552D02*
X201406009Y-112896171D01*
X201406009Y-112896171D02*
X201453628Y-112991409D01*
X201453628Y-112991409D02*
X201453628Y-113372361D01*
X202025057Y-112610457D02*
X202025057Y-111848552D01*
X201406009Y-111277123D02*
X201406009Y-111610456D01*
X201929819Y-111610456D02*
X200929819Y-111610456D01*
X200929819Y-111610456D02*
X200929819Y-111134266D01*
X201406009Y-110419980D02*
X201453628Y-110277123D01*
X201453628Y-110277123D02*
X201501247Y-110229504D01*
X201501247Y-110229504D02*
X201596485Y-110181885D01*
X201596485Y-110181885D02*
X201739342Y-110181885D01*
X201739342Y-110181885D02*
X201834580Y-110229504D01*
X201834580Y-110229504D02*
X201882200Y-110277123D01*
X201882200Y-110277123D02*
X201929819Y-110372361D01*
X201929819Y-110372361D02*
X201929819Y-110753313D01*
X201929819Y-110753313D02*
X200929819Y-110753313D01*
X200929819Y-110753313D02*
X200929819Y-110419980D01*
X200929819Y-110419980D02*
X200977438Y-110324742D01*
X200977438Y-110324742D02*
X201025057Y-110277123D01*
X201025057Y-110277123D02*
X201120295Y-110229504D01*
X201120295Y-110229504D02*
X201215533Y-110229504D01*
X201215533Y-110229504D02*
X201310771Y-110277123D01*
X201310771Y-110277123D02*
X201358390Y-110324742D01*
X201358390Y-110324742D02*
X201406009Y-110419980D01*
X201406009Y-110419980D02*
X201406009Y-110753313D01*
X201929819Y-109753313D02*
X200929819Y-109753313D01*
X200929819Y-109753313D02*
X201644104Y-109419980D01*
X201644104Y-109419980D02*
X200929819Y-109086647D01*
X200929819Y-109086647D02*
X201929819Y-109086647D01*
X201644104Y-108658075D02*
X201644104Y-108181885D01*
X201929819Y-108753313D02*
X200929819Y-108419980D01*
X200929819Y-108419980D02*
X201929819Y-108086647D01*
X200929819Y-107848551D02*
X201929819Y-107181885D01*
X200929819Y-107181885D02*
X201929819Y-107848551D01*
X202025057Y-107039028D02*
X202025057Y-106277123D01*
X201025057Y-106086646D02*
X200977438Y-106039027D01*
X200977438Y-106039027D02*
X200929819Y-105943789D01*
X200929819Y-105943789D02*
X200929819Y-105705694D01*
X200929819Y-105705694D02*
X200977438Y-105610456D01*
X200977438Y-105610456D02*
X201025057Y-105562837D01*
X201025057Y-105562837D02*
X201120295Y-105515218D01*
X201120295Y-105515218D02*
X201215533Y-105515218D01*
X201215533Y-105515218D02*
X201358390Y-105562837D01*
X201358390Y-105562837D02*
X201929819Y-106134265D01*
X201929819Y-106134265D02*
X201929819Y-105515218D01*
D12*
X187561604Y-90735018D02*
X187599700Y-90773114D01*
X187599700Y-90773114D02*
X187637795Y-90887399D01*
X187637795Y-90887399D02*
X187637795Y-90963590D01*
X187637795Y-90963590D02*
X187599700Y-91077876D01*
X187599700Y-91077876D02*
X187523509Y-91154066D01*
X187523509Y-91154066D02*
X187447319Y-91192161D01*
X187447319Y-91192161D02*
X187294938Y-91230257D01*
X187294938Y-91230257D02*
X187180652Y-91230257D01*
X187180652Y-91230257D02*
X187028271Y-91192161D01*
X187028271Y-91192161D02*
X186952080Y-91154066D01*
X186952080Y-91154066D02*
X186875890Y-91077876D01*
X186875890Y-91077876D02*
X186837795Y-90963590D01*
X186837795Y-90963590D02*
X186837795Y-90887399D01*
X186837795Y-90887399D02*
X186875890Y-90773114D01*
X186875890Y-90773114D02*
X186913985Y-90735018D01*
X187713985Y-90582638D02*
X187713985Y-89973114D01*
X187637795Y-89782637D02*
X186837795Y-89782637D01*
X187637795Y-89401685D02*
X186837795Y-89401685D01*
X186837795Y-89401685D02*
X187637795Y-88944542D01*
X187637795Y-88944542D02*
X186837795Y-88944542D01*
X186913985Y-88601686D02*
X186875890Y-88563590D01*
X186875890Y-88563590D02*
X186837795Y-88487400D01*
X186837795Y-88487400D02*
X186837795Y-88296924D01*
X186837795Y-88296924D02*
X186875890Y-88220733D01*
X186875890Y-88220733D02*
X186913985Y-88182638D01*
X186913985Y-88182638D02*
X186990176Y-88144543D01*
X186990176Y-88144543D02*
X187066366Y-88144543D01*
X187066366Y-88144543D02*
X187180652Y-88182638D01*
X187180652Y-88182638D02*
X187637795Y-88639781D01*
X187637795Y-88639781D02*
X187637795Y-88144543D01*
D13*
%TO.C,R_SENSEB1*%
X191418800Y-103597064D02*
X191418800Y-102142936D01*
X193238800Y-103597064D02*
X193238800Y-102142936D01*
%TO.C,R_SENSEA1*%
X175239000Y-91252664D02*
X175239000Y-89798536D01*
X177059000Y-91252664D02*
X177059000Y-89798536D01*
D14*
%TO.C,Q3*%
X163402000Y-92811600D02*
X163402000Y-92811600D01*
X163502000Y-92811600D02*
X163502000Y-92811600D01*
X164302000Y-92266600D02*
X170212000Y-92266600D01*
X164302000Y-97166600D02*
X170202000Y-97166600D01*
X163502000Y-92811600D02*
G75*
G03*
X163402000Y-92811600I-50000J0D01*
G01*
X163402000Y-92811600D02*
G75*
G03*
X163502000Y-92811600I50000J0D01*
G01*
D15*
%TO.C,FL1*%
X170005400Y-101271400D02*
X170005400Y-101271400D01*
X170005400Y-101471400D02*
X170005400Y-101471400D01*
D14*
X170705400Y-99871400D02*
X177705400Y-99871400D01*
X170705400Y-102471400D02*
X170705400Y-103271400D01*
X170705400Y-105871400D02*
X177705400Y-105871400D01*
X177705400Y-102471400D02*
X177705400Y-103271400D01*
D15*
X170005400Y-101471400D02*
G75*
G03*
X170005400Y-101271400I0J100000D01*
G01*
X170005400Y-101271400D02*
G75*
G03*
X170005400Y-101471400I0J-100000D01*
G01*
%TO.C,D3*%
X171106800Y-111824800D02*
X171106800Y-108174800D01*
X172656800Y-110874800D02*
X172656800Y-108174800D01*
D13*
%TO.C,C_senseB1*%
X197611948Y-100080400D02*
X199034452Y-100080400D01*
X197611948Y-101900400D02*
X199034452Y-101900400D01*
%TO.C,R_FBMAX_1*%
X208605800Y-91271736D02*
X208605800Y-92725864D01*
X206785800Y-91271736D02*
X206785800Y-92725864D01*
%TO.C,R_FB2*%
X211053000Y-90465264D02*
X211053000Y-89011136D01*
X212873000Y-90465264D02*
X212873000Y-89011136D01*
%TO.C,C_CSN1*%
X219090000Y-83845452D02*
X219090000Y-82422948D01*
X220910000Y-83845452D02*
X220910000Y-82422948D01*
%TO.C,C_OUT2*%
X184429452Y-68321600D02*
X183006948Y-68321600D01*
X184429452Y-66501600D02*
X183006948Y-66501600D01*
%TO.C,R_CSN1*%
X220910000Y-88198336D02*
X220910000Y-89652464D01*
X219090000Y-88198336D02*
X219090000Y-89652464D01*
%TO.C,C_IN3*%
X198805852Y-99258800D02*
X197383348Y-99258800D01*
X198805852Y-97438800D02*
X197383348Y-97438800D01*
D15*
%TO.C,C_pvin1*%
X186741200Y-91592400D02*
G75*
G03*
X186741200Y-91592400I-3150000J0D01*
G01*
D14*
%TO.C,Q1*%
X213993800Y-80025400D02*
X213993800Y-73925400D01*
X207493800Y-73925400D02*
X207493800Y-80025400D01*
X213993800Y-73925400D02*
X207493800Y-73925400D01*
D16*
X213051800Y-68877400D02*
X213051800Y-68877400D01*
X213051800Y-68809400D02*
X213051800Y-68809400D01*
X213051800Y-68809400D02*
G75*
G03*
X213051800Y-68877400I0J-34000D01*
G01*
X213051800Y-68877400D02*
G75*
G03*
X213051800Y-68809400I0J34000D01*
G01*
D17*
%TO.C,IC1*%
X196269000Y-95331000D02*
G75*
G03*
X196269000Y-95331000I-125000J0D01*
G01*
D13*
%TO.C,C_VC1*%
X193645200Y-71373948D02*
X193645200Y-72796452D01*
X191825200Y-71373948D02*
X191825200Y-72796452D01*
%TO.C,C_IN1*%
X191368000Y-91998852D02*
X191368000Y-90576348D01*
X193188000Y-91998852D02*
X193188000Y-90576348D01*
%TO.C,C_OUT1*%
X181533748Y-69117800D02*
X182956252Y-69117800D01*
X181533748Y-70937800D02*
X182956252Y-70937800D01*
%TO.C,C_CSOUT1*%
X199521400Y-85445652D02*
X199521400Y-84023148D01*
X201341400Y-85445652D02*
X201341400Y-84023148D01*
%TO.C,R_FB1*%
X203555600Y-74638800D02*
X203555600Y-72378800D01*
X205275600Y-76358800D02*
G75*
G03*
X205275600Y-76358800I-1720000J0D01*
G01*
D15*
%TO.C,D2*%
X187593000Y-97701400D02*
X183943000Y-97701400D01*
X186643000Y-96151400D02*
X183943000Y-96151400D01*
D13*
%TO.C,C_intvcc1*%
X195097452Y-88362200D02*
X193674948Y-88362200D01*
X195097452Y-86542200D02*
X193674948Y-86542200D01*
%TO.C,R_VC1*%
X199491600Y-74588000D02*
X199491600Y-72328000D01*
X201211600Y-76308000D02*
G75*
G03*
X201211600Y-76308000I-1720000J0D01*
G01*
%TO.C,C_BST1*%
X193848400Y-95999648D02*
X193848400Y-97422152D01*
X192028400Y-95999648D02*
X192028400Y-97422152D01*
%TO.C,R_CS1*%
X205964200Y-106435536D02*
X205964200Y-107889664D01*
X204144200Y-106435536D02*
X204144200Y-107889664D01*
%TO.C,C_BST2*%
X195694752Y-83536200D02*
X194272248Y-83536200D01*
X195694752Y-81716200D02*
X194272248Y-81716200D01*
%TO.C,R_RT1*%
X203712400Y-100523664D02*
X203712400Y-99069536D01*
X205532400Y-100523664D02*
X205532400Y-99069536D01*
D14*
%TO.C,Q2*%
X187473600Y-104800400D02*
X187473600Y-104800400D01*
X187373600Y-104800400D02*
X187373600Y-104800400D01*
X186573600Y-105345400D02*
X180663600Y-105345400D01*
X186573600Y-100445400D02*
X180673600Y-100445400D01*
X187373600Y-104800400D02*
G75*
G03*
X187473600Y-104800400I50000J0D01*
G01*
X187473600Y-104800400D02*
G75*
G03*
X187373600Y-104800400I-50000J0D01*
G01*
D13*
%TO.C,R_CSP1*%
X211891200Y-105832264D02*
X211891200Y-104378136D01*
X213711200Y-105832264D02*
X213711200Y-104378136D01*
D15*
%TO.C,Z1*%
X196518800Y-80697200D02*
X195618800Y-80697200D01*
X195268800Y-80647200D02*
X194468800Y-80647200D01*
X195268800Y-77747200D02*
X195268800Y-80647200D01*
X194468800Y-80647200D02*
X194468800Y-77747200D01*
X194468800Y-77747200D02*
X195268800Y-77747200D01*
%TO.C,D1*%
X188658800Y-82993200D02*
X188658800Y-86643200D01*
X187108800Y-83943200D02*
X187108800Y-86643200D01*
D13*
%TO.C,R_FBMAX_2*%
X198755000Y-108647600D02*
X198755000Y-110907600D01*
X200475000Y-106927600D02*
G75*
G03*
X200475000Y-106927600I-1720000J0D01*
G01*
%TO.C,C_IN2*%
X187989800Y-92049652D02*
X187989800Y-90627148D01*
X189809800Y-92049652D02*
X189809800Y-90627148D01*
%TD*%
M02*
