%TF.GenerationSoftware,KiCad,Pcbnew,7.0.8*%
%TF.CreationDate,2024-02-23T11:16:18-06:00*%
%TF.ProjectId,LT4020_12_BatCharger,4c543430-3230-45f3-9132-5f4261744368,rev?*%
%TF.SameCoordinates,Original*%
%TF.FileFunction,Soldermask,Top*%
%TF.FilePolarity,Negative*%
%FSLAX46Y46*%
G04 Gerber Fmt 4.6, Leading zero omitted, Abs format (unit mm)*
G04 Created by KiCad (PCBNEW 7.0.8) date 2024-02-23 11:16:18*
%MOMM*%
%LPD*%
G01*
G04 APERTURE LIST*
G04 Aperture macros list*
%AMRoundRect*
0 Rectangle with rounded corners*
0 $1 Rounding radius*
0 $2 $3 $4 $5 $6 $7 $8 $9 X,Y pos of 4 corners*
0 Add a 4 corners polygon primitive as box body*
4,1,4,$2,$3,$4,$5,$6,$7,$8,$9,$2,$3,0*
0 Add four circle primitives for the rounded corners*
1,1,$1+$1,$2,$3*
1,1,$1+$1,$4,$5*
1,1,$1+$1,$6,$7*
1,1,$1+$1,$8,$9*
0 Add four rect primitives between the rounded corners*
20,1,$1+$1,$2,$3,$4,$5,0*
20,1,$1+$1,$4,$5,$6,$7,0*
20,1,$1+$1,$6,$7,$8,$9,0*
20,1,$1+$1,$8,$9,$2,$3,0*%
G04 Aperture macros list end*
%ADD10RoundRect,0.250000X0.625000X-0.400000X0.625000X0.400000X-0.625000X0.400000X-0.625000X-0.400000X0*%
%ADD11C,2.200000*%
%ADD12R,3.810000X1.650000*%
%ADD13R,1.270000X0.610000*%
%ADD14R,0.710000X0.610000*%
%ADD15R,0.310000X0.230000*%
%ADD16RoundRect,0.250002X-1.699998X-1.699998X1.699998X-1.699998X1.699998X1.699998X-1.699998X1.699998X0*%
%ADD17C,3.900000*%
%ADD18R,2.200000X1.500000*%
%ADD19R,0.750000X1.200000*%
%ADD20RoundRect,0.250000X-0.412500X-0.650000X0.412500X-0.650000X0.412500X0.650000X-0.412500X0.650000X0*%
%ADD21RoundRect,0.250000X-0.625000X0.400000X-0.625000X-0.400000X0.625000X-0.400000X0.625000X0.400000X0*%
%ADD22RoundRect,0.250000X0.650000X-0.412500X0.650000X0.412500X-0.650000X0.412500X-0.650000X-0.412500X0*%
%ADD23RoundRect,0.250000X0.412500X0.650000X-0.412500X0.650000X-0.412500X-0.650000X0.412500X-0.650000X0*%
%ADD24R,1.275000X1.275000*%
%ADD25C,1.275000*%
%ADD26R,1.600000X3.000000*%
%ADD27R,5.800000X6.200000*%
%ADD28R,0.300000X0.850000*%
%ADD29R,0.850000X0.300000*%
%ADD30R,5.250000X3.250000*%
%ADD31RoundRect,0.250000X-0.650000X0.412500X-0.650000X-0.412500X0.650000X-0.412500X0.650000X0.412500X0*%
%ADD32C,1.600000*%
%ADD33O,1.600000X1.600000*%
%ADD34R,1.200000X0.750000*%
%ADD35R,0.900000X0.600000*%
G04 APERTURE END LIST*
D10*
%TO.C,R_SENSEB1*%
X192328800Y-104420000D03*
X192328800Y-101320000D03*
%TD*%
D11*
%TO.C,H1*%
X155000000Y-60000000D03*
%TD*%
D10*
%TO.C,R_SENSEA1*%
X176149000Y-92075600D03*
X176149000Y-88975600D03*
%TD*%
D12*
%TO.C,Q3*%
X167952000Y-95871600D03*
D13*
X164592000Y-92811600D03*
X164592000Y-94081600D03*
X164592000Y-95351600D03*
X164592000Y-96621600D03*
D14*
X170212000Y-96621600D03*
X170212000Y-95351600D03*
X170212000Y-94081600D03*
X170212000Y-92811600D03*
D12*
X167952000Y-93561600D03*
D15*
X169702000Y-92621600D03*
X169702000Y-96811600D03*
%TD*%
D16*
%TO.C,J1*%
X168217600Y-63195200D03*
D17*
X176017600Y-63195200D03*
X183817600Y-63195200D03*
X191617600Y-63195200D03*
X199417600Y-63195200D03*
X207217600Y-63195200D03*
%TD*%
D18*
%TO.C,FL1*%
X171855400Y-101371400D03*
X171855400Y-104371400D03*
X176555400Y-104371400D03*
X176555400Y-101371400D03*
%TD*%
D19*
%TO.C,D3*%
X171881800Y-111224800D03*
X171881800Y-107824800D03*
%TD*%
D20*
%TO.C,C_senseB1*%
X196760700Y-100990400D03*
X199885700Y-100990400D03*
%TD*%
D21*
%TO.C,R_FBMAX_1*%
X207695800Y-90448800D03*
X207695800Y-93548800D03*
%TD*%
D10*
%TO.C,R_FB2*%
X211963000Y-91288200D03*
X211963000Y-88188200D03*
%TD*%
D22*
%TO.C,C_CSN1*%
X220000000Y-84696700D03*
X220000000Y-81571700D03*
%TD*%
D23*
%TO.C,C_OUT2*%
X185280700Y-67411600D03*
X182155700Y-67411600D03*
%TD*%
D21*
%TO.C,R_CSN1*%
X220000000Y-87375400D03*
X220000000Y-90475400D03*
%TD*%
D11*
%TO.C,H2*%
X225000000Y-60000000D03*
%TD*%
D23*
%TO.C,C_IN3*%
X199657100Y-98348800D03*
X196532100Y-98348800D03*
%TD*%
D24*
%TO.C,C_pvin1*%
X183591200Y-92842400D03*
D25*
X183591200Y-90342400D03*
%TD*%
D26*
%TO.C,Q1*%
X213028800Y-71075400D03*
D27*
X210743800Y-78255400D03*
D26*
X208458800Y-71075400D03*
%TD*%
D11*
%TO.C,H3*%
X155000000Y-115000000D03*
%TD*%
D28*
%TO.C,IC1*%
X196894000Y-94906000D03*
X197394000Y-94906000D03*
X197894000Y-94906000D03*
X198394000Y-94906000D03*
X198894000Y-94906000D03*
X199394000Y-94906000D03*
X199894000Y-94906000D03*
X200394000Y-94906000D03*
X200894000Y-94906000D03*
X201394000Y-94906000D03*
X201894000Y-94906000D03*
X202394000Y-94906000D03*
D29*
X203094000Y-93956000D03*
X203094000Y-93456000D03*
X203094000Y-92956000D03*
X203094000Y-92456000D03*
X203094000Y-91956000D03*
X203094000Y-91456000D03*
X203094000Y-90956000D03*
D28*
X202394000Y-90006000D03*
X201894000Y-90006000D03*
X201394000Y-90006000D03*
X200894000Y-90006000D03*
X200394000Y-90006000D03*
X199894000Y-90006000D03*
X199394000Y-90006000D03*
X198894000Y-90006000D03*
X198394000Y-90006000D03*
X197894000Y-90006000D03*
X197394000Y-90006000D03*
X196894000Y-90006000D03*
D29*
X196194000Y-90956000D03*
X196194000Y-91456000D03*
X196194000Y-91956000D03*
X196194000Y-92456000D03*
X196194000Y-92956000D03*
X196194000Y-93456000D03*
X196194000Y-93956000D03*
D30*
X199644000Y-92456000D03*
%TD*%
D31*
%TO.C,C_VC1*%
X192735200Y-70522700D03*
X192735200Y-73647700D03*
%TD*%
D22*
%TO.C,C_IN1*%
X192278000Y-92850100D03*
X192278000Y-89725100D03*
%TD*%
D20*
%TO.C,C_OUT1*%
X180682500Y-70027800D03*
X183807500Y-70027800D03*
%TD*%
D22*
%TO.C,C_CSOUT1*%
X200431400Y-86296900D03*
X200431400Y-83171900D03*
%TD*%
D32*
%TO.C,R_FB1*%
X203555600Y-76358800D03*
D33*
X203555600Y-71278800D03*
%TD*%
D34*
%TO.C,D2*%
X186993000Y-96926400D03*
X183593000Y-96926400D03*
%TD*%
D23*
%TO.C,C_intvcc1*%
X195948700Y-87452200D03*
X192823700Y-87452200D03*
%TD*%
D32*
%TO.C,R_VC1*%
X199491600Y-76308000D03*
D33*
X199491600Y-71228000D03*
%TD*%
D31*
%TO.C,C_BST1*%
X192938400Y-95148400D03*
X192938400Y-98273400D03*
%TD*%
D21*
%TO.C,R_CS1*%
X205054200Y-105612600D03*
X205054200Y-108712600D03*
%TD*%
D23*
%TO.C,C_BST2*%
X196546000Y-82626200D03*
X193421000Y-82626200D03*
%TD*%
D10*
%TO.C,R_RT1*%
X204622400Y-101346600D03*
X204622400Y-98246600D03*
%TD*%
D13*
%TO.C,Q2*%
X186283600Y-104800400D03*
X186283600Y-103530400D03*
X186283600Y-102260400D03*
X186283600Y-100990400D03*
D14*
X180663600Y-100990400D03*
X180663600Y-102260400D03*
X180663600Y-103530400D03*
X180663600Y-104800400D03*
D12*
X182923600Y-104050400D03*
X182923600Y-101740400D03*
D15*
X181173600Y-104990400D03*
X181173600Y-100800400D03*
%TD*%
D10*
%TO.C,R_CSP1*%
X212801200Y-106655200D03*
X212801200Y-103555200D03*
%TD*%
D35*
%TO.C,Z1*%
X196068800Y-80147200D03*
X196068800Y-78247200D03*
X193668800Y-79197200D03*
%TD*%
D19*
%TO.C,D1*%
X187883800Y-83593200D03*
X187883800Y-86993200D03*
%TD*%
D32*
%TO.C,R_FBMAX_2*%
X198755000Y-106927600D03*
D33*
X198755000Y-112007600D03*
%TD*%
D22*
%TO.C,C_IN2*%
X188899800Y-92900900D03*
X188899800Y-89775900D03*
%TD*%
D11*
%TO.C,H4*%
X225000000Y-115000000D03*
%TD*%
M02*
