M48
; DRILL file {KiCad 7.0.8} date Fri Feb 23 11:16:14 2024
; FORMAT={-:-/ absolute / inch / decimal}
; #@! TF.CreationDate,2024-02-23T11:16:14-06:00
; #@! TF.GenerationSoftware,Kicad,Pcbnew,7.0.8
; #@! TF.FileFunction,MixedPlating,1,2
FMAT,2
INCH
; #@! TA.AperFunction,Plated,PTH,ViaDrill
T1C0.0118
; #@! TA.AperFunction,Plated,PTH,ViaDrill
T2C0.0157
; #@! TA.AperFunction,Plated,PTH,ViaDrill
T3C0.0236
; #@! TA.AperFunction,Plated,PTH,ComponentDrill
T4C0.0315
; #@! TA.AperFunction,Plated,PTH,ComponentDrill
T5C0.0335
; #@! TA.AperFunction,Plated,PTH,ComponentDrill
T6C0.0689
; #@! TA.AperFunction,NonPlated,NPTH,ComponentDrill
T7C0.0866
%
G90
G05
T1
X6.647Y-3.8335
X6.701Y-3.8885
X6.896Y-3.912
X6.899Y-3.8335
X6.928Y-3.571
X7.087Y-3.528
X7.313Y-3.3974
X7.313Y-3.75
X7.358Y-3.551
X7.414Y-3.759
X7.419Y-3.825
X7.508Y-3.909
X7.611Y-3.333
X7.65Y-3.546
X7.659Y-3.5841
X7.668Y-3.848
X7.692Y-3.334
X7.713Y-3.386
X7.923Y-3.885
X7.966Y-3.815
X8.0679Y-3.7733
X8.068Y-3.726
X8.09Y-3.801
X8.143Y-3.343
X8.1465Y-3.801
X8.1494Y-3.7657
X8.253Y-3.802
X8.255Y-3.642
X8.413Y-3.356
X8.415Y-3.4525
X8.6165Y-3.6676
X8.618Y-3.703
X8.751Y-3.661
X8.759Y-3.702
T2
X6.489Y-2.489
X6.621Y-2.363
X6.625Y-2.61
X6.753Y-2.487
X6.774Y-3.755
X6.774Y-3.805
X6.848Y-3.913
X6.849Y-3.8315
X7.155Y-3.586
X7.157Y-3.753
X7.307Y-2.774
X7.357Y-2.653
X7.366Y-3.7185
X7.421Y-4.109
X7.4215Y-3.9695
X7.44Y-3.486
X7.451Y-3.9965
X7.451Y-4.0555
X7.467Y-3.731
X7.535Y-3.487
X7.635Y-4.109
X7.648Y-2.899
X7.6561Y-3.6971
X7.721Y-3.7975
X7.7945Y-3.472
X7.893Y-3.224
X7.926Y-3.975
X7.958Y-3.453
X7.967Y-3.388
X7.973Y-3.34
X7.974Y-3.49
X8.038Y-3.682
X8.047Y-3.445
X8.05Y-3.489
X8.058Y-3.34
X8.058Y-3.386
X8.098Y-3.4545
X8.1Y-3.264
X8.155Y-3.457
X8.493Y-3.341
X8.515Y-3.458
T3
X6.819Y-2.737
X7.048Y-2.74
T4
X7.825Y-4.2097
X7.825Y-4.4097
X7.854Y-2.8043
X7.854Y-3.0043
X8.014Y-2.8063
X8.014Y-3.0063
T5
X7.228Y-3.5568
X7.228Y-3.6552
T6
X6.6227Y-2.488
X6.9298Y-2.488
X7.2369Y-2.488
X7.544Y-2.488
X7.8511Y-2.488
X8.1582Y-2.488
T7
X6.1024Y-2.3622
X6.1024Y-4.5276
X8.8583Y-2.3622
X8.8583Y-4.5276
T0
M30
