%TF.GenerationSoftware,KiCad,Pcbnew,7.0.8*%
%TF.CreationDate,2024-02-23T11:13:45-06:00*%
%TF.ProjectId,ChargeController_Main,43686172-6765-4436-9f6e-74726f6c6c65,rev?*%
%TF.SameCoordinates,Original*%
%TF.FileFunction,Legend,Top*%
%TF.FilePolarity,Positive*%
%FSLAX46Y46*%
G04 Gerber Fmt 4.6, Leading zero omitted, Abs format (unit mm)*
G04 Created by KiCad (PCBNEW 7.0.8) date 2024-02-23 11:13:45*
%MOMM*%
%LPD*%
G01*
G04 APERTURE LIST*
%ADD10C,0.150000*%
%ADD11C,0.254000*%
%ADD12C,0.120000*%
%ADD13C,0.250000*%
%ADD14C,0.200000*%
%ADD15C,0.100000*%
G04 APERTURE END LIST*
D10*
X60512512Y-49612609D02*
X60655369Y-49660228D01*
X60655369Y-49660228D02*
X60702988Y-49707847D01*
X60702988Y-49707847D02*
X60750607Y-49803085D01*
X60750607Y-49803085D02*
X60750607Y-49945942D01*
X60750607Y-49945942D02*
X60702988Y-50041180D01*
X60702988Y-50041180D02*
X60655369Y-50088800D01*
X60655369Y-50088800D02*
X60560131Y-50136419D01*
X60560131Y-50136419D02*
X60179179Y-50136419D01*
X60179179Y-50136419D02*
X60179179Y-49136419D01*
X60179179Y-49136419D02*
X60512512Y-49136419D01*
X60512512Y-49136419D02*
X60607750Y-49184038D01*
X60607750Y-49184038D02*
X60655369Y-49231657D01*
X60655369Y-49231657D02*
X60702988Y-49326895D01*
X60702988Y-49326895D02*
X60702988Y-49422133D01*
X60702988Y-49422133D02*
X60655369Y-49517371D01*
X60655369Y-49517371D02*
X60607750Y-49564990D01*
X60607750Y-49564990D02*
X60512512Y-49612609D01*
X60512512Y-49612609D02*
X60179179Y-49612609D01*
X61607750Y-50136419D02*
X61607750Y-49612609D01*
X61607750Y-49612609D02*
X61560131Y-49517371D01*
X61560131Y-49517371D02*
X61464893Y-49469752D01*
X61464893Y-49469752D02*
X61274417Y-49469752D01*
X61274417Y-49469752D02*
X61179179Y-49517371D01*
X61607750Y-50088800D02*
X61512512Y-50136419D01*
X61512512Y-50136419D02*
X61274417Y-50136419D01*
X61274417Y-50136419D02*
X61179179Y-50088800D01*
X61179179Y-50088800D02*
X61131560Y-49993561D01*
X61131560Y-49993561D02*
X61131560Y-49898323D01*
X61131560Y-49898323D02*
X61179179Y-49803085D01*
X61179179Y-49803085D02*
X61274417Y-49755466D01*
X61274417Y-49755466D02*
X61512512Y-49755466D01*
X61512512Y-49755466D02*
X61607750Y-49707847D01*
X61941084Y-49469752D02*
X62322036Y-49469752D01*
X62083941Y-49136419D02*
X62083941Y-49993561D01*
X62083941Y-49993561D02*
X62131560Y-50088800D01*
X62131560Y-50088800D02*
X62226798Y-50136419D01*
X62226798Y-50136419D02*
X62322036Y-50136419D01*
X63417275Y-50136419D02*
X63417275Y-49136419D01*
X63417275Y-49136419D02*
X63655370Y-49136419D01*
X63655370Y-49136419D02*
X63798227Y-49184038D01*
X63798227Y-49184038D02*
X63893465Y-49279276D01*
X63893465Y-49279276D02*
X63941084Y-49374514D01*
X63941084Y-49374514D02*
X63988703Y-49564990D01*
X63988703Y-49564990D02*
X63988703Y-49707847D01*
X63988703Y-49707847D02*
X63941084Y-49898323D01*
X63941084Y-49898323D02*
X63893465Y-49993561D01*
X63893465Y-49993561D02*
X63798227Y-50088800D01*
X63798227Y-50088800D02*
X63655370Y-50136419D01*
X63655370Y-50136419D02*
X63417275Y-50136419D01*
X64417275Y-50136419D02*
X64417275Y-49469752D01*
X64417275Y-49136419D02*
X64369656Y-49184038D01*
X64369656Y-49184038D02*
X64417275Y-49231657D01*
X64417275Y-49231657D02*
X64464894Y-49184038D01*
X64464894Y-49184038D02*
X64417275Y-49136419D01*
X64417275Y-49136419D02*
X64417275Y-49231657D01*
X64845846Y-50088800D02*
X64941084Y-50136419D01*
X64941084Y-50136419D02*
X65131560Y-50136419D01*
X65131560Y-50136419D02*
X65226798Y-50088800D01*
X65226798Y-50088800D02*
X65274417Y-49993561D01*
X65274417Y-49993561D02*
X65274417Y-49945942D01*
X65274417Y-49945942D02*
X65226798Y-49850704D01*
X65226798Y-49850704D02*
X65131560Y-49803085D01*
X65131560Y-49803085D02*
X64988703Y-49803085D01*
X64988703Y-49803085D02*
X64893465Y-49755466D01*
X64893465Y-49755466D02*
X64845846Y-49660228D01*
X64845846Y-49660228D02*
X64845846Y-49612609D01*
X64845846Y-49612609D02*
X64893465Y-49517371D01*
X64893465Y-49517371D02*
X64988703Y-49469752D01*
X64988703Y-49469752D02*
X65131560Y-49469752D01*
X65131560Y-49469752D02*
X65226798Y-49517371D01*
X66131560Y-50088800D02*
X66036322Y-50136419D01*
X66036322Y-50136419D02*
X65845846Y-50136419D01*
X65845846Y-50136419D02*
X65750608Y-50088800D01*
X65750608Y-50088800D02*
X65702989Y-50041180D01*
X65702989Y-50041180D02*
X65655370Y-49945942D01*
X65655370Y-49945942D02*
X65655370Y-49660228D01*
X65655370Y-49660228D02*
X65702989Y-49564990D01*
X65702989Y-49564990D02*
X65750608Y-49517371D01*
X65750608Y-49517371D02*
X65845846Y-49469752D01*
X65845846Y-49469752D02*
X66036322Y-49469752D01*
X66036322Y-49469752D02*
X66131560Y-49517371D01*
X66560132Y-50136419D02*
X66560132Y-49136419D01*
X66988703Y-50136419D02*
X66988703Y-49612609D01*
X66988703Y-49612609D02*
X66941084Y-49517371D01*
X66941084Y-49517371D02*
X66845846Y-49469752D01*
X66845846Y-49469752D02*
X66702989Y-49469752D01*
X66702989Y-49469752D02*
X66607751Y-49517371D01*
X66607751Y-49517371D02*
X66560132Y-49564990D01*
X67893465Y-50136419D02*
X67893465Y-49612609D01*
X67893465Y-49612609D02*
X67845846Y-49517371D01*
X67845846Y-49517371D02*
X67750608Y-49469752D01*
X67750608Y-49469752D02*
X67560132Y-49469752D01*
X67560132Y-49469752D02*
X67464894Y-49517371D01*
X67893465Y-50088800D02*
X67798227Y-50136419D01*
X67798227Y-50136419D02*
X67560132Y-50136419D01*
X67560132Y-50136419D02*
X67464894Y-50088800D01*
X67464894Y-50088800D02*
X67417275Y-49993561D01*
X67417275Y-49993561D02*
X67417275Y-49898323D01*
X67417275Y-49898323D02*
X67464894Y-49803085D01*
X67464894Y-49803085D02*
X67560132Y-49755466D01*
X67560132Y-49755466D02*
X67798227Y-49755466D01*
X67798227Y-49755466D02*
X67893465Y-49707847D01*
X68369656Y-50136419D02*
X68369656Y-49469752D01*
X68369656Y-49660228D02*
X68417275Y-49564990D01*
X68417275Y-49564990D02*
X68464894Y-49517371D01*
X68464894Y-49517371D02*
X68560132Y-49469752D01*
X68560132Y-49469752D02*
X68655370Y-49469752D01*
X69417275Y-49469752D02*
X69417275Y-50279276D01*
X69417275Y-50279276D02*
X69369656Y-50374514D01*
X69369656Y-50374514D02*
X69322037Y-50422133D01*
X69322037Y-50422133D02*
X69226799Y-50469752D01*
X69226799Y-50469752D02*
X69083942Y-50469752D01*
X69083942Y-50469752D02*
X68988704Y-50422133D01*
X69417275Y-50088800D02*
X69322037Y-50136419D01*
X69322037Y-50136419D02*
X69131561Y-50136419D01*
X69131561Y-50136419D02*
X69036323Y-50088800D01*
X69036323Y-50088800D02*
X68988704Y-50041180D01*
X68988704Y-50041180D02*
X68941085Y-49945942D01*
X68941085Y-49945942D02*
X68941085Y-49660228D01*
X68941085Y-49660228D02*
X68988704Y-49564990D01*
X68988704Y-49564990D02*
X69036323Y-49517371D01*
X69036323Y-49517371D02*
X69131561Y-49469752D01*
X69131561Y-49469752D02*
X69322037Y-49469752D01*
X69322037Y-49469752D02*
X69417275Y-49517371D01*
X70274418Y-50088800D02*
X70179180Y-50136419D01*
X70179180Y-50136419D02*
X69988704Y-50136419D01*
X69988704Y-50136419D02*
X69893466Y-50088800D01*
X69893466Y-50088800D02*
X69845847Y-49993561D01*
X69845847Y-49993561D02*
X69845847Y-49612609D01*
X69845847Y-49612609D02*
X69893466Y-49517371D01*
X69893466Y-49517371D02*
X69988704Y-49469752D01*
X69988704Y-49469752D02*
X70179180Y-49469752D01*
X70179180Y-49469752D02*
X70274418Y-49517371D01*
X70274418Y-49517371D02*
X70322037Y-49612609D01*
X70322037Y-49612609D02*
X70322037Y-49707847D01*
X70322037Y-49707847D02*
X69845847Y-49803085D01*
X39379712Y-60128209D02*
X39522569Y-60175828D01*
X39522569Y-60175828D02*
X39570188Y-60223447D01*
X39570188Y-60223447D02*
X39617807Y-60318685D01*
X39617807Y-60318685D02*
X39617807Y-60461542D01*
X39617807Y-60461542D02*
X39570188Y-60556780D01*
X39570188Y-60556780D02*
X39522569Y-60604400D01*
X39522569Y-60604400D02*
X39427331Y-60652019D01*
X39427331Y-60652019D02*
X39046379Y-60652019D01*
X39046379Y-60652019D02*
X39046379Y-59652019D01*
X39046379Y-59652019D02*
X39379712Y-59652019D01*
X39379712Y-59652019D02*
X39474950Y-59699638D01*
X39474950Y-59699638D02*
X39522569Y-59747257D01*
X39522569Y-59747257D02*
X39570188Y-59842495D01*
X39570188Y-59842495D02*
X39570188Y-59937733D01*
X39570188Y-59937733D02*
X39522569Y-60032971D01*
X39522569Y-60032971D02*
X39474950Y-60080590D01*
X39474950Y-60080590D02*
X39379712Y-60128209D01*
X39379712Y-60128209D02*
X39046379Y-60128209D01*
X39998760Y-60366304D02*
X40474950Y-60366304D01*
X39903522Y-60652019D02*
X40236855Y-59652019D01*
X40236855Y-59652019D02*
X40570188Y-60652019D01*
X40760665Y-59652019D02*
X41332093Y-59652019D01*
X41046379Y-60652019D02*
X41046379Y-59652019D01*
X41617808Y-59747257D02*
X41665427Y-59699638D01*
X41665427Y-59699638D02*
X41760665Y-59652019D01*
X41760665Y-59652019D02*
X41998760Y-59652019D01*
X41998760Y-59652019D02*
X42093998Y-59699638D01*
X42093998Y-59699638D02*
X42141617Y-59747257D01*
X42141617Y-59747257D02*
X42189236Y-59842495D01*
X42189236Y-59842495D02*
X42189236Y-59937733D01*
X42189236Y-59937733D02*
X42141617Y-60080590D01*
X42141617Y-60080590D02*
X41570189Y-60652019D01*
X41570189Y-60652019D02*
X42189236Y-60652019D01*
X59039312Y-56343609D02*
X59182169Y-56391228D01*
X59182169Y-56391228D02*
X59229788Y-56438847D01*
X59229788Y-56438847D02*
X59277407Y-56534085D01*
X59277407Y-56534085D02*
X59277407Y-56676942D01*
X59277407Y-56676942D02*
X59229788Y-56772180D01*
X59229788Y-56772180D02*
X59182169Y-56819800D01*
X59182169Y-56819800D02*
X59086931Y-56867419D01*
X59086931Y-56867419D02*
X58705979Y-56867419D01*
X58705979Y-56867419D02*
X58705979Y-55867419D01*
X58705979Y-55867419D02*
X59039312Y-55867419D01*
X59039312Y-55867419D02*
X59134550Y-55915038D01*
X59134550Y-55915038D02*
X59182169Y-55962657D01*
X59182169Y-55962657D02*
X59229788Y-56057895D01*
X59229788Y-56057895D02*
X59229788Y-56153133D01*
X59229788Y-56153133D02*
X59182169Y-56248371D01*
X59182169Y-56248371D02*
X59134550Y-56295990D01*
X59134550Y-56295990D02*
X59039312Y-56343609D01*
X59039312Y-56343609D02*
X58705979Y-56343609D01*
X60277407Y-56772180D02*
X60229788Y-56819800D01*
X60229788Y-56819800D02*
X60086931Y-56867419D01*
X60086931Y-56867419D02*
X59991693Y-56867419D01*
X59991693Y-56867419D02*
X59848836Y-56819800D01*
X59848836Y-56819800D02*
X59753598Y-56724561D01*
X59753598Y-56724561D02*
X59705979Y-56629323D01*
X59705979Y-56629323D02*
X59658360Y-56438847D01*
X59658360Y-56438847D02*
X59658360Y-56295990D01*
X59658360Y-56295990D02*
X59705979Y-56105514D01*
X59705979Y-56105514D02*
X59753598Y-56010276D01*
X59753598Y-56010276D02*
X59848836Y-55915038D01*
X59848836Y-55915038D02*
X59991693Y-55867419D01*
X59991693Y-55867419D02*
X60086931Y-55867419D01*
X60086931Y-55867419D02*
X60229788Y-55915038D01*
X60229788Y-55915038D02*
X60277407Y-55962657D01*
X60658360Y-55962657D02*
X60705979Y-55915038D01*
X60705979Y-55915038D02*
X60801217Y-55867419D01*
X60801217Y-55867419D02*
X61039312Y-55867419D01*
X61039312Y-55867419D02*
X61134550Y-55915038D01*
X61134550Y-55915038D02*
X61182169Y-55962657D01*
X61182169Y-55962657D02*
X61229788Y-56057895D01*
X61229788Y-56057895D02*
X61229788Y-56153133D01*
X61229788Y-56153133D02*
X61182169Y-56295990D01*
X61182169Y-56295990D02*
X60610741Y-56867419D01*
X60610741Y-56867419D02*
X61229788Y-56867419D01*
X62991693Y-56772180D02*
X62944074Y-56819800D01*
X62944074Y-56819800D02*
X62801217Y-56867419D01*
X62801217Y-56867419D02*
X62705979Y-56867419D01*
X62705979Y-56867419D02*
X62563122Y-56819800D01*
X62563122Y-56819800D02*
X62467884Y-56724561D01*
X62467884Y-56724561D02*
X62420265Y-56629323D01*
X62420265Y-56629323D02*
X62372646Y-56438847D01*
X62372646Y-56438847D02*
X62372646Y-56295990D01*
X62372646Y-56295990D02*
X62420265Y-56105514D01*
X62420265Y-56105514D02*
X62467884Y-56010276D01*
X62467884Y-56010276D02*
X62563122Y-55915038D01*
X62563122Y-55915038D02*
X62705979Y-55867419D01*
X62705979Y-55867419D02*
X62801217Y-55867419D01*
X62801217Y-55867419D02*
X62944074Y-55915038D01*
X62944074Y-55915038D02*
X62991693Y-55962657D01*
X63420265Y-56867419D02*
X63420265Y-55867419D01*
X63848836Y-56867419D02*
X63848836Y-56343609D01*
X63848836Y-56343609D02*
X63801217Y-56248371D01*
X63801217Y-56248371D02*
X63705979Y-56200752D01*
X63705979Y-56200752D02*
X63563122Y-56200752D01*
X63563122Y-56200752D02*
X63467884Y-56248371D01*
X63467884Y-56248371D02*
X63420265Y-56295990D01*
X64753598Y-56867419D02*
X64753598Y-56343609D01*
X64753598Y-56343609D02*
X64705979Y-56248371D01*
X64705979Y-56248371D02*
X64610741Y-56200752D01*
X64610741Y-56200752D02*
X64420265Y-56200752D01*
X64420265Y-56200752D02*
X64325027Y-56248371D01*
X64753598Y-56819800D02*
X64658360Y-56867419D01*
X64658360Y-56867419D02*
X64420265Y-56867419D01*
X64420265Y-56867419D02*
X64325027Y-56819800D01*
X64325027Y-56819800D02*
X64277408Y-56724561D01*
X64277408Y-56724561D02*
X64277408Y-56629323D01*
X64277408Y-56629323D02*
X64325027Y-56534085D01*
X64325027Y-56534085D02*
X64420265Y-56486466D01*
X64420265Y-56486466D02*
X64658360Y-56486466D01*
X64658360Y-56486466D02*
X64753598Y-56438847D01*
X65229789Y-56867419D02*
X65229789Y-56200752D01*
X65229789Y-56391228D02*
X65277408Y-56295990D01*
X65277408Y-56295990D02*
X65325027Y-56248371D01*
X65325027Y-56248371D02*
X65420265Y-56200752D01*
X65420265Y-56200752D02*
X65515503Y-56200752D01*
X66277408Y-56200752D02*
X66277408Y-57010276D01*
X66277408Y-57010276D02*
X66229789Y-57105514D01*
X66229789Y-57105514D02*
X66182170Y-57153133D01*
X66182170Y-57153133D02*
X66086932Y-57200752D01*
X66086932Y-57200752D02*
X65944075Y-57200752D01*
X65944075Y-57200752D02*
X65848837Y-57153133D01*
X66277408Y-56819800D02*
X66182170Y-56867419D01*
X66182170Y-56867419D02*
X65991694Y-56867419D01*
X65991694Y-56867419D02*
X65896456Y-56819800D01*
X65896456Y-56819800D02*
X65848837Y-56772180D01*
X65848837Y-56772180D02*
X65801218Y-56676942D01*
X65801218Y-56676942D02*
X65801218Y-56391228D01*
X65801218Y-56391228D02*
X65848837Y-56295990D01*
X65848837Y-56295990D02*
X65896456Y-56248371D01*
X65896456Y-56248371D02*
X65991694Y-56200752D01*
X65991694Y-56200752D02*
X66182170Y-56200752D01*
X66182170Y-56200752D02*
X66277408Y-56248371D01*
X67134551Y-56819800D02*
X67039313Y-56867419D01*
X67039313Y-56867419D02*
X66848837Y-56867419D01*
X66848837Y-56867419D02*
X66753599Y-56819800D01*
X66753599Y-56819800D02*
X66705980Y-56724561D01*
X66705980Y-56724561D02*
X66705980Y-56343609D01*
X66705980Y-56343609D02*
X66753599Y-56248371D01*
X66753599Y-56248371D02*
X66848837Y-56200752D01*
X66848837Y-56200752D02*
X67039313Y-56200752D01*
X67039313Y-56200752D02*
X67134551Y-56248371D01*
X67134551Y-56248371D02*
X67182170Y-56343609D01*
X67182170Y-56343609D02*
X67182170Y-56438847D01*
X67182170Y-56438847D02*
X66705980Y-56534085D01*
X67801218Y-55867419D02*
X67991694Y-55867419D01*
X67991694Y-55867419D02*
X68086932Y-55915038D01*
X68086932Y-55915038D02*
X68182170Y-56010276D01*
X68182170Y-56010276D02*
X68229789Y-56200752D01*
X68229789Y-56200752D02*
X68229789Y-56534085D01*
X68229789Y-56534085D02*
X68182170Y-56724561D01*
X68182170Y-56724561D02*
X68086932Y-56819800D01*
X68086932Y-56819800D02*
X67991694Y-56867419D01*
X67991694Y-56867419D02*
X67801218Y-56867419D01*
X67801218Y-56867419D02*
X67705980Y-56819800D01*
X67705980Y-56819800D02*
X67610742Y-56724561D01*
X67610742Y-56724561D02*
X67563123Y-56534085D01*
X67563123Y-56534085D02*
X67563123Y-56200752D01*
X67563123Y-56200752D02*
X67610742Y-56010276D01*
X67610742Y-56010276D02*
X67705980Y-55915038D01*
X67705980Y-55915038D02*
X67801218Y-55867419D01*
X69086932Y-56200752D02*
X69086932Y-56867419D01*
X68658361Y-56200752D02*
X68658361Y-56724561D01*
X68658361Y-56724561D02*
X68705980Y-56819800D01*
X68705980Y-56819800D02*
X68801218Y-56867419D01*
X68801218Y-56867419D02*
X68944075Y-56867419D01*
X68944075Y-56867419D02*
X69039313Y-56819800D01*
X69039313Y-56819800D02*
X69086932Y-56772180D01*
X69420266Y-56200752D02*
X69801218Y-56200752D01*
X69563123Y-55867419D02*
X69563123Y-56724561D01*
X69563123Y-56724561D02*
X69610742Y-56819800D01*
X69610742Y-56819800D02*
X69705980Y-56867419D01*
X69705980Y-56867419D02*
X69801218Y-56867419D01*
X68284912Y-108820009D02*
X68427769Y-108867628D01*
X68427769Y-108867628D02*
X68475388Y-108915247D01*
X68475388Y-108915247D02*
X68523007Y-109010485D01*
X68523007Y-109010485D02*
X68523007Y-109153342D01*
X68523007Y-109153342D02*
X68475388Y-109248580D01*
X68475388Y-109248580D02*
X68427769Y-109296200D01*
X68427769Y-109296200D02*
X68332531Y-109343819D01*
X68332531Y-109343819D02*
X67951579Y-109343819D01*
X67951579Y-109343819D02*
X67951579Y-108343819D01*
X67951579Y-108343819D02*
X68284912Y-108343819D01*
X68284912Y-108343819D02*
X68380150Y-108391438D01*
X68380150Y-108391438D02*
X68427769Y-108439057D01*
X68427769Y-108439057D02*
X68475388Y-108534295D01*
X68475388Y-108534295D02*
X68475388Y-108629533D01*
X68475388Y-108629533D02*
X68427769Y-108724771D01*
X68427769Y-108724771D02*
X68380150Y-108772390D01*
X68380150Y-108772390D02*
X68284912Y-108820009D01*
X68284912Y-108820009D02*
X67951579Y-108820009D01*
X69523007Y-109248580D02*
X69475388Y-109296200D01*
X69475388Y-109296200D02*
X69332531Y-109343819D01*
X69332531Y-109343819D02*
X69237293Y-109343819D01*
X69237293Y-109343819D02*
X69094436Y-109296200D01*
X69094436Y-109296200D02*
X68999198Y-109200961D01*
X68999198Y-109200961D02*
X68951579Y-109105723D01*
X68951579Y-109105723D02*
X68903960Y-108915247D01*
X68903960Y-108915247D02*
X68903960Y-108772390D01*
X68903960Y-108772390D02*
X68951579Y-108581914D01*
X68951579Y-108581914D02*
X68999198Y-108486676D01*
X68999198Y-108486676D02*
X69094436Y-108391438D01*
X69094436Y-108391438D02*
X69237293Y-108343819D01*
X69237293Y-108343819D02*
X69332531Y-108343819D01*
X69332531Y-108343819D02*
X69475388Y-108391438D01*
X69475388Y-108391438D02*
X69523007Y-108439057D01*
X69713484Y-109439057D02*
X70475388Y-109439057D01*
X70570627Y-108343819D02*
X70903960Y-109343819D01*
X70903960Y-109343819D02*
X71237293Y-108343819D01*
X71570627Y-109343819D02*
X71570627Y-108677152D01*
X71570627Y-108343819D02*
X71523008Y-108391438D01*
X71523008Y-108391438D02*
X71570627Y-108439057D01*
X71570627Y-108439057D02*
X71618246Y-108391438D01*
X71618246Y-108391438D02*
X71570627Y-108343819D01*
X71570627Y-108343819D02*
X71570627Y-108439057D01*
X72046817Y-108677152D02*
X72046817Y-109343819D01*
X72046817Y-108772390D02*
X72094436Y-108724771D01*
X72094436Y-108724771D02*
X72189674Y-108677152D01*
X72189674Y-108677152D02*
X72332531Y-108677152D01*
X72332531Y-108677152D02*
X72427769Y-108724771D01*
X72427769Y-108724771D02*
X72475388Y-108820009D01*
X72475388Y-108820009D02*
X72475388Y-109343819D01*
X73475388Y-109343819D02*
X72903960Y-109343819D01*
X73189674Y-109343819D02*
X73189674Y-108343819D01*
X73189674Y-108343819D02*
X73094436Y-108486676D01*
X73094436Y-108486676D02*
X72999198Y-108581914D01*
X72999198Y-108581914D02*
X72903960Y-108629533D01*
X39227312Y-98126609D02*
X39370169Y-98174228D01*
X39370169Y-98174228D02*
X39417788Y-98221847D01*
X39417788Y-98221847D02*
X39465407Y-98317085D01*
X39465407Y-98317085D02*
X39465407Y-98459942D01*
X39465407Y-98459942D02*
X39417788Y-98555180D01*
X39417788Y-98555180D02*
X39370169Y-98602800D01*
X39370169Y-98602800D02*
X39274931Y-98650419D01*
X39274931Y-98650419D02*
X38893979Y-98650419D01*
X38893979Y-98650419D02*
X38893979Y-97650419D01*
X38893979Y-97650419D02*
X39227312Y-97650419D01*
X39227312Y-97650419D02*
X39322550Y-97698038D01*
X39322550Y-97698038D02*
X39370169Y-97745657D01*
X39370169Y-97745657D02*
X39417788Y-97840895D01*
X39417788Y-97840895D02*
X39417788Y-97936133D01*
X39417788Y-97936133D02*
X39370169Y-98031371D01*
X39370169Y-98031371D02*
X39322550Y-98078990D01*
X39322550Y-98078990D02*
X39227312Y-98126609D01*
X39227312Y-98126609D02*
X38893979Y-98126609D01*
X39846360Y-98364704D02*
X40322550Y-98364704D01*
X39751122Y-98650419D02*
X40084455Y-97650419D01*
X40084455Y-97650419D02*
X40417788Y-98650419D01*
X40608265Y-97650419D02*
X41179693Y-97650419D01*
X40893979Y-98650419D02*
X40893979Y-97650419D01*
X42036836Y-98650419D02*
X41465408Y-98650419D01*
X41751122Y-98650419D02*
X41751122Y-97650419D01*
X41751122Y-97650419D02*
X41655884Y-97793276D01*
X41655884Y-97793276D02*
X41560646Y-97888514D01*
X41560646Y-97888514D02*
X41465408Y-97936133D01*
X79978407Y-53190780D02*
X79930788Y-53238400D01*
X79930788Y-53238400D02*
X79787931Y-53286019D01*
X79787931Y-53286019D02*
X79692693Y-53286019D01*
X79692693Y-53286019D02*
X79549836Y-53238400D01*
X79549836Y-53238400D02*
X79454598Y-53143161D01*
X79454598Y-53143161D02*
X79406979Y-53047923D01*
X79406979Y-53047923D02*
X79359360Y-52857447D01*
X79359360Y-52857447D02*
X79359360Y-52714590D01*
X79359360Y-52714590D02*
X79406979Y-52524114D01*
X79406979Y-52524114D02*
X79454598Y-52428876D01*
X79454598Y-52428876D02*
X79549836Y-52333638D01*
X79549836Y-52333638D02*
X79692693Y-52286019D01*
X79692693Y-52286019D02*
X79787931Y-52286019D01*
X79787931Y-52286019D02*
X79930788Y-52333638D01*
X79930788Y-52333638D02*
X79978407Y-52381257D01*
X80835550Y-52619352D02*
X80835550Y-53286019D01*
X80406979Y-52619352D02*
X80406979Y-53143161D01*
X80406979Y-53143161D02*
X80454598Y-53238400D01*
X80454598Y-53238400D02*
X80549836Y-53286019D01*
X80549836Y-53286019D02*
X80692693Y-53286019D01*
X80692693Y-53286019D02*
X80787931Y-53238400D01*
X80787931Y-53238400D02*
X80835550Y-53190780D01*
X81311741Y-53286019D02*
X81311741Y-52619352D01*
X81311741Y-52809828D02*
X81359360Y-52714590D01*
X81359360Y-52714590D02*
X81406979Y-52666971D01*
X81406979Y-52666971D02*
X81502217Y-52619352D01*
X81502217Y-52619352D02*
X81597455Y-52619352D01*
X82121265Y-52286019D02*
X82311741Y-52286019D01*
X82311741Y-52286019D02*
X82406979Y-52333638D01*
X82406979Y-52333638D02*
X82502217Y-52428876D01*
X82502217Y-52428876D02*
X82549836Y-52619352D01*
X82549836Y-52619352D02*
X82549836Y-52952685D01*
X82549836Y-52952685D02*
X82502217Y-53143161D01*
X82502217Y-53143161D02*
X82406979Y-53238400D01*
X82406979Y-53238400D02*
X82311741Y-53286019D01*
X82311741Y-53286019D02*
X82121265Y-53286019D01*
X82121265Y-53286019D02*
X82026027Y-53238400D01*
X82026027Y-53238400D02*
X81930789Y-53143161D01*
X81930789Y-53143161D02*
X81883170Y-52952685D01*
X81883170Y-52952685D02*
X81883170Y-52619352D01*
X81883170Y-52619352D02*
X81930789Y-52428876D01*
X81930789Y-52428876D02*
X82026027Y-52333638D01*
X82026027Y-52333638D02*
X82121265Y-52286019D01*
X83406979Y-52619352D02*
X83406979Y-53286019D01*
X82978408Y-52619352D02*
X82978408Y-53143161D01*
X82978408Y-53143161D02*
X83026027Y-53238400D01*
X83026027Y-53238400D02*
X83121265Y-53286019D01*
X83121265Y-53286019D02*
X83264122Y-53286019D01*
X83264122Y-53286019D02*
X83359360Y-53238400D01*
X83359360Y-53238400D02*
X83406979Y-53190780D01*
X83740313Y-52619352D02*
X84121265Y-52619352D01*
X83883170Y-52286019D02*
X83883170Y-53143161D01*
X83883170Y-53143161D02*
X83930789Y-53238400D01*
X83930789Y-53238400D02*
X84026027Y-53286019D01*
X84026027Y-53286019D02*
X84121265Y-53286019D01*
X84454599Y-52619352D02*
X84454599Y-53619352D01*
X84454599Y-52666971D02*
X84549837Y-52619352D01*
X84549837Y-52619352D02*
X84740313Y-52619352D01*
X84740313Y-52619352D02*
X84835551Y-52666971D01*
X84835551Y-52666971D02*
X84883170Y-52714590D01*
X84883170Y-52714590D02*
X84930789Y-52809828D01*
X84930789Y-52809828D02*
X84930789Y-53095542D01*
X84930789Y-53095542D02*
X84883170Y-53190780D01*
X84883170Y-53190780D02*
X84835551Y-53238400D01*
X84835551Y-53238400D02*
X84740313Y-53286019D01*
X84740313Y-53286019D02*
X84549837Y-53286019D01*
X84549837Y-53286019D02*
X84454599Y-53238400D01*
X85787932Y-52619352D02*
X85787932Y-53286019D01*
X85359361Y-52619352D02*
X85359361Y-53143161D01*
X85359361Y-53143161D02*
X85406980Y-53238400D01*
X85406980Y-53238400D02*
X85502218Y-53286019D01*
X85502218Y-53286019D02*
X85645075Y-53286019D01*
X85645075Y-53286019D02*
X85740313Y-53238400D01*
X85740313Y-53238400D02*
X85787932Y-53190780D01*
X86121266Y-52619352D02*
X86502218Y-52619352D01*
X86264123Y-52286019D02*
X86264123Y-53143161D01*
X86264123Y-53143161D02*
X86311742Y-53238400D01*
X86311742Y-53238400D02*
X86406980Y-53286019D01*
X86406980Y-53286019D02*
X86502218Y-53286019D01*
X65465512Y-60382209D02*
X65608369Y-60429828D01*
X65608369Y-60429828D02*
X65655988Y-60477447D01*
X65655988Y-60477447D02*
X65703607Y-60572685D01*
X65703607Y-60572685D02*
X65703607Y-60715542D01*
X65703607Y-60715542D02*
X65655988Y-60810780D01*
X65655988Y-60810780D02*
X65608369Y-60858400D01*
X65608369Y-60858400D02*
X65513131Y-60906019D01*
X65513131Y-60906019D02*
X65132179Y-60906019D01*
X65132179Y-60906019D02*
X65132179Y-59906019D01*
X65132179Y-59906019D02*
X65465512Y-59906019D01*
X65465512Y-59906019D02*
X65560750Y-59953638D01*
X65560750Y-59953638D02*
X65608369Y-60001257D01*
X65608369Y-60001257D02*
X65655988Y-60096495D01*
X65655988Y-60096495D02*
X65655988Y-60191733D01*
X65655988Y-60191733D02*
X65608369Y-60286971D01*
X65608369Y-60286971D02*
X65560750Y-60334590D01*
X65560750Y-60334590D02*
X65465512Y-60382209D01*
X65465512Y-60382209D02*
X65132179Y-60382209D01*
X66703607Y-60810780D02*
X66655988Y-60858400D01*
X66655988Y-60858400D02*
X66513131Y-60906019D01*
X66513131Y-60906019D02*
X66417893Y-60906019D01*
X66417893Y-60906019D02*
X66275036Y-60858400D01*
X66275036Y-60858400D02*
X66179798Y-60763161D01*
X66179798Y-60763161D02*
X66132179Y-60667923D01*
X66132179Y-60667923D02*
X66084560Y-60477447D01*
X66084560Y-60477447D02*
X66084560Y-60334590D01*
X66084560Y-60334590D02*
X66132179Y-60144114D01*
X66132179Y-60144114D02*
X66179798Y-60048876D01*
X66179798Y-60048876D02*
X66275036Y-59953638D01*
X66275036Y-59953638D02*
X66417893Y-59906019D01*
X66417893Y-59906019D02*
X66513131Y-59906019D01*
X66513131Y-59906019D02*
X66655988Y-59953638D01*
X66655988Y-59953638D02*
X66703607Y-60001257D01*
X66894084Y-61001257D02*
X67655988Y-61001257D01*
X67751227Y-59906019D02*
X68084560Y-60906019D01*
X68084560Y-60906019D02*
X68417893Y-59906019D01*
X68751227Y-60906019D02*
X68751227Y-60239352D01*
X68751227Y-59906019D02*
X68703608Y-59953638D01*
X68703608Y-59953638D02*
X68751227Y-60001257D01*
X68751227Y-60001257D02*
X68798846Y-59953638D01*
X68798846Y-59953638D02*
X68751227Y-59906019D01*
X68751227Y-59906019D02*
X68751227Y-60001257D01*
X69227417Y-60239352D02*
X69227417Y-60906019D01*
X69227417Y-60334590D02*
X69275036Y-60286971D01*
X69275036Y-60286971D02*
X69370274Y-60239352D01*
X69370274Y-60239352D02*
X69513131Y-60239352D01*
X69513131Y-60239352D02*
X69608369Y-60286971D01*
X69608369Y-60286971D02*
X69655988Y-60382209D01*
X69655988Y-60382209D02*
X69655988Y-60906019D01*
X70084560Y-60001257D02*
X70132179Y-59953638D01*
X70132179Y-59953638D02*
X70227417Y-59906019D01*
X70227417Y-59906019D02*
X70465512Y-59906019D01*
X70465512Y-59906019D02*
X70560750Y-59953638D01*
X70560750Y-59953638D02*
X70608369Y-60001257D01*
X70608369Y-60001257D02*
X70655988Y-60096495D01*
X70655988Y-60096495D02*
X70655988Y-60191733D01*
X70655988Y-60191733D02*
X70608369Y-60334590D01*
X70608369Y-60334590D02*
X70036941Y-60906019D01*
X70036941Y-60906019D02*
X70655988Y-60906019D01*
X138665179Y-80591019D02*
X138665179Y-79591019D01*
X139141369Y-80591019D02*
X139141369Y-79591019D01*
X139141369Y-79591019D02*
X139712797Y-80591019D01*
X139712797Y-80591019D02*
X139712797Y-79591019D01*
X140188988Y-80591019D02*
X140188988Y-79591019D01*
X140188988Y-79591019D02*
X140569940Y-79591019D01*
X140569940Y-79591019D02*
X140665178Y-79638638D01*
X140665178Y-79638638D02*
X140712797Y-79686257D01*
X140712797Y-79686257D02*
X140760416Y-79781495D01*
X140760416Y-79781495D02*
X140760416Y-79924352D01*
X140760416Y-79924352D02*
X140712797Y-80019590D01*
X140712797Y-80019590D02*
X140665178Y-80067209D01*
X140665178Y-80067209D02*
X140569940Y-80114828D01*
X140569940Y-80114828D02*
X140188988Y-80114828D01*
X141188988Y-79591019D02*
X141188988Y-80400542D01*
X141188988Y-80400542D02*
X141236607Y-80495780D01*
X141236607Y-80495780D02*
X141284226Y-80543400D01*
X141284226Y-80543400D02*
X141379464Y-80591019D01*
X141379464Y-80591019D02*
X141569940Y-80591019D01*
X141569940Y-80591019D02*
X141665178Y-80543400D01*
X141665178Y-80543400D02*
X141712797Y-80495780D01*
X141712797Y-80495780D02*
X141760416Y-80400542D01*
X141760416Y-80400542D02*
X141760416Y-79591019D01*
X142093750Y-79591019D02*
X142665178Y-79591019D01*
X142379464Y-80591019D02*
X142379464Y-79591019D01*
X54848312Y-108769209D02*
X54991169Y-108816828D01*
X54991169Y-108816828D02*
X55038788Y-108864447D01*
X55038788Y-108864447D02*
X55086407Y-108959685D01*
X55086407Y-108959685D02*
X55086407Y-109102542D01*
X55086407Y-109102542D02*
X55038788Y-109197780D01*
X55038788Y-109197780D02*
X54991169Y-109245400D01*
X54991169Y-109245400D02*
X54895931Y-109293019D01*
X54895931Y-109293019D02*
X54514979Y-109293019D01*
X54514979Y-109293019D02*
X54514979Y-108293019D01*
X54514979Y-108293019D02*
X54848312Y-108293019D01*
X54848312Y-108293019D02*
X54943550Y-108340638D01*
X54943550Y-108340638D02*
X54991169Y-108388257D01*
X54991169Y-108388257D02*
X55038788Y-108483495D01*
X55038788Y-108483495D02*
X55038788Y-108578733D01*
X55038788Y-108578733D02*
X54991169Y-108673971D01*
X54991169Y-108673971D02*
X54943550Y-108721590D01*
X54943550Y-108721590D02*
X54848312Y-108769209D01*
X54848312Y-108769209D02*
X54514979Y-108769209D01*
X56086407Y-109197780D02*
X56038788Y-109245400D01*
X56038788Y-109245400D02*
X55895931Y-109293019D01*
X55895931Y-109293019D02*
X55800693Y-109293019D01*
X55800693Y-109293019D02*
X55657836Y-109245400D01*
X55657836Y-109245400D02*
X55562598Y-109150161D01*
X55562598Y-109150161D02*
X55514979Y-109054923D01*
X55514979Y-109054923D02*
X55467360Y-108864447D01*
X55467360Y-108864447D02*
X55467360Y-108721590D01*
X55467360Y-108721590D02*
X55514979Y-108531114D01*
X55514979Y-108531114D02*
X55562598Y-108435876D01*
X55562598Y-108435876D02*
X55657836Y-108340638D01*
X55657836Y-108340638D02*
X55800693Y-108293019D01*
X55800693Y-108293019D02*
X55895931Y-108293019D01*
X55895931Y-108293019D02*
X56038788Y-108340638D01*
X56038788Y-108340638D02*
X56086407Y-108388257D01*
X57038788Y-109293019D02*
X56467360Y-109293019D01*
X56753074Y-109293019D02*
X56753074Y-108293019D01*
X56753074Y-108293019D02*
X56657836Y-108435876D01*
X56657836Y-108435876D02*
X56562598Y-108531114D01*
X56562598Y-108531114D02*
X56467360Y-108578733D01*
X58800693Y-109197780D02*
X58753074Y-109245400D01*
X58753074Y-109245400D02*
X58610217Y-109293019D01*
X58610217Y-109293019D02*
X58514979Y-109293019D01*
X58514979Y-109293019D02*
X58372122Y-109245400D01*
X58372122Y-109245400D02*
X58276884Y-109150161D01*
X58276884Y-109150161D02*
X58229265Y-109054923D01*
X58229265Y-109054923D02*
X58181646Y-108864447D01*
X58181646Y-108864447D02*
X58181646Y-108721590D01*
X58181646Y-108721590D02*
X58229265Y-108531114D01*
X58229265Y-108531114D02*
X58276884Y-108435876D01*
X58276884Y-108435876D02*
X58372122Y-108340638D01*
X58372122Y-108340638D02*
X58514979Y-108293019D01*
X58514979Y-108293019D02*
X58610217Y-108293019D01*
X58610217Y-108293019D02*
X58753074Y-108340638D01*
X58753074Y-108340638D02*
X58800693Y-108388257D01*
X59229265Y-109293019D02*
X59229265Y-108293019D01*
X59657836Y-109293019D02*
X59657836Y-108769209D01*
X59657836Y-108769209D02*
X59610217Y-108673971D01*
X59610217Y-108673971D02*
X59514979Y-108626352D01*
X59514979Y-108626352D02*
X59372122Y-108626352D01*
X59372122Y-108626352D02*
X59276884Y-108673971D01*
X59276884Y-108673971D02*
X59229265Y-108721590D01*
X60562598Y-109293019D02*
X60562598Y-108769209D01*
X60562598Y-108769209D02*
X60514979Y-108673971D01*
X60514979Y-108673971D02*
X60419741Y-108626352D01*
X60419741Y-108626352D02*
X60229265Y-108626352D01*
X60229265Y-108626352D02*
X60134027Y-108673971D01*
X60562598Y-109245400D02*
X60467360Y-109293019D01*
X60467360Y-109293019D02*
X60229265Y-109293019D01*
X60229265Y-109293019D02*
X60134027Y-109245400D01*
X60134027Y-109245400D02*
X60086408Y-109150161D01*
X60086408Y-109150161D02*
X60086408Y-109054923D01*
X60086408Y-109054923D02*
X60134027Y-108959685D01*
X60134027Y-108959685D02*
X60229265Y-108912066D01*
X60229265Y-108912066D02*
X60467360Y-108912066D01*
X60467360Y-108912066D02*
X60562598Y-108864447D01*
X61038789Y-109293019D02*
X61038789Y-108626352D01*
X61038789Y-108816828D02*
X61086408Y-108721590D01*
X61086408Y-108721590D02*
X61134027Y-108673971D01*
X61134027Y-108673971D02*
X61229265Y-108626352D01*
X61229265Y-108626352D02*
X61324503Y-108626352D01*
X62086408Y-108626352D02*
X62086408Y-109435876D01*
X62086408Y-109435876D02*
X62038789Y-109531114D01*
X62038789Y-109531114D02*
X61991170Y-109578733D01*
X61991170Y-109578733D02*
X61895932Y-109626352D01*
X61895932Y-109626352D02*
X61753075Y-109626352D01*
X61753075Y-109626352D02*
X61657837Y-109578733D01*
X62086408Y-109245400D02*
X61991170Y-109293019D01*
X61991170Y-109293019D02*
X61800694Y-109293019D01*
X61800694Y-109293019D02*
X61705456Y-109245400D01*
X61705456Y-109245400D02*
X61657837Y-109197780D01*
X61657837Y-109197780D02*
X61610218Y-109102542D01*
X61610218Y-109102542D02*
X61610218Y-108816828D01*
X61610218Y-108816828D02*
X61657837Y-108721590D01*
X61657837Y-108721590D02*
X61705456Y-108673971D01*
X61705456Y-108673971D02*
X61800694Y-108626352D01*
X61800694Y-108626352D02*
X61991170Y-108626352D01*
X61991170Y-108626352D02*
X62086408Y-108673971D01*
X62943551Y-109245400D02*
X62848313Y-109293019D01*
X62848313Y-109293019D02*
X62657837Y-109293019D01*
X62657837Y-109293019D02*
X62562599Y-109245400D01*
X62562599Y-109245400D02*
X62514980Y-109150161D01*
X62514980Y-109150161D02*
X62514980Y-108769209D01*
X62514980Y-108769209D02*
X62562599Y-108673971D01*
X62562599Y-108673971D02*
X62657837Y-108626352D01*
X62657837Y-108626352D02*
X62848313Y-108626352D01*
X62848313Y-108626352D02*
X62943551Y-108673971D01*
X62943551Y-108673971D02*
X62991170Y-108769209D01*
X62991170Y-108769209D02*
X62991170Y-108864447D01*
X62991170Y-108864447D02*
X62514980Y-108959685D01*
X63610218Y-108293019D02*
X63800694Y-108293019D01*
X63800694Y-108293019D02*
X63895932Y-108340638D01*
X63895932Y-108340638D02*
X63991170Y-108435876D01*
X63991170Y-108435876D02*
X64038789Y-108626352D01*
X64038789Y-108626352D02*
X64038789Y-108959685D01*
X64038789Y-108959685D02*
X63991170Y-109150161D01*
X63991170Y-109150161D02*
X63895932Y-109245400D01*
X63895932Y-109245400D02*
X63800694Y-109293019D01*
X63800694Y-109293019D02*
X63610218Y-109293019D01*
X63610218Y-109293019D02*
X63514980Y-109245400D01*
X63514980Y-109245400D02*
X63419742Y-109150161D01*
X63419742Y-109150161D02*
X63372123Y-108959685D01*
X63372123Y-108959685D02*
X63372123Y-108626352D01*
X63372123Y-108626352D02*
X63419742Y-108435876D01*
X63419742Y-108435876D02*
X63514980Y-108340638D01*
X63514980Y-108340638D02*
X63610218Y-108293019D01*
X64895932Y-108626352D02*
X64895932Y-109293019D01*
X64467361Y-108626352D02*
X64467361Y-109150161D01*
X64467361Y-109150161D02*
X64514980Y-109245400D01*
X64514980Y-109245400D02*
X64610218Y-109293019D01*
X64610218Y-109293019D02*
X64753075Y-109293019D01*
X64753075Y-109293019D02*
X64848313Y-109245400D01*
X64848313Y-109245400D02*
X64895932Y-109197780D01*
X65229266Y-108626352D02*
X65610218Y-108626352D01*
X65372123Y-108293019D02*
X65372123Y-109150161D01*
X65372123Y-109150161D02*
X65419742Y-109245400D01*
X65419742Y-109245400D02*
X65514980Y-109293019D01*
X65514980Y-109293019D02*
X65610218Y-109293019D01*
X72663255Y-31686619D02*
X72853731Y-31686619D01*
X72853731Y-31686619D02*
X72948969Y-31734238D01*
X72948969Y-31734238D02*
X73044207Y-31829476D01*
X73044207Y-31829476D02*
X73091826Y-32019952D01*
X73091826Y-32019952D02*
X73091826Y-32353285D01*
X73091826Y-32353285D02*
X73044207Y-32543761D01*
X73044207Y-32543761D02*
X72948969Y-32639000D01*
X72948969Y-32639000D02*
X72853731Y-32686619D01*
X72853731Y-32686619D02*
X72663255Y-32686619D01*
X72663255Y-32686619D02*
X72568017Y-32639000D01*
X72568017Y-32639000D02*
X72472779Y-32543761D01*
X72472779Y-32543761D02*
X72425160Y-32353285D01*
X72425160Y-32353285D02*
X72425160Y-32019952D01*
X72425160Y-32019952D02*
X72472779Y-31829476D01*
X72472779Y-31829476D02*
X72568017Y-31734238D01*
X72568017Y-31734238D02*
X72663255Y-31686619D01*
X73520398Y-31686619D02*
X73520398Y-32496142D01*
X73520398Y-32496142D02*
X73568017Y-32591380D01*
X73568017Y-32591380D02*
X73615636Y-32639000D01*
X73615636Y-32639000D02*
X73710874Y-32686619D01*
X73710874Y-32686619D02*
X73901350Y-32686619D01*
X73901350Y-32686619D02*
X73996588Y-32639000D01*
X73996588Y-32639000D02*
X74044207Y-32591380D01*
X74044207Y-32591380D02*
X74091826Y-32496142D01*
X74091826Y-32496142D02*
X74091826Y-31686619D01*
X74425160Y-31686619D02*
X74996588Y-31686619D01*
X74710874Y-32686619D02*
X74710874Y-31686619D01*
X75329922Y-32686619D02*
X75329922Y-31686619D01*
X75329922Y-31686619D02*
X75710874Y-31686619D01*
X75710874Y-31686619D02*
X75806112Y-31734238D01*
X75806112Y-31734238D02*
X75853731Y-31781857D01*
X75853731Y-31781857D02*
X75901350Y-31877095D01*
X75901350Y-31877095D02*
X75901350Y-32019952D01*
X75901350Y-32019952D02*
X75853731Y-32115190D01*
X75853731Y-32115190D02*
X75806112Y-32162809D01*
X75806112Y-32162809D02*
X75710874Y-32210428D01*
X75710874Y-32210428D02*
X75329922Y-32210428D01*
X76329922Y-31686619D02*
X76329922Y-32496142D01*
X76329922Y-32496142D02*
X76377541Y-32591380D01*
X76377541Y-32591380D02*
X76425160Y-32639000D01*
X76425160Y-32639000D02*
X76520398Y-32686619D01*
X76520398Y-32686619D02*
X76710874Y-32686619D01*
X76710874Y-32686619D02*
X76806112Y-32639000D01*
X76806112Y-32639000D02*
X76853731Y-32591380D01*
X76853731Y-32591380D02*
X76901350Y-32496142D01*
X76901350Y-32496142D02*
X76901350Y-31686619D01*
X77234684Y-31686619D02*
X77806112Y-31686619D01*
X77520398Y-32686619D02*
X77520398Y-31686619D01*
X91421179Y-97863019D02*
X91421179Y-96863019D01*
X91421179Y-96863019D02*
X91754512Y-97577304D01*
X91754512Y-97577304D02*
X92087845Y-96863019D01*
X92087845Y-96863019D02*
X92087845Y-97863019D01*
X92564036Y-97863019D02*
X92564036Y-96863019D01*
X92564036Y-96863019D02*
X92944988Y-96863019D01*
X92944988Y-96863019D02*
X93040226Y-96910638D01*
X93040226Y-96910638D02*
X93087845Y-96958257D01*
X93087845Y-96958257D02*
X93135464Y-97053495D01*
X93135464Y-97053495D02*
X93135464Y-97196352D01*
X93135464Y-97196352D02*
X93087845Y-97291590D01*
X93087845Y-97291590D02*
X93040226Y-97339209D01*
X93040226Y-97339209D02*
X92944988Y-97386828D01*
X92944988Y-97386828D02*
X92564036Y-97386828D01*
X93564036Y-97863019D02*
X93564036Y-96863019D01*
X93564036Y-96863019D02*
X93944988Y-96863019D01*
X93944988Y-96863019D02*
X94040226Y-96910638D01*
X94040226Y-96910638D02*
X94087845Y-96958257D01*
X94087845Y-96958257D02*
X94135464Y-97053495D01*
X94135464Y-97053495D02*
X94135464Y-97196352D01*
X94135464Y-97196352D02*
X94087845Y-97291590D01*
X94087845Y-97291590D02*
X94040226Y-97339209D01*
X94040226Y-97339209D02*
X93944988Y-97386828D01*
X93944988Y-97386828D02*
X93564036Y-97386828D01*
X95135464Y-97767780D02*
X95087845Y-97815400D01*
X95087845Y-97815400D02*
X94944988Y-97863019D01*
X94944988Y-97863019D02*
X94849750Y-97863019D01*
X94849750Y-97863019D02*
X94706893Y-97815400D01*
X94706893Y-97815400D02*
X94611655Y-97720161D01*
X94611655Y-97720161D02*
X94564036Y-97624923D01*
X94564036Y-97624923D02*
X94516417Y-97434447D01*
X94516417Y-97434447D02*
X94516417Y-97291590D01*
X94516417Y-97291590D02*
X94564036Y-97101114D01*
X94564036Y-97101114D02*
X94611655Y-97005876D01*
X94611655Y-97005876D02*
X94706893Y-96910638D01*
X94706893Y-96910638D02*
X94849750Y-96863019D01*
X94849750Y-96863019D02*
X94944988Y-96863019D01*
X94944988Y-96863019D02*
X95087845Y-96910638D01*
X95087845Y-96910638D02*
X95135464Y-96958257D01*
X96325941Y-97863019D02*
X96325941Y-96863019D01*
X96325941Y-96863019D02*
X96564036Y-96863019D01*
X96564036Y-96863019D02*
X96706893Y-96910638D01*
X96706893Y-96910638D02*
X96802131Y-97005876D01*
X96802131Y-97005876D02*
X96849750Y-97101114D01*
X96849750Y-97101114D02*
X96897369Y-97291590D01*
X96897369Y-97291590D02*
X96897369Y-97434447D01*
X96897369Y-97434447D02*
X96849750Y-97624923D01*
X96849750Y-97624923D02*
X96802131Y-97720161D01*
X96802131Y-97720161D02*
X96706893Y-97815400D01*
X96706893Y-97815400D02*
X96564036Y-97863019D01*
X96564036Y-97863019D02*
X96325941Y-97863019D01*
X97325941Y-97863019D02*
X97325941Y-97196352D01*
X97325941Y-96863019D02*
X97278322Y-96910638D01*
X97278322Y-96910638D02*
X97325941Y-96958257D01*
X97325941Y-96958257D02*
X97373560Y-96910638D01*
X97373560Y-96910638D02*
X97325941Y-96863019D01*
X97325941Y-96863019D02*
X97325941Y-96958257D01*
X97754512Y-97815400D02*
X97849750Y-97863019D01*
X97849750Y-97863019D02*
X98040226Y-97863019D01*
X98040226Y-97863019D02*
X98135464Y-97815400D01*
X98135464Y-97815400D02*
X98183083Y-97720161D01*
X98183083Y-97720161D02*
X98183083Y-97672542D01*
X98183083Y-97672542D02*
X98135464Y-97577304D01*
X98135464Y-97577304D02*
X98040226Y-97529685D01*
X98040226Y-97529685D02*
X97897369Y-97529685D01*
X97897369Y-97529685D02*
X97802131Y-97482066D01*
X97802131Y-97482066D02*
X97754512Y-97386828D01*
X97754512Y-97386828D02*
X97754512Y-97339209D01*
X97754512Y-97339209D02*
X97802131Y-97243971D01*
X97802131Y-97243971D02*
X97897369Y-97196352D01*
X97897369Y-97196352D02*
X98040226Y-97196352D01*
X98040226Y-97196352D02*
X98135464Y-97243971D01*
X99040226Y-97815400D02*
X98944988Y-97863019D01*
X98944988Y-97863019D02*
X98754512Y-97863019D01*
X98754512Y-97863019D02*
X98659274Y-97815400D01*
X98659274Y-97815400D02*
X98611655Y-97767780D01*
X98611655Y-97767780D02*
X98564036Y-97672542D01*
X98564036Y-97672542D02*
X98564036Y-97386828D01*
X98564036Y-97386828D02*
X98611655Y-97291590D01*
X98611655Y-97291590D02*
X98659274Y-97243971D01*
X98659274Y-97243971D02*
X98754512Y-97196352D01*
X98754512Y-97196352D02*
X98944988Y-97196352D01*
X98944988Y-97196352D02*
X99040226Y-97243971D01*
X99468798Y-97863019D02*
X99468798Y-96863019D01*
X99897369Y-97863019D02*
X99897369Y-97339209D01*
X99897369Y-97339209D02*
X99849750Y-97243971D01*
X99849750Y-97243971D02*
X99754512Y-97196352D01*
X99754512Y-97196352D02*
X99611655Y-97196352D01*
X99611655Y-97196352D02*
X99516417Y-97243971D01*
X99516417Y-97243971D02*
X99468798Y-97291590D01*
X100802131Y-97863019D02*
X100802131Y-97339209D01*
X100802131Y-97339209D02*
X100754512Y-97243971D01*
X100754512Y-97243971D02*
X100659274Y-97196352D01*
X100659274Y-97196352D02*
X100468798Y-97196352D01*
X100468798Y-97196352D02*
X100373560Y-97243971D01*
X100802131Y-97815400D02*
X100706893Y-97863019D01*
X100706893Y-97863019D02*
X100468798Y-97863019D01*
X100468798Y-97863019D02*
X100373560Y-97815400D01*
X100373560Y-97815400D02*
X100325941Y-97720161D01*
X100325941Y-97720161D02*
X100325941Y-97624923D01*
X100325941Y-97624923D02*
X100373560Y-97529685D01*
X100373560Y-97529685D02*
X100468798Y-97482066D01*
X100468798Y-97482066D02*
X100706893Y-97482066D01*
X100706893Y-97482066D02*
X100802131Y-97434447D01*
X101278322Y-97863019D02*
X101278322Y-97196352D01*
X101278322Y-97386828D02*
X101325941Y-97291590D01*
X101325941Y-97291590D02*
X101373560Y-97243971D01*
X101373560Y-97243971D02*
X101468798Y-97196352D01*
X101468798Y-97196352D02*
X101564036Y-97196352D01*
X102325941Y-97196352D02*
X102325941Y-98005876D01*
X102325941Y-98005876D02*
X102278322Y-98101114D01*
X102278322Y-98101114D02*
X102230703Y-98148733D01*
X102230703Y-98148733D02*
X102135465Y-98196352D01*
X102135465Y-98196352D02*
X101992608Y-98196352D01*
X101992608Y-98196352D02*
X101897370Y-98148733D01*
X102325941Y-97815400D02*
X102230703Y-97863019D01*
X102230703Y-97863019D02*
X102040227Y-97863019D01*
X102040227Y-97863019D02*
X101944989Y-97815400D01*
X101944989Y-97815400D02*
X101897370Y-97767780D01*
X101897370Y-97767780D02*
X101849751Y-97672542D01*
X101849751Y-97672542D02*
X101849751Y-97386828D01*
X101849751Y-97386828D02*
X101897370Y-97291590D01*
X101897370Y-97291590D02*
X101944989Y-97243971D01*
X101944989Y-97243971D02*
X102040227Y-97196352D01*
X102040227Y-97196352D02*
X102230703Y-97196352D01*
X102230703Y-97196352D02*
X102325941Y-97243971D01*
X103183084Y-97815400D02*
X103087846Y-97863019D01*
X103087846Y-97863019D02*
X102897370Y-97863019D01*
X102897370Y-97863019D02*
X102802132Y-97815400D01*
X102802132Y-97815400D02*
X102754513Y-97720161D01*
X102754513Y-97720161D02*
X102754513Y-97339209D01*
X102754513Y-97339209D02*
X102802132Y-97243971D01*
X102802132Y-97243971D02*
X102897370Y-97196352D01*
X102897370Y-97196352D02*
X103087846Y-97196352D01*
X103087846Y-97196352D02*
X103183084Y-97243971D01*
X103183084Y-97243971D02*
X103230703Y-97339209D01*
X103230703Y-97339209D02*
X103230703Y-97434447D01*
X103230703Y-97434447D02*
X102754513Y-97529685D01*
X75728533Y-96543019D02*
X75395200Y-96066828D01*
X75157105Y-96543019D02*
X75157105Y-95543019D01*
X75157105Y-95543019D02*
X75538057Y-95543019D01*
X75538057Y-95543019D02*
X75633295Y-95590638D01*
X75633295Y-95590638D02*
X75680914Y-95638257D01*
X75680914Y-95638257D02*
X75728533Y-95733495D01*
X75728533Y-95733495D02*
X75728533Y-95876352D01*
X75728533Y-95876352D02*
X75680914Y-95971590D01*
X75680914Y-95971590D02*
X75633295Y-96019209D01*
X75633295Y-96019209D02*
X75538057Y-96066828D01*
X75538057Y-96066828D02*
X75157105Y-96066828D01*
X76680914Y-96543019D02*
X76109486Y-96543019D01*
X76395200Y-96543019D02*
X76395200Y-95543019D01*
X76395200Y-95543019D02*
X76299962Y-95685876D01*
X76299962Y-95685876D02*
X76204724Y-95781114D01*
X76204724Y-95781114D02*
X76109486Y-95828733D01*
D11*
X87044456Y-77663318D02*
X87044456Y-76393318D01*
X87044456Y-76393318D02*
X87528266Y-76393318D01*
X87528266Y-76393318D02*
X87649218Y-76453794D01*
X87649218Y-76453794D02*
X87709695Y-76514270D01*
X87709695Y-76514270D02*
X87770171Y-76635222D01*
X87770171Y-76635222D02*
X87770171Y-76816651D01*
X87770171Y-76816651D02*
X87709695Y-76937603D01*
X87709695Y-76937603D02*
X87649218Y-76998080D01*
X87649218Y-76998080D02*
X87528266Y-77058556D01*
X87528266Y-77058556D02*
X87044456Y-77058556D01*
X88253980Y-77602842D02*
X88435409Y-77663318D01*
X88435409Y-77663318D02*
X88737790Y-77663318D01*
X88737790Y-77663318D02*
X88858742Y-77602842D01*
X88858742Y-77602842D02*
X88919218Y-77542365D01*
X88919218Y-77542365D02*
X88979695Y-77421413D01*
X88979695Y-77421413D02*
X88979695Y-77300461D01*
X88979695Y-77300461D02*
X88919218Y-77179508D01*
X88919218Y-77179508D02*
X88858742Y-77119032D01*
X88858742Y-77119032D02*
X88737790Y-77058556D01*
X88737790Y-77058556D02*
X88495885Y-76998080D01*
X88495885Y-76998080D02*
X88374933Y-76937603D01*
X88374933Y-76937603D02*
X88314456Y-76877127D01*
X88314456Y-76877127D02*
X88253980Y-76756175D01*
X88253980Y-76756175D02*
X88253980Y-76635222D01*
X88253980Y-76635222D02*
X88314456Y-76514270D01*
X88314456Y-76514270D02*
X88374933Y-76453794D01*
X88374933Y-76453794D02*
X88495885Y-76393318D01*
X88495885Y-76393318D02*
X88798266Y-76393318D01*
X88798266Y-76393318D02*
X88979695Y-76453794D01*
X90189219Y-77663318D02*
X89463504Y-77663318D01*
X89826361Y-77663318D02*
X89826361Y-76393318D01*
X89826361Y-76393318D02*
X89705409Y-76574746D01*
X89705409Y-76574746D02*
X89584457Y-76695699D01*
X89584457Y-76695699D02*
X89463504Y-76756175D01*
D10*
X61944866Y-105260419D02*
X61944866Y-105974704D01*
X61944866Y-105974704D02*
X61897247Y-106117561D01*
X61897247Y-106117561D02*
X61802009Y-106212800D01*
X61802009Y-106212800D02*
X61659152Y-106260419D01*
X61659152Y-106260419D02*
X61563914Y-106260419D01*
X62325819Y-105260419D02*
X62944866Y-105260419D01*
X62944866Y-105260419D02*
X62611533Y-105641371D01*
X62611533Y-105641371D02*
X62754390Y-105641371D01*
X62754390Y-105641371D02*
X62849628Y-105688990D01*
X62849628Y-105688990D02*
X62897247Y-105736609D01*
X62897247Y-105736609D02*
X62944866Y-105831847D01*
X62944866Y-105831847D02*
X62944866Y-106069942D01*
X62944866Y-106069942D02*
X62897247Y-106165180D01*
X62897247Y-106165180D02*
X62849628Y-106212800D01*
X62849628Y-106212800D02*
X62754390Y-106260419D01*
X62754390Y-106260419D02*
X62468676Y-106260419D01*
X62468676Y-106260419D02*
X62373438Y-106212800D01*
X62373438Y-106212800D02*
X62325819Y-106165180D01*
X138581419Y-87422333D02*
X139295704Y-87422333D01*
X139295704Y-87422333D02*
X139438561Y-87469952D01*
X139438561Y-87469952D02*
X139533800Y-87565190D01*
X139533800Y-87565190D02*
X139581419Y-87708047D01*
X139581419Y-87708047D02*
X139581419Y-87803285D01*
X139581419Y-86422333D02*
X139581419Y-86993761D01*
X139581419Y-86708047D02*
X138581419Y-86708047D01*
X138581419Y-86708047D02*
X138724276Y-86803285D01*
X138724276Y-86803285D02*
X138819514Y-86898523D01*
X138819514Y-86898523D02*
X138867133Y-86993761D01*
D11*
X126051733Y-78024565D02*
X125991257Y-78085042D01*
X125991257Y-78085042D02*
X125809828Y-78145518D01*
X125809828Y-78145518D02*
X125688876Y-78145518D01*
X125688876Y-78145518D02*
X125507447Y-78085042D01*
X125507447Y-78085042D02*
X125386495Y-77964089D01*
X125386495Y-77964089D02*
X125326018Y-77843137D01*
X125326018Y-77843137D02*
X125265542Y-77601232D01*
X125265542Y-77601232D02*
X125265542Y-77419803D01*
X125265542Y-77419803D02*
X125326018Y-77177899D01*
X125326018Y-77177899D02*
X125386495Y-77056946D01*
X125386495Y-77056946D02*
X125507447Y-76935994D01*
X125507447Y-76935994D02*
X125688876Y-76875518D01*
X125688876Y-76875518D02*
X125809828Y-76875518D01*
X125809828Y-76875518D02*
X125991257Y-76935994D01*
X125991257Y-76935994D02*
X126051733Y-76996470D01*
X127261257Y-78145518D02*
X126535542Y-78145518D01*
X126898399Y-78145518D02*
X126898399Y-76875518D01*
X126898399Y-76875518D02*
X126777447Y-77056946D01*
X126777447Y-77056946D02*
X126656495Y-77177899D01*
X126656495Y-77177899D02*
X126535542Y-77238375D01*
D10*
X133951742Y-63726219D02*
X133618409Y-63250028D01*
X133380314Y-63726219D02*
X133380314Y-62726219D01*
X133380314Y-62726219D02*
X133761266Y-62726219D01*
X133761266Y-62726219D02*
X133856504Y-62773838D01*
X133856504Y-62773838D02*
X133904123Y-62821457D01*
X133904123Y-62821457D02*
X133951742Y-62916695D01*
X133951742Y-62916695D02*
X133951742Y-63059552D01*
X133951742Y-63059552D02*
X133904123Y-63154790D01*
X133904123Y-63154790D02*
X133856504Y-63202409D01*
X133856504Y-63202409D02*
X133761266Y-63250028D01*
X133761266Y-63250028D02*
X133380314Y-63250028D01*
X134332695Y-62821457D02*
X134380314Y-62773838D01*
X134380314Y-62773838D02*
X134475552Y-62726219D01*
X134475552Y-62726219D02*
X134713647Y-62726219D01*
X134713647Y-62726219D02*
X134808885Y-62773838D01*
X134808885Y-62773838D02*
X134856504Y-62821457D01*
X134856504Y-62821457D02*
X134904123Y-62916695D01*
X134904123Y-62916695D02*
X134904123Y-63011933D01*
X134904123Y-63011933D02*
X134856504Y-63154790D01*
X134856504Y-63154790D02*
X134285076Y-63726219D01*
X134285076Y-63726219D02*
X134904123Y-63726219D01*
X135523171Y-62726219D02*
X135618409Y-62726219D01*
X135618409Y-62726219D02*
X135713647Y-62773838D01*
X135713647Y-62773838D02*
X135761266Y-62821457D01*
X135761266Y-62821457D02*
X135808885Y-62916695D01*
X135808885Y-62916695D02*
X135856504Y-63107171D01*
X135856504Y-63107171D02*
X135856504Y-63345266D01*
X135856504Y-63345266D02*
X135808885Y-63535742D01*
X135808885Y-63535742D02*
X135761266Y-63630980D01*
X135761266Y-63630980D02*
X135713647Y-63678600D01*
X135713647Y-63678600D02*
X135618409Y-63726219D01*
X135618409Y-63726219D02*
X135523171Y-63726219D01*
X135523171Y-63726219D02*
X135427933Y-63678600D01*
X135427933Y-63678600D02*
X135380314Y-63630980D01*
X135380314Y-63630980D02*
X135332695Y-63535742D01*
X135332695Y-63535742D02*
X135285076Y-63345266D01*
X135285076Y-63345266D02*
X135285076Y-63107171D01*
X135285076Y-63107171D02*
X135332695Y-62916695D01*
X135332695Y-62916695D02*
X135380314Y-62821457D01*
X135380314Y-62821457D02*
X135427933Y-62773838D01*
X135427933Y-62773838D02*
X135523171Y-62726219D01*
X116647933Y-94771380D02*
X116600314Y-94819000D01*
X116600314Y-94819000D02*
X116457457Y-94866619D01*
X116457457Y-94866619D02*
X116362219Y-94866619D01*
X116362219Y-94866619D02*
X116219362Y-94819000D01*
X116219362Y-94819000D02*
X116124124Y-94723761D01*
X116124124Y-94723761D02*
X116076505Y-94628523D01*
X116076505Y-94628523D02*
X116028886Y-94438047D01*
X116028886Y-94438047D02*
X116028886Y-94295190D01*
X116028886Y-94295190D02*
X116076505Y-94104714D01*
X116076505Y-94104714D02*
X116124124Y-94009476D01*
X116124124Y-94009476D02*
X116219362Y-93914238D01*
X116219362Y-93914238D02*
X116362219Y-93866619D01*
X116362219Y-93866619D02*
X116457457Y-93866619D01*
X116457457Y-93866619D02*
X116600314Y-93914238D01*
X116600314Y-93914238D02*
X116647933Y-93961857D01*
X117552695Y-93866619D02*
X117076505Y-93866619D01*
X117076505Y-93866619D02*
X117028886Y-94342809D01*
X117028886Y-94342809D02*
X117076505Y-94295190D01*
X117076505Y-94295190D02*
X117171743Y-94247571D01*
X117171743Y-94247571D02*
X117409838Y-94247571D01*
X117409838Y-94247571D02*
X117505076Y-94295190D01*
X117505076Y-94295190D02*
X117552695Y-94342809D01*
X117552695Y-94342809D02*
X117600314Y-94438047D01*
X117600314Y-94438047D02*
X117600314Y-94676142D01*
X117600314Y-94676142D02*
X117552695Y-94771380D01*
X117552695Y-94771380D02*
X117505076Y-94819000D01*
X117505076Y-94819000D02*
X117409838Y-94866619D01*
X117409838Y-94866619D02*
X117171743Y-94866619D01*
X117171743Y-94866619D02*
X117076505Y-94819000D01*
X117076505Y-94819000D02*
X117028886Y-94771380D01*
X80529133Y-74394219D02*
X80195800Y-73918028D01*
X79957705Y-74394219D02*
X79957705Y-73394219D01*
X79957705Y-73394219D02*
X80338657Y-73394219D01*
X80338657Y-73394219D02*
X80433895Y-73441838D01*
X80433895Y-73441838D02*
X80481514Y-73489457D01*
X80481514Y-73489457D02*
X80529133Y-73584695D01*
X80529133Y-73584695D02*
X80529133Y-73727552D01*
X80529133Y-73727552D02*
X80481514Y-73822790D01*
X80481514Y-73822790D02*
X80433895Y-73870409D01*
X80433895Y-73870409D02*
X80338657Y-73918028D01*
X80338657Y-73918028D02*
X79957705Y-73918028D01*
X80910086Y-73489457D02*
X80957705Y-73441838D01*
X80957705Y-73441838D02*
X81052943Y-73394219D01*
X81052943Y-73394219D02*
X81291038Y-73394219D01*
X81291038Y-73394219D02*
X81386276Y-73441838D01*
X81386276Y-73441838D02*
X81433895Y-73489457D01*
X81433895Y-73489457D02*
X81481514Y-73584695D01*
X81481514Y-73584695D02*
X81481514Y-73679933D01*
X81481514Y-73679933D02*
X81433895Y-73822790D01*
X81433895Y-73822790D02*
X80862467Y-74394219D01*
X80862467Y-74394219D02*
X81481514Y-74394219D01*
X107884933Y-78286780D02*
X107837314Y-78334400D01*
X107837314Y-78334400D02*
X107694457Y-78382019D01*
X107694457Y-78382019D02*
X107599219Y-78382019D01*
X107599219Y-78382019D02*
X107456362Y-78334400D01*
X107456362Y-78334400D02*
X107361124Y-78239161D01*
X107361124Y-78239161D02*
X107313505Y-78143923D01*
X107313505Y-78143923D02*
X107265886Y-77953447D01*
X107265886Y-77953447D02*
X107265886Y-77810590D01*
X107265886Y-77810590D02*
X107313505Y-77620114D01*
X107313505Y-77620114D02*
X107361124Y-77524876D01*
X107361124Y-77524876D02*
X107456362Y-77429638D01*
X107456362Y-77429638D02*
X107599219Y-77382019D01*
X107599219Y-77382019D02*
X107694457Y-77382019D01*
X107694457Y-77382019D02*
X107837314Y-77429638D01*
X107837314Y-77429638D02*
X107884933Y-77477257D01*
X108456362Y-77810590D02*
X108361124Y-77762971D01*
X108361124Y-77762971D02*
X108313505Y-77715352D01*
X108313505Y-77715352D02*
X108265886Y-77620114D01*
X108265886Y-77620114D02*
X108265886Y-77572495D01*
X108265886Y-77572495D02*
X108313505Y-77477257D01*
X108313505Y-77477257D02*
X108361124Y-77429638D01*
X108361124Y-77429638D02*
X108456362Y-77382019D01*
X108456362Y-77382019D02*
X108646838Y-77382019D01*
X108646838Y-77382019D02*
X108742076Y-77429638D01*
X108742076Y-77429638D02*
X108789695Y-77477257D01*
X108789695Y-77477257D02*
X108837314Y-77572495D01*
X108837314Y-77572495D02*
X108837314Y-77620114D01*
X108837314Y-77620114D02*
X108789695Y-77715352D01*
X108789695Y-77715352D02*
X108742076Y-77762971D01*
X108742076Y-77762971D02*
X108646838Y-77810590D01*
X108646838Y-77810590D02*
X108456362Y-77810590D01*
X108456362Y-77810590D02*
X108361124Y-77858209D01*
X108361124Y-77858209D02*
X108313505Y-77905828D01*
X108313505Y-77905828D02*
X108265886Y-78001066D01*
X108265886Y-78001066D02*
X108265886Y-78191542D01*
X108265886Y-78191542D02*
X108313505Y-78286780D01*
X108313505Y-78286780D02*
X108361124Y-78334400D01*
X108361124Y-78334400D02*
X108456362Y-78382019D01*
X108456362Y-78382019D02*
X108646838Y-78382019D01*
X108646838Y-78382019D02*
X108742076Y-78334400D01*
X108742076Y-78334400D02*
X108789695Y-78286780D01*
X108789695Y-78286780D02*
X108837314Y-78191542D01*
X108837314Y-78191542D02*
X108837314Y-78001066D01*
X108837314Y-78001066D02*
X108789695Y-77905828D01*
X108789695Y-77905828D02*
X108742076Y-77858209D01*
X108742076Y-77858209D02*
X108646838Y-77810590D01*
X86452142Y-50704180D02*
X86404523Y-50751800D01*
X86404523Y-50751800D02*
X86261666Y-50799419D01*
X86261666Y-50799419D02*
X86166428Y-50799419D01*
X86166428Y-50799419D02*
X86023571Y-50751800D01*
X86023571Y-50751800D02*
X85928333Y-50656561D01*
X85928333Y-50656561D02*
X85880714Y-50561323D01*
X85880714Y-50561323D02*
X85833095Y-50370847D01*
X85833095Y-50370847D02*
X85833095Y-50227990D01*
X85833095Y-50227990D02*
X85880714Y-50037514D01*
X85880714Y-50037514D02*
X85928333Y-49942276D01*
X85928333Y-49942276D02*
X86023571Y-49847038D01*
X86023571Y-49847038D02*
X86166428Y-49799419D01*
X86166428Y-49799419D02*
X86261666Y-49799419D01*
X86261666Y-49799419D02*
X86404523Y-49847038D01*
X86404523Y-49847038D02*
X86452142Y-49894657D01*
X87404523Y-50799419D02*
X86833095Y-50799419D01*
X87118809Y-50799419D02*
X87118809Y-49799419D01*
X87118809Y-49799419D02*
X87023571Y-49942276D01*
X87023571Y-49942276D02*
X86928333Y-50037514D01*
X86928333Y-50037514D02*
X86833095Y-50085133D01*
X87737857Y-49799419D02*
X88356904Y-49799419D01*
X88356904Y-49799419D02*
X88023571Y-50180371D01*
X88023571Y-50180371D02*
X88166428Y-50180371D01*
X88166428Y-50180371D02*
X88261666Y-50227990D01*
X88261666Y-50227990D02*
X88309285Y-50275609D01*
X88309285Y-50275609D02*
X88356904Y-50370847D01*
X88356904Y-50370847D02*
X88356904Y-50608942D01*
X88356904Y-50608942D02*
X88309285Y-50704180D01*
X88309285Y-50704180D02*
X88261666Y-50751800D01*
X88261666Y-50751800D02*
X88166428Y-50799419D01*
X88166428Y-50799419D02*
X87880714Y-50799419D01*
X87880714Y-50799419D02*
X87785476Y-50751800D01*
X87785476Y-50751800D02*
X87737857Y-50704180D01*
X134436019Y-87263266D02*
X133959828Y-87596599D01*
X134436019Y-87834694D02*
X133436019Y-87834694D01*
X133436019Y-87834694D02*
X133436019Y-87453742D01*
X133436019Y-87453742D02*
X133483638Y-87358504D01*
X133483638Y-87358504D02*
X133531257Y-87310885D01*
X133531257Y-87310885D02*
X133626495Y-87263266D01*
X133626495Y-87263266D02*
X133769352Y-87263266D01*
X133769352Y-87263266D02*
X133864590Y-87310885D01*
X133864590Y-87310885D02*
X133912209Y-87358504D01*
X133912209Y-87358504D02*
X133959828Y-87453742D01*
X133959828Y-87453742D02*
X133959828Y-87834694D01*
X133864590Y-86691837D02*
X133816971Y-86787075D01*
X133816971Y-86787075D02*
X133769352Y-86834694D01*
X133769352Y-86834694D02*
X133674114Y-86882313D01*
X133674114Y-86882313D02*
X133626495Y-86882313D01*
X133626495Y-86882313D02*
X133531257Y-86834694D01*
X133531257Y-86834694D02*
X133483638Y-86787075D01*
X133483638Y-86787075D02*
X133436019Y-86691837D01*
X133436019Y-86691837D02*
X133436019Y-86501361D01*
X133436019Y-86501361D02*
X133483638Y-86406123D01*
X133483638Y-86406123D02*
X133531257Y-86358504D01*
X133531257Y-86358504D02*
X133626495Y-86310885D01*
X133626495Y-86310885D02*
X133674114Y-86310885D01*
X133674114Y-86310885D02*
X133769352Y-86358504D01*
X133769352Y-86358504D02*
X133816971Y-86406123D01*
X133816971Y-86406123D02*
X133864590Y-86501361D01*
X133864590Y-86501361D02*
X133864590Y-86691837D01*
X133864590Y-86691837D02*
X133912209Y-86787075D01*
X133912209Y-86787075D02*
X133959828Y-86834694D01*
X133959828Y-86834694D02*
X134055066Y-86882313D01*
X134055066Y-86882313D02*
X134245542Y-86882313D01*
X134245542Y-86882313D02*
X134340780Y-86834694D01*
X134340780Y-86834694D02*
X134388400Y-86787075D01*
X134388400Y-86787075D02*
X134436019Y-86691837D01*
X134436019Y-86691837D02*
X134436019Y-86501361D01*
X134436019Y-86501361D02*
X134388400Y-86406123D01*
X134388400Y-86406123D02*
X134340780Y-86358504D01*
X134340780Y-86358504D02*
X134245542Y-86310885D01*
X134245542Y-86310885D02*
X134055066Y-86310885D01*
X134055066Y-86310885D02*
X133959828Y-86358504D01*
X133959828Y-86358504D02*
X133912209Y-86406123D01*
X133912209Y-86406123D02*
X133864590Y-86501361D01*
D11*
X113574837Y-45151318D02*
X113574837Y-43881318D01*
X114905314Y-45030365D02*
X114844838Y-45090842D01*
X114844838Y-45090842D02*
X114663409Y-45151318D01*
X114663409Y-45151318D02*
X114542457Y-45151318D01*
X114542457Y-45151318D02*
X114361028Y-45090842D01*
X114361028Y-45090842D02*
X114240076Y-44969889D01*
X114240076Y-44969889D02*
X114179599Y-44848937D01*
X114179599Y-44848937D02*
X114119123Y-44607032D01*
X114119123Y-44607032D02*
X114119123Y-44425603D01*
X114119123Y-44425603D02*
X114179599Y-44183699D01*
X114179599Y-44183699D02*
X114240076Y-44062746D01*
X114240076Y-44062746D02*
X114361028Y-43941794D01*
X114361028Y-43941794D02*
X114542457Y-43881318D01*
X114542457Y-43881318D02*
X114663409Y-43881318D01*
X114663409Y-43881318D02*
X114844838Y-43941794D01*
X114844838Y-43941794D02*
X114905314Y-44002270D01*
X115389123Y-44002270D02*
X115449599Y-43941794D01*
X115449599Y-43941794D02*
X115570552Y-43881318D01*
X115570552Y-43881318D02*
X115872933Y-43881318D01*
X115872933Y-43881318D02*
X115993885Y-43941794D01*
X115993885Y-43941794D02*
X116054361Y-44002270D01*
X116054361Y-44002270D02*
X116114838Y-44123222D01*
X116114838Y-44123222D02*
X116114838Y-44244175D01*
X116114838Y-44244175D02*
X116054361Y-44425603D01*
X116054361Y-44425603D02*
X115328647Y-45151318D01*
X115328647Y-45151318D02*
X116114838Y-45151318D01*
D10*
X84108342Y-78117619D02*
X83775009Y-77641428D01*
X83536914Y-78117619D02*
X83536914Y-77117619D01*
X83536914Y-77117619D02*
X83917866Y-77117619D01*
X83917866Y-77117619D02*
X84013104Y-77165238D01*
X84013104Y-77165238D02*
X84060723Y-77212857D01*
X84060723Y-77212857D02*
X84108342Y-77308095D01*
X84108342Y-77308095D02*
X84108342Y-77450952D01*
X84108342Y-77450952D02*
X84060723Y-77546190D01*
X84060723Y-77546190D02*
X84013104Y-77593809D01*
X84013104Y-77593809D02*
X83917866Y-77641428D01*
X83917866Y-77641428D02*
X83536914Y-77641428D01*
X85060723Y-78117619D02*
X84489295Y-78117619D01*
X84775009Y-78117619D02*
X84775009Y-77117619D01*
X84775009Y-77117619D02*
X84679771Y-77260476D01*
X84679771Y-77260476D02*
X84584533Y-77355714D01*
X84584533Y-77355714D02*
X84489295Y-77403333D01*
X85536914Y-78117619D02*
X85727390Y-78117619D01*
X85727390Y-78117619D02*
X85822628Y-78070000D01*
X85822628Y-78070000D02*
X85870247Y-78022380D01*
X85870247Y-78022380D02*
X85965485Y-77879523D01*
X85965485Y-77879523D02*
X86013104Y-77689047D01*
X86013104Y-77689047D02*
X86013104Y-77308095D01*
X86013104Y-77308095D02*
X85965485Y-77212857D01*
X85965485Y-77212857D02*
X85917866Y-77165238D01*
X85917866Y-77165238D02*
X85822628Y-77117619D01*
X85822628Y-77117619D02*
X85632152Y-77117619D01*
X85632152Y-77117619D02*
X85536914Y-77165238D01*
X85536914Y-77165238D02*
X85489295Y-77212857D01*
X85489295Y-77212857D02*
X85441676Y-77308095D01*
X85441676Y-77308095D02*
X85441676Y-77546190D01*
X85441676Y-77546190D02*
X85489295Y-77641428D01*
X85489295Y-77641428D02*
X85536914Y-77689047D01*
X85536914Y-77689047D02*
X85632152Y-77736666D01*
X85632152Y-77736666D02*
X85822628Y-77736666D01*
X85822628Y-77736666D02*
X85917866Y-77689047D01*
X85917866Y-77689047D02*
X85965485Y-77641428D01*
X85965485Y-77641428D02*
X86013104Y-77546190D01*
D11*
X45275718Y-85468181D02*
X44005718Y-85468181D01*
X45275718Y-84742466D02*
X44550003Y-85286752D01*
X44005718Y-84742466D02*
X44731432Y-85468181D01*
X45275718Y-83532942D02*
X45275718Y-84258657D01*
X45275718Y-83895800D02*
X44005718Y-83895800D01*
X44005718Y-83895800D02*
X44187146Y-84016752D01*
X44187146Y-84016752D02*
X44308099Y-84137704D01*
X44308099Y-84137704D02*
X44368575Y-84258657D01*
D10*
X126960333Y-105039219D02*
X126627000Y-104563028D01*
X126388905Y-105039219D02*
X126388905Y-104039219D01*
X126388905Y-104039219D02*
X126769857Y-104039219D01*
X126769857Y-104039219D02*
X126865095Y-104086838D01*
X126865095Y-104086838D02*
X126912714Y-104134457D01*
X126912714Y-104134457D02*
X126960333Y-104229695D01*
X126960333Y-104229695D02*
X126960333Y-104372552D01*
X126960333Y-104372552D02*
X126912714Y-104467790D01*
X126912714Y-104467790D02*
X126865095Y-104515409D01*
X126865095Y-104515409D02*
X126769857Y-104563028D01*
X126769857Y-104563028D02*
X126388905Y-104563028D01*
X127293667Y-104039219D02*
X127960333Y-104039219D01*
X127960333Y-104039219D02*
X127531762Y-105039219D01*
X100404780Y-75699857D02*
X100452400Y-75747476D01*
X100452400Y-75747476D02*
X100500019Y-75890333D01*
X100500019Y-75890333D02*
X100500019Y-75985571D01*
X100500019Y-75985571D02*
X100452400Y-76128428D01*
X100452400Y-76128428D02*
X100357161Y-76223666D01*
X100357161Y-76223666D02*
X100261923Y-76271285D01*
X100261923Y-76271285D02*
X100071447Y-76318904D01*
X100071447Y-76318904D02*
X99928590Y-76318904D01*
X99928590Y-76318904D02*
X99738114Y-76271285D01*
X99738114Y-76271285D02*
X99642876Y-76223666D01*
X99642876Y-76223666D02*
X99547638Y-76128428D01*
X99547638Y-76128428D02*
X99500019Y-75985571D01*
X99500019Y-75985571D02*
X99500019Y-75890333D01*
X99500019Y-75890333D02*
X99547638Y-75747476D01*
X99547638Y-75747476D02*
X99595257Y-75699857D01*
X100500019Y-74747476D02*
X100500019Y-75318904D01*
X100500019Y-75033190D02*
X99500019Y-75033190D01*
X99500019Y-75033190D02*
X99642876Y-75128428D01*
X99642876Y-75128428D02*
X99738114Y-75223666D01*
X99738114Y-75223666D02*
X99785733Y-75318904D01*
X99500019Y-73890333D02*
X99500019Y-74080809D01*
X99500019Y-74080809D02*
X99547638Y-74176047D01*
X99547638Y-74176047D02*
X99595257Y-74223666D01*
X99595257Y-74223666D02*
X99738114Y-74318904D01*
X99738114Y-74318904D02*
X99928590Y-74366523D01*
X99928590Y-74366523D02*
X100309542Y-74366523D01*
X100309542Y-74366523D02*
X100404780Y-74318904D01*
X100404780Y-74318904D02*
X100452400Y-74271285D01*
X100452400Y-74271285D02*
X100500019Y-74176047D01*
X100500019Y-74176047D02*
X100500019Y-73985571D01*
X100500019Y-73985571D02*
X100452400Y-73890333D01*
X100452400Y-73890333D02*
X100404780Y-73842714D01*
X100404780Y-73842714D02*
X100309542Y-73795095D01*
X100309542Y-73795095D02*
X100071447Y-73795095D01*
X100071447Y-73795095D02*
X99976209Y-73842714D01*
X99976209Y-73842714D02*
X99928590Y-73890333D01*
X99928590Y-73890333D02*
X99880971Y-73985571D01*
X99880971Y-73985571D02*
X99880971Y-74176047D01*
X99880971Y-74176047D02*
X99928590Y-74271285D01*
X99928590Y-74271285D02*
X99976209Y-74318904D01*
X99976209Y-74318904D02*
X100071447Y-74366523D01*
X99337942Y-60528019D02*
X99004609Y-60051828D01*
X98766514Y-60528019D02*
X98766514Y-59528019D01*
X98766514Y-59528019D02*
X99147466Y-59528019D01*
X99147466Y-59528019D02*
X99242704Y-59575638D01*
X99242704Y-59575638D02*
X99290323Y-59623257D01*
X99290323Y-59623257D02*
X99337942Y-59718495D01*
X99337942Y-59718495D02*
X99337942Y-59861352D01*
X99337942Y-59861352D02*
X99290323Y-59956590D01*
X99290323Y-59956590D02*
X99242704Y-60004209D01*
X99242704Y-60004209D02*
X99147466Y-60051828D01*
X99147466Y-60051828D02*
X98766514Y-60051828D01*
X100290323Y-60528019D02*
X99718895Y-60528019D01*
X100004609Y-60528019D02*
X100004609Y-59528019D01*
X100004609Y-59528019D02*
X99909371Y-59670876D01*
X99909371Y-59670876D02*
X99814133Y-59766114D01*
X99814133Y-59766114D02*
X99718895Y-59813733D01*
X101147466Y-59528019D02*
X100956990Y-59528019D01*
X100956990Y-59528019D02*
X100861752Y-59575638D01*
X100861752Y-59575638D02*
X100814133Y-59623257D01*
X100814133Y-59623257D02*
X100718895Y-59766114D01*
X100718895Y-59766114D02*
X100671276Y-59956590D01*
X100671276Y-59956590D02*
X100671276Y-60337542D01*
X100671276Y-60337542D02*
X100718895Y-60432780D01*
X100718895Y-60432780D02*
X100766514Y-60480400D01*
X100766514Y-60480400D02*
X100861752Y-60528019D01*
X100861752Y-60528019D02*
X101052228Y-60528019D01*
X101052228Y-60528019D02*
X101147466Y-60480400D01*
X101147466Y-60480400D02*
X101195085Y-60432780D01*
X101195085Y-60432780D02*
X101242704Y-60337542D01*
X101242704Y-60337542D02*
X101242704Y-60099447D01*
X101242704Y-60099447D02*
X101195085Y-60004209D01*
X101195085Y-60004209D02*
X101147466Y-59956590D01*
X101147466Y-59956590D02*
X101052228Y-59908971D01*
X101052228Y-59908971D02*
X100861752Y-59908971D01*
X100861752Y-59908971D02*
X100766514Y-59956590D01*
X100766514Y-59956590D02*
X100718895Y-60004209D01*
X100718895Y-60004209D02*
X100671276Y-60099447D01*
X135559619Y-95511866D02*
X135083428Y-95845199D01*
X135559619Y-96083294D02*
X134559619Y-96083294D01*
X134559619Y-96083294D02*
X134559619Y-95702342D01*
X134559619Y-95702342D02*
X134607238Y-95607104D01*
X134607238Y-95607104D02*
X134654857Y-95559485D01*
X134654857Y-95559485D02*
X134750095Y-95511866D01*
X134750095Y-95511866D02*
X134892952Y-95511866D01*
X134892952Y-95511866D02*
X134988190Y-95559485D01*
X134988190Y-95559485D02*
X135035809Y-95607104D01*
X135035809Y-95607104D02*
X135083428Y-95702342D01*
X135083428Y-95702342D02*
X135083428Y-96083294D01*
X135559619Y-95035675D02*
X135559619Y-94845199D01*
X135559619Y-94845199D02*
X135512000Y-94749961D01*
X135512000Y-94749961D02*
X135464380Y-94702342D01*
X135464380Y-94702342D02*
X135321523Y-94607104D01*
X135321523Y-94607104D02*
X135131047Y-94559485D01*
X135131047Y-94559485D02*
X134750095Y-94559485D01*
X134750095Y-94559485D02*
X134654857Y-94607104D01*
X134654857Y-94607104D02*
X134607238Y-94654723D01*
X134607238Y-94654723D02*
X134559619Y-94749961D01*
X134559619Y-94749961D02*
X134559619Y-94940437D01*
X134559619Y-94940437D02*
X134607238Y-95035675D01*
X134607238Y-95035675D02*
X134654857Y-95083294D01*
X134654857Y-95083294D02*
X134750095Y-95130913D01*
X134750095Y-95130913D02*
X134988190Y-95130913D01*
X134988190Y-95130913D02*
X135083428Y-95083294D01*
X135083428Y-95083294D02*
X135131047Y-95035675D01*
X135131047Y-95035675D02*
X135178666Y-94940437D01*
X135178666Y-94940437D02*
X135178666Y-94749961D01*
X135178666Y-94749961D02*
X135131047Y-94654723D01*
X135131047Y-94654723D02*
X135083428Y-94607104D01*
X135083428Y-94607104D02*
X134988190Y-94559485D01*
X128020733Y-55113419D02*
X127687400Y-54637228D01*
X127449305Y-55113419D02*
X127449305Y-54113419D01*
X127449305Y-54113419D02*
X127830257Y-54113419D01*
X127830257Y-54113419D02*
X127925495Y-54161038D01*
X127925495Y-54161038D02*
X127973114Y-54208657D01*
X127973114Y-54208657D02*
X128020733Y-54303895D01*
X128020733Y-54303895D02*
X128020733Y-54446752D01*
X128020733Y-54446752D02*
X127973114Y-54541990D01*
X127973114Y-54541990D02*
X127925495Y-54589609D01*
X127925495Y-54589609D02*
X127830257Y-54637228D01*
X127830257Y-54637228D02*
X127449305Y-54637228D01*
X128877876Y-54446752D02*
X128877876Y-55113419D01*
X128639781Y-54065800D02*
X128401686Y-54780085D01*
X128401686Y-54780085D02*
X129020733Y-54780085D01*
X110575333Y-90351780D02*
X110527714Y-90399400D01*
X110527714Y-90399400D02*
X110384857Y-90447019D01*
X110384857Y-90447019D02*
X110289619Y-90447019D01*
X110289619Y-90447019D02*
X110146762Y-90399400D01*
X110146762Y-90399400D02*
X110051524Y-90304161D01*
X110051524Y-90304161D02*
X110003905Y-90208923D01*
X110003905Y-90208923D02*
X109956286Y-90018447D01*
X109956286Y-90018447D02*
X109956286Y-89875590D01*
X109956286Y-89875590D02*
X110003905Y-89685114D01*
X110003905Y-89685114D02*
X110051524Y-89589876D01*
X110051524Y-89589876D02*
X110146762Y-89494638D01*
X110146762Y-89494638D02*
X110289619Y-89447019D01*
X110289619Y-89447019D02*
X110384857Y-89447019D01*
X110384857Y-89447019D02*
X110527714Y-89494638D01*
X110527714Y-89494638D02*
X110575333Y-89542257D01*
X111051524Y-90447019D02*
X111242000Y-90447019D01*
X111242000Y-90447019D02*
X111337238Y-90399400D01*
X111337238Y-90399400D02*
X111384857Y-90351780D01*
X111384857Y-90351780D02*
X111480095Y-90208923D01*
X111480095Y-90208923D02*
X111527714Y-90018447D01*
X111527714Y-90018447D02*
X111527714Y-89637495D01*
X111527714Y-89637495D02*
X111480095Y-89542257D01*
X111480095Y-89542257D02*
X111432476Y-89494638D01*
X111432476Y-89494638D02*
X111337238Y-89447019D01*
X111337238Y-89447019D02*
X111146762Y-89447019D01*
X111146762Y-89447019D02*
X111051524Y-89494638D01*
X111051524Y-89494638D02*
X111003905Y-89542257D01*
X111003905Y-89542257D02*
X110956286Y-89637495D01*
X110956286Y-89637495D02*
X110956286Y-89875590D01*
X110956286Y-89875590D02*
X111003905Y-89970828D01*
X111003905Y-89970828D02*
X111051524Y-90018447D01*
X111051524Y-90018447D02*
X111146762Y-90066066D01*
X111146762Y-90066066D02*
X111337238Y-90066066D01*
X111337238Y-90066066D02*
X111432476Y-90018447D01*
X111432476Y-90018447D02*
X111480095Y-89970828D01*
X111480095Y-89970828D02*
X111527714Y-89875590D01*
X42088019Y-92440933D02*
X42802304Y-92440933D01*
X42802304Y-92440933D02*
X42945161Y-92488552D01*
X42945161Y-92488552D02*
X43040400Y-92583790D01*
X43040400Y-92583790D02*
X43088019Y-92726647D01*
X43088019Y-92726647D02*
X43088019Y-92821885D01*
X42088019Y-91488552D02*
X42088019Y-91964742D01*
X42088019Y-91964742D02*
X42564209Y-92012361D01*
X42564209Y-92012361D02*
X42516590Y-91964742D01*
X42516590Y-91964742D02*
X42468971Y-91869504D01*
X42468971Y-91869504D02*
X42468971Y-91631409D01*
X42468971Y-91631409D02*
X42516590Y-91536171D01*
X42516590Y-91536171D02*
X42564209Y-91488552D01*
X42564209Y-91488552D02*
X42659447Y-91440933D01*
X42659447Y-91440933D02*
X42897542Y-91440933D01*
X42897542Y-91440933D02*
X42992780Y-91488552D01*
X42992780Y-91488552D02*
X43040400Y-91536171D01*
X43040400Y-91536171D02*
X43088019Y-91631409D01*
X43088019Y-91631409D02*
X43088019Y-91869504D01*
X43088019Y-91869504D02*
X43040400Y-91964742D01*
X43040400Y-91964742D02*
X42992780Y-92012361D01*
X110433342Y-105204419D02*
X110100009Y-104728228D01*
X109861914Y-105204419D02*
X109861914Y-104204419D01*
X109861914Y-104204419D02*
X110242866Y-104204419D01*
X110242866Y-104204419D02*
X110338104Y-104252038D01*
X110338104Y-104252038D02*
X110385723Y-104299657D01*
X110385723Y-104299657D02*
X110433342Y-104394895D01*
X110433342Y-104394895D02*
X110433342Y-104537752D01*
X110433342Y-104537752D02*
X110385723Y-104632990D01*
X110385723Y-104632990D02*
X110338104Y-104680609D01*
X110338104Y-104680609D02*
X110242866Y-104728228D01*
X110242866Y-104728228D02*
X109861914Y-104728228D01*
X111385723Y-105204419D02*
X110814295Y-105204419D01*
X111100009Y-105204419D02*
X111100009Y-104204419D01*
X111100009Y-104204419D02*
X111004771Y-104347276D01*
X111004771Y-104347276D02*
X110909533Y-104442514D01*
X110909533Y-104442514D02*
X110814295Y-104490133D01*
X111719057Y-104204419D02*
X112338104Y-104204419D01*
X112338104Y-104204419D02*
X112004771Y-104585371D01*
X112004771Y-104585371D02*
X112147628Y-104585371D01*
X112147628Y-104585371D02*
X112242866Y-104632990D01*
X112242866Y-104632990D02*
X112290485Y-104680609D01*
X112290485Y-104680609D02*
X112338104Y-104775847D01*
X112338104Y-104775847D02*
X112338104Y-105013942D01*
X112338104Y-105013942D02*
X112290485Y-105109180D01*
X112290485Y-105109180D02*
X112242866Y-105156800D01*
X112242866Y-105156800D02*
X112147628Y-105204419D01*
X112147628Y-105204419D02*
X111861914Y-105204419D01*
X111861914Y-105204419D02*
X111766676Y-105156800D01*
X111766676Y-105156800D02*
X111719057Y-105109180D01*
X104718019Y-100515657D02*
X104241828Y-100848990D01*
X104718019Y-101087085D02*
X103718019Y-101087085D01*
X103718019Y-101087085D02*
X103718019Y-100706133D01*
X103718019Y-100706133D02*
X103765638Y-100610895D01*
X103765638Y-100610895D02*
X103813257Y-100563276D01*
X103813257Y-100563276D02*
X103908495Y-100515657D01*
X103908495Y-100515657D02*
X104051352Y-100515657D01*
X104051352Y-100515657D02*
X104146590Y-100563276D01*
X104146590Y-100563276D02*
X104194209Y-100610895D01*
X104194209Y-100610895D02*
X104241828Y-100706133D01*
X104241828Y-100706133D02*
X104241828Y-101087085D01*
X104718019Y-99563276D02*
X104718019Y-100134704D01*
X104718019Y-99848990D02*
X103718019Y-99848990D01*
X103718019Y-99848990D02*
X103860876Y-99944228D01*
X103860876Y-99944228D02*
X103956114Y-100039466D01*
X103956114Y-100039466D02*
X104003733Y-100134704D01*
X104051352Y-98706133D02*
X104718019Y-98706133D01*
X103670400Y-98944228D02*
X104384685Y-99182323D01*
X104384685Y-99182323D02*
X104384685Y-98563276D01*
X86350542Y-44025380D02*
X86302923Y-44073000D01*
X86302923Y-44073000D02*
X86160066Y-44120619D01*
X86160066Y-44120619D02*
X86064828Y-44120619D01*
X86064828Y-44120619D02*
X85921971Y-44073000D01*
X85921971Y-44073000D02*
X85826733Y-43977761D01*
X85826733Y-43977761D02*
X85779114Y-43882523D01*
X85779114Y-43882523D02*
X85731495Y-43692047D01*
X85731495Y-43692047D02*
X85731495Y-43549190D01*
X85731495Y-43549190D02*
X85779114Y-43358714D01*
X85779114Y-43358714D02*
X85826733Y-43263476D01*
X85826733Y-43263476D02*
X85921971Y-43168238D01*
X85921971Y-43168238D02*
X86064828Y-43120619D01*
X86064828Y-43120619D02*
X86160066Y-43120619D01*
X86160066Y-43120619D02*
X86302923Y-43168238D01*
X86302923Y-43168238D02*
X86350542Y-43215857D01*
X87302923Y-44120619D02*
X86731495Y-44120619D01*
X87017209Y-44120619D02*
X87017209Y-43120619D01*
X87017209Y-43120619D02*
X86921971Y-43263476D01*
X86921971Y-43263476D02*
X86826733Y-43358714D01*
X86826733Y-43358714D02*
X86731495Y-43406333D01*
X88160066Y-43453952D02*
X88160066Y-44120619D01*
X87921971Y-43073000D02*
X87683876Y-43787285D01*
X87683876Y-43787285D02*
X88302923Y-43787285D01*
D11*
X124502333Y-83358965D02*
X124441857Y-83419442D01*
X124441857Y-83419442D02*
X124260428Y-83479918D01*
X124260428Y-83479918D02*
X124139476Y-83479918D01*
X124139476Y-83479918D02*
X123958047Y-83419442D01*
X123958047Y-83419442D02*
X123837095Y-83298489D01*
X123837095Y-83298489D02*
X123776618Y-83177537D01*
X123776618Y-83177537D02*
X123716142Y-82935632D01*
X123716142Y-82935632D02*
X123716142Y-82754203D01*
X123716142Y-82754203D02*
X123776618Y-82512299D01*
X123776618Y-82512299D02*
X123837095Y-82391346D01*
X123837095Y-82391346D02*
X123958047Y-82270394D01*
X123958047Y-82270394D02*
X124139476Y-82209918D01*
X124139476Y-82209918D02*
X124260428Y-82209918D01*
X124260428Y-82209918D02*
X124441857Y-82270394D01*
X124441857Y-82270394D02*
X124502333Y-82330870D01*
X124925666Y-82209918D02*
X125711857Y-82209918D01*
X125711857Y-82209918D02*
X125288523Y-82693727D01*
X125288523Y-82693727D02*
X125469952Y-82693727D01*
X125469952Y-82693727D02*
X125590904Y-82754203D01*
X125590904Y-82754203D02*
X125651380Y-82814680D01*
X125651380Y-82814680D02*
X125711857Y-82935632D01*
X125711857Y-82935632D02*
X125711857Y-83238013D01*
X125711857Y-83238013D02*
X125651380Y-83358965D01*
X125651380Y-83358965D02*
X125590904Y-83419442D01*
X125590904Y-83419442D02*
X125469952Y-83479918D01*
X125469952Y-83479918D02*
X125107095Y-83479918D01*
X125107095Y-83479918D02*
X124986142Y-83419442D01*
X124986142Y-83419442D02*
X124925666Y-83358965D01*
X128071637Y-76164718D02*
X128071637Y-74894718D01*
X129402114Y-76043765D02*
X129341638Y-76104242D01*
X129341638Y-76104242D02*
X129160209Y-76164718D01*
X129160209Y-76164718D02*
X129039257Y-76164718D01*
X129039257Y-76164718D02*
X128857828Y-76104242D01*
X128857828Y-76104242D02*
X128736876Y-75983289D01*
X128736876Y-75983289D02*
X128676399Y-75862337D01*
X128676399Y-75862337D02*
X128615923Y-75620432D01*
X128615923Y-75620432D02*
X128615923Y-75439003D01*
X128615923Y-75439003D02*
X128676399Y-75197099D01*
X128676399Y-75197099D02*
X128736876Y-75076146D01*
X128736876Y-75076146D02*
X128857828Y-74955194D01*
X128857828Y-74955194D02*
X129039257Y-74894718D01*
X129039257Y-74894718D02*
X129160209Y-74894718D01*
X129160209Y-74894718D02*
X129341638Y-74955194D01*
X129341638Y-74955194D02*
X129402114Y-75015670D01*
X130490685Y-75318051D02*
X130490685Y-76164718D01*
X130188304Y-74834242D02*
X129885923Y-75741384D01*
X129885923Y-75741384D02*
X130672114Y-75741384D01*
D10*
X61911866Y-67947419D02*
X61911866Y-68661704D01*
X61911866Y-68661704D02*
X61864247Y-68804561D01*
X61864247Y-68804561D02*
X61769009Y-68899800D01*
X61769009Y-68899800D02*
X61626152Y-68947419D01*
X61626152Y-68947419D02*
X61530914Y-68947419D01*
X62816628Y-68280752D02*
X62816628Y-68947419D01*
X62578533Y-67899800D02*
X62340438Y-68614085D01*
X62340438Y-68614085D02*
X62959485Y-68614085D01*
X133882142Y-56015180D02*
X133834523Y-56062800D01*
X133834523Y-56062800D02*
X133691666Y-56110419D01*
X133691666Y-56110419D02*
X133596428Y-56110419D01*
X133596428Y-56110419D02*
X133453571Y-56062800D01*
X133453571Y-56062800D02*
X133358333Y-55967561D01*
X133358333Y-55967561D02*
X133310714Y-55872323D01*
X133310714Y-55872323D02*
X133263095Y-55681847D01*
X133263095Y-55681847D02*
X133263095Y-55538990D01*
X133263095Y-55538990D02*
X133310714Y-55348514D01*
X133310714Y-55348514D02*
X133358333Y-55253276D01*
X133358333Y-55253276D02*
X133453571Y-55158038D01*
X133453571Y-55158038D02*
X133596428Y-55110419D01*
X133596428Y-55110419D02*
X133691666Y-55110419D01*
X133691666Y-55110419D02*
X133834523Y-55158038D01*
X133834523Y-55158038D02*
X133882142Y-55205657D01*
X134834523Y-56110419D02*
X134263095Y-56110419D01*
X134548809Y-56110419D02*
X134548809Y-55110419D01*
X134548809Y-55110419D02*
X134453571Y-55253276D01*
X134453571Y-55253276D02*
X134358333Y-55348514D01*
X134358333Y-55348514D02*
X134263095Y-55396133D01*
X135786904Y-56110419D02*
X135215476Y-56110419D01*
X135501190Y-56110419D02*
X135501190Y-55110419D01*
X135501190Y-55110419D02*
X135405952Y-55253276D01*
X135405952Y-55253276D02*
X135310714Y-55348514D01*
X135310714Y-55348514D02*
X135215476Y-55396133D01*
X71010542Y-85754380D02*
X70962923Y-85802000D01*
X70962923Y-85802000D02*
X70820066Y-85849619D01*
X70820066Y-85849619D02*
X70724828Y-85849619D01*
X70724828Y-85849619D02*
X70581971Y-85802000D01*
X70581971Y-85802000D02*
X70486733Y-85706761D01*
X70486733Y-85706761D02*
X70439114Y-85611523D01*
X70439114Y-85611523D02*
X70391495Y-85421047D01*
X70391495Y-85421047D02*
X70391495Y-85278190D01*
X70391495Y-85278190D02*
X70439114Y-85087714D01*
X70439114Y-85087714D02*
X70486733Y-84992476D01*
X70486733Y-84992476D02*
X70581971Y-84897238D01*
X70581971Y-84897238D02*
X70724828Y-84849619D01*
X70724828Y-84849619D02*
X70820066Y-84849619D01*
X70820066Y-84849619D02*
X70962923Y-84897238D01*
X70962923Y-84897238D02*
X71010542Y-84944857D01*
X71962923Y-85849619D02*
X71391495Y-85849619D01*
X71677209Y-85849619D02*
X71677209Y-84849619D01*
X71677209Y-84849619D02*
X71581971Y-84992476D01*
X71581971Y-84992476D02*
X71486733Y-85087714D01*
X71486733Y-85087714D02*
X71391495Y-85135333D01*
X72296257Y-84849619D02*
X72962923Y-84849619D01*
X72962923Y-84849619D02*
X72534352Y-85849619D01*
X118407942Y-105090019D02*
X118074609Y-104613828D01*
X117836514Y-105090019D02*
X117836514Y-104090019D01*
X117836514Y-104090019D02*
X118217466Y-104090019D01*
X118217466Y-104090019D02*
X118312704Y-104137638D01*
X118312704Y-104137638D02*
X118360323Y-104185257D01*
X118360323Y-104185257D02*
X118407942Y-104280495D01*
X118407942Y-104280495D02*
X118407942Y-104423352D01*
X118407942Y-104423352D02*
X118360323Y-104518590D01*
X118360323Y-104518590D02*
X118312704Y-104566209D01*
X118312704Y-104566209D02*
X118217466Y-104613828D01*
X118217466Y-104613828D02*
X117836514Y-104613828D01*
X119360323Y-105090019D02*
X118788895Y-105090019D01*
X119074609Y-105090019D02*
X119074609Y-104090019D01*
X119074609Y-104090019D02*
X118979371Y-104232876D01*
X118979371Y-104232876D02*
X118884133Y-104328114D01*
X118884133Y-104328114D02*
X118788895Y-104375733D01*
X120312704Y-105090019D02*
X119741276Y-105090019D01*
X120026990Y-105090019D02*
X120026990Y-104090019D01*
X120026990Y-104090019D02*
X119931752Y-104232876D01*
X119931752Y-104232876D02*
X119836514Y-104328114D01*
X119836514Y-104328114D02*
X119741276Y-104375733D01*
D11*
X78637437Y-47005518D02*
X78637437Y-45735518D01*
X79967914Y-46884565D02*
X79907438Y-46945042D01*
X79907438Y-46945042D02*
X79726009Y-47005518D01*
X79726009Y-47005518D02*
X79605057Y-47005518D01*
X79605057Y-47005518D02*
X79423628Y-46945042D01*
X79423628Y-46945042D02*
X79302676Y-46824089D01*
X79302676Y-46824089D02*
X79242199Y-46703137D01*
X79242199Y-46703137D02*
X79181723Y-46461232D01*
X79181723Y-46461232D02*
X79181723Y-46279803D01*
X79181723Y-46279803D02*
X79242199Y-46037899D01*
X79242199Y-46037899D02*
X79302676Y-45916946D01*
X79302676Y-45916946D02*
X79423628Y-45795994D01*
X79423628Y-45795994D02*
X79605057Y-45735518D01*
X79605057Y-45735518D02*
X79726009Y-45735518D01*
X79726009Y-45735518D02*
X79907438Y-45795994D01*
X79907438Y-45795994D02*
X79967914Y-45856470D01*
X81177438Y-47005518D02*
X80451723Y-47005518D01*
X80814580Y-47005518D02*
X80814580Y-45735518D01*
X80814580Y-45735518D02*
X80693628Y-45916946D01*
X80693628Y-45916946D02*
X80572676Y-46037899D01*
X80572676Y-46037899D02*
X80451723Y-46098375D01*
D10*
X79824342Y-96771619D02*
X79491009Y-96295428D01*
X79252914Y-96771619D02*
X79252914Y-95771619D01*
X79252914Y-95771619D02*
X79633866Y-95771619D01*
X79633866Y-95771619D02*
X79729104Y-95819238D01*
X79729104Y-95819238D02*
X79776723Y-95866857D01*
X79776723Y-95866857D02*
X79824342Y-95962095D01*
X79824342Y-95962095D02*
X79824342Y-96104952D01*
X79824342Y-96104952D02*
X79776723Y-96200190D01*
X79776723Y-96200190D02*
X79729104Y-96247809D01*
X79729104Y-96247809D02*
X79633866Y-96295428D01*
X79633866Y-96295428D02*
X79252914Y-96295428D01*
X80776723Y-96771619D02*
X80205295Y-96771619D01*
X80491009Y-96771619D02*
X80491009Y-95771619D01*
X80491009Y-95771619D02*
X80395771Y-95914476D01*
X80395771Y-95914476D02*
X80300533Y-96009714D01*
X80300533Y-96009714D02*
X80205295Y-96057333D01*
X81110057Y-95771619D02*
X81776723Y-95771619D01*
X81776723Y-95771619D02*
X81348152Y-96771619D01*
D11*
X45661118Y-47753781D02*
X44391118Y-47753781D01*
X45661118Y-47028066D02*
X44935403Y-47572352D01*
X44391118Y-47028066D02*
X45116832Y-47753781D01*
X44512070Y-46544257D02*
X44451594Y-46483781D01*
X44451594Y-46483781D02*
X44391118Y-46362828D01*
X44391118Y-46362828D02*
X44391118Y-46060447D01*
X44391118Y-46060447D02*
X44451594Y-45939495D01*
X44451594Y-45939495D02*
X44512070Y-45879019D01*
X44512070Y-45879019D02*
X44633022Y-45818542D01*
X44633022Y-45818542D02*
X44753975Y-45818542D01*
X44753975Y-45818542D02*
X44935403Y-45879019D01*
X44935403Y-45879019D02*
X45661118Y-46604733D01*
X45661118Y-46604733D02*
X45661118Y-45818542D01*
X97933933Y-93893918D02*
X97329171Y-93893918D01*
X97329171Y-93893918D02*
X97329171Y-92623918D01*
X98296790Y-92744870D02*
X98357266Y-92684394D01*
X98357266Y-92684394D02*
X98478219Y-92623918D01*
X98478219Y-92623918D02*
X98780600Y-92623918D01*
X98780600Y-92623918D02*
X98901552Y-92684394D01*
X98901552Y-92684394D02*
X98962028Y-92744870D01*
X98962028Y-92744870D02*
X99022505Y-92865822D01*
X99022505Y-92865822D02*
X99022505Y-92986775D01*
X99022505Y-92986775D02*
X98962028Y-93168203D01*
X98962028Y-93168203D02*
X98236314Y-93893918D01*
X98236314Y-93893918D02*
X99022505Y-93893918D01*
D10*
X119016533Y-60553419D02*
X118683200Y-60077228D01*
X118445105Y-60553419D02*
X118445105Y-59553419D01*
X118445105Y-59553419D02*
X118826057Y-59553419D01*
X118826057Y-59553419D02*
X118921295Y-59601038D01*
X118921295Y-59601038D02*
X118968914Y-59648657D01*
X118968914Y-59648657D02*
X119016533Y-59743895D01*
X119016533Y-59743895D02*
X119016533Y-59886752D01*
X119016533Y-59886752D02*
X118968914Y-59981990D01*
X118968914Y-59981990D02*
X118921295Y-60029609D01*
X118921295Y-60029609D02*
X118826057Y-60077228D01*
X118826057Y-60077228D02*
X118445105Y-60077228D01*
X119349867Y-59553419D02*
X119968914Y-59553419D01*
X119968914Y-59553419D02*
X119635581Y-59934371D01*
X119635581Y-59934371D02*
X119778438Y-59934371D01*
X119778438Y-59934371D02*
X119873676Y-59981990D01*
X119873676Y-59981990D02*
X119921295Y-60029609D01*
X119921295Y-60029609D02*
X119968914Y-60124847D01*
X119968914Y-60124847D02*
X119968914Y-60362942D01*
X119968914Y-60362942D02*
X119921295Y-60458180D01*
X119921295Y-60458180D02*
X119873676Y-60505800D01*
X119873676Y-60505800D02*
X119778438Y-60553419D01*
X119778438Y-60553419D02*
X119492724Y-60553419D01*
X119492724Y-60553419D02*
X119397486Y-60505800D01*
X119397486Y-60505800D02*
X119349867Y-60458180D01*
X109154942Y-55037219D02*
X108821609Y-54561028D01*
X108583514Y-55037219D02*
X108583514Y-54037219D01*
X108583514Y-54037219D02*
X108964466Y-54037219D01*
X108964466Y-54037219D02*
X109059704Y-54084838D01*
X109059704Y-54084838D02*
X109107323Y-54132457D01*
X109107323Y-54132457D02*
X109154942Y-54227695D01*
X109154942Y-54227695D02*
X109154942Y-54370552D01*
X109154942Y-54370552D02*
X109107323Y-54465790D01*
X109107323Y-54465790D02*
X109059704Y-54513409D01*
X109059704Y-54513409D02*
X108964466Y-54561028D01*
X108964466Y-54561028D02*
X108583514Y-54561028D01*
X110107323Y-55037219D02*
X109535895Y-55037219D01*
X109821609Y-55037219D02*
X109821609Y-54037219D01*
X109821609Y-54037219D02*
X109726371Y-54180076D01*
X109726371Y-54180076D02*
X109631133Y-54275314D01*
X109631133Y-54275314D02*
X109535895Y-54322933D01*
X111012085Y-54037219D02*
X110535895Y-54037219D01*
X110535895Y-54037219D02*
X110488276Y-54513409D01*
X110488276Y-54513409D02*
X110535895Y-54465790D01*
X110535895Y-54465790D02*
X110631133Y-54418171D01*
X110631133Y-54418171D02*
X110869228Y-54418171D01*
X110869228Y-54418171D02*
X110964466Y-54465790D01*
X110964466Y-54465790D02*
X111012085Y-54513409D01*
X111012085Y-54513409D02*
X111059704Y-54608647D01*
X111059704Y-54608647D02*
X111059704Y-54846742D01*
X111059704Y-54846742D02*
X111012085Y-54941980D01*
X111012085Y-54941980D02*
X110964466Y-54989600D01*
X110964466Y-54989600D02*
X110869228Y-55037219D01*
X110869228Y-55037219D02*
X110631133Y-55037219D01*
X110631133Y-55037219D02*
X110535895Y-54989600D01*
X110535895Y-54989600D02*
X110488276Y-54941980D01*
X87664342Y-87344180D02*
X87616723Y-87391800D01*
X87616723Y-87391800D02*
X87473866Y-87439419D01*
X87473866Y-87439419D02*
X87378628Y-87439419D01*
X87378628Y-87439419D02*
X87235771Y-87391800D01*
X87235771Y-87391800D02*
X87140533Y-87296561D01*
X87140533Y-87296561D02*
X87092914Y-87201323D01*
X87092914Y-87201323D02*
X87045295Y-87010847D01*
X87045295Y-87010847D02*
X87045295Y-86867990D01*
X87045295Y-86867990D02*
X87092914Y-86677514D01*
X87092914Y-86677514D02*
X87140533Y-86582276D01*
X87140533Y-86582276D02*
X87235771Y-86487038D01*
X87235771Y-86487038D02*
X87378628Y-86439419D01*
X87378628Y-86439419D02*
X87473866Y-86439419D01*
X87473866Y-86439419D02*
X87616723Y-86487038D01*
X87616723Y-86487038D02*
X87664342Y-86534657D01*
X88616723Y-87439419D02*
X88045295Y-87439419D01*
X88331009Y-87439419D02*
X88331009Y-86439419D01*
X88331009Y-86439419D02*
X88235771Y-86582276D01*
X88235771Y-86582276D02*
X88140533Y-86677514D01*
X88140533Y-86677514D02*
X88045295Y-86725133D01*
X89521485Y-86439419D02*
X89045295Y-86439419D01*
X89045295Y-86439419D02*
X88997676Y-86915609D01*
X88997676Y-86915609D02*
X89045295Y-86867990D01*
X89045295Y-86867990D02*
X89140533Y-86820371D01*
X89140533Y-86820371D02*
X89378628Y-86820371D01*
X89378628Y-86820371D02*
X89473866Y-86867990D01*
X89473866Y-86867990D02*
X89521485Y-86915609D01*
X89521485Y-86915609D02*
X89569104Y-87010847D01*
X89569104Y-87010847D02*
X89569104Y-87248942D01*
X89569104Y-87248942D02*
X89521485Y-87344180D01*
X89521485Y-87344180D02*
X89473866Y-87391800D01*
X89473866Y-87391800D02*
X89378628Y-87439419D01*
X89378628Y-87439419D02*
X89140533Y-87439419D01*
X89140533Y-87439419D02*
X89045295Y-87391800D01*
X89045295Y-87391800D02*
X88997676Y-87344180D01*
X122362933Y-112424380D02*
X122315314Y-112472000D01*
X122315314Y-112472000D02*
X122172457Y-112519619D01*
X122172457Y-112519619D02*
X122077219Y-112519619D01*
X122077219Y-112519619D02*
X121934362Y-112472000D01*
X121934362Y-112472000D02*
X121839124Y-112376761D01*
X121839124Y-112376761D02*
X121791505Y-112281523D01*
X121791505Y-112281523D02*
X121743886Y-112091047D01*
X121743886Y-112091047D02*
X121743886Y-111948190D01*
X121743886Y-111948190D02*
X121791505Y-111757714D01*
X121791505Y-111757714D02*
X121839124Y-111662476D01*
X121839124Y-111662476D02*
X121934362Y-111567238D01*
X121934362Y-111567238D02*
X122077219Y-111519619D01*
X122077219Y-111519619D02*
X122172457Y-111519619D01*
X122172457Y-111519619D02*
X122315314Y-111567238D01*
X122315314Y-111567238D02*
X122362933Y-111614857D01*
X123220076Y-111852952D02*
X123220076Y-112519619D01*
X122981981Y-111472000D02*
X122743886Y-112186285D01*
X122743886Y-112186285D02*
X123362933Y-112186285D01*
D11*
X85625818Y-92954118D02*
X85625818Y-91684118D01*
X85625818Y-91684118D02*
X85928199Y-91684118D01*
X85928199Y-91684118D02*
X86109628Y-91744594D01*
X86109628Y-91744594D02*
X86230580Y-91865546D01*
X86230580Y-91865546D02*
X86291057Y-91986499D01*
X86291057Y-91986499D02*
X86351533Y-92228403D01*
X86351533Y-92228403D02*
X86351533Y-92409832D01*
X86351533Y-92409832D02*
X86291057Y-92651737D01*
X86291057Y-92651737D02*
X86230580Y-92772689D01*
X86230580Y-92772689D02*
X86109628Y-92893642D01*
X86109628Y-92893642D02*
X85928199Y-92954118D01*
X85928199Y-92954118D02*
X85625818Y-92954118D01*
X87561057Y-92954118D02*
X86835342Y-92954118D01*
X87198199Y-92954118D02*
X87198199Y-91684118D01*
X87198199Y-91684118D02*
X87077247Y-91865546D01*
X87077247Y-91865546D02*
X86956295Y-91986499D01*
X86956295Y-91986499D02*
X86835342Y-92046975D01*
D10*
X107357942Y-82579380D02*
X107310323Y-82627000D01*
X107310323Y-82627000D02*
X107167466Y-82674619D01*
X107167466Y-82674619D02*
X107072228Y-82674619D01*
X107072228Y-82674619D02*
X106929371Y-82627000D01*
X106929371Y-82627000D02*
X106834133Y-82531761D01*
X106834133Y-82531761D02*
X106786514Y-82436523D01*
X106786514Y-82436523D02*
X106738895Y-82246047D01*
X106738895Y-82246047D02*
X106738895Y-82103190D01*
X106738895Y-82103190D02*
X106786514Y-81912714D01*
X106786514Y-81912714D02*
X106834133Y-81817476D01*
X106834133Y-81817476D02*
X106929371Y-81722238D01*
X106929371Y-81722238D02*
X107072228Y-81674619D01*
X107072228Y-81674619D02*
X107167466Y-81674619D01*
X107167466Y-81674619D02*
X107310323Y-81722238D01*
X107310323Y-81722238D02*
X107357942Y-81769857D01*
X108310323Y-82674619D02*
X107738895Y-82674619D01*
X108024609Y-82674619D02*
X108024609Y-81674619D01*
X108024609Y-81674619D02*
X107929371Y-81817476D01*
X107929371Y-81817476D02*
X107834133Y-81912714D01*
X107834133Y-81912714D02*
X107738895Y-81960333D01*
X108929371Y-81674619D02*
X109024609Y-81674619D01*
X109024609Y-81674619D02*
X109119847Y-81722238D01*
X109119847Y-81722238D02*
X109167466Y-81769857D01*
X109167466Y-81769857D02*
X109215085Y-81865095D01*
X109215085Y-81865095D02*
X109262704Y-82055571D01*
X109262704Y-82055571D02*
X109262704Y-82293666D01*
X109262704Y-82293666D02*
X109215085Y-82484142D01*
X109215085Y-82484142D02*
X109167466Y-82579380D01*
X109167466Y-82579380D02*
X109119847Y-82627000D01*
X109119847Y-82627000D02*
X109024609Y-82674619D01*
X109024609Y-82674619D02*
X108929371Y-82674619D01*
X108929371Y-82674619D02*
X108834133Y-82627000D01*
X108834133Y-82627000D02*
X108786514Y-82579380D01*
X108786514Y-82579380D02*
X108738895Y-82484142D01*
X108738895Y-82484142D02*
X108691276Y-82293666D01*
X108691276Y-82293666D02*
X108691276Y-82055571D01*
X108691276Y-82055571D02*
X108738895Y-81865095D01*
X108738895Y-81865095D02*
X108786514Y-81769857D01*
X108786514Y-81769857D02*
X108834133Y-81722238D01*
X108834133Y-81722238D02*
X108929371Y-81674619D01*
D11*
X116679133Y-61940718D02*
X116074371Y-61940718D01*
X116074371Y-61940718D02*
X116074371Y-60670718D01*
X117767705Y-61940718D02*
X117041990Y-61940718D01*
X117404847Y-61940718D02*
X117404847Y-60670718D01*
X117404847Y-60670718D02*
X117283895Y-60852146D01*
X117283895Y-60852146D02*
X117162943Y-60973099D01*
X117162943Y-60973099D02*
X117041990Y-61033575D01*
X84496818Y-59195118D02*
X84496818Y-57925118D01*
X84496818Y-57925118D02*
X84799199Y-57925118D01*
X84799199Y-57925118D02*
X84980628Y-57985594D01*
X84980628Y-57985594D02*
X85101580Y-58106546D01*
X85101580Y-58106546D02*
X85162057Y-58227499D01*
X85162057Y-58227499D02*
X85222533Y-58469403D01*
X85222533Y-58469403D02*
X85222533Y-58650832D01*
X85222533Y-58650832D02*
X85162057Y-58892737D01*
X85162057Y-58892737D02*
X85101580Y-59013689D01*
X85101580Y-59013689D02*
X84980628Y-59134642D01*
X84980628Y-59134642D02*
X84799199Y-59195118D01*
X84799199Y-59195118D02*
X84496818Y-59195118D01*
X85706342Y-58046070D02*
X85766818Y-57985594D01*
X85766818Y-57985594D02*
X85887771Y-57925118D01*
X85887771Y-57925118D02*
X86190152Y-57925118D01*
X86190152Y-57925118D02*
X86311104Y-57985594D01*
X86311104Y-57985594D02*
X86371580Y-58046070D01*
X86371580Y-58046070D02*
X86432057Y-58167022D01*
X86432057Y-58167022D02*
X86432057Y-58287975D01*
X86432057Y-58287975D02*
X86371580Y-58469403D01*
X86371580Y-58469403D02*
X85645866Y-59195118D01*
X85645866Y-59195118D02*
X86432057Y-59195118D01*
D10*
X114204742Y-105090019D02*
X113871409Y-104613828D01*
X113633314Y-105090019D02*
X113633314Y-104090019D01*
X113633314Y-104090019D02*
X114014266Y-104090019D01*
X114014266Y-104090019D02*
X114109504Y-104137638D01*
X114109504Y-104137638D02*
X114157123Y-104185257D01*
X114157123Y-104185257D02*
X114204742Y-104280495D01*
X114204742Y-104280495D02*
X114204742Y-104423352D01*
X114204742Y-104423352D02*
X114157123Y-104518590D01*
X114157123Y-104518590D02*
X114109504Y-104566209D01*
X114109504Y-104566209D02*
X114014266Y-104613828D01*
X114014266Y-104613828D02*
X113633314Y-104613828D01*
X115157123Y-105090019D02*
X114585695Y-105090019D01*
X114871409Y-105090019D02*
X114871409Y-104090019D01*
X114871409Y-104090019D02*
X114776171Y-104232876D01*
X114776171Y-104232876D02*
X114680933Y-104328114D01*
X114680933Y-104328114D02*
X114585695Y-104375733D01*
X115538076Y-104185257D02*
X115585695Y-104137638D01*
X115585695Y-104137638D02*
X115680933Y-104090019D01*
X115680933Y-104090019D02*
X115919028Y-104090019D01*
X115919028Y-104090019D02*
X116014266Y-104137638D01*
X116014266Y-104137638D02*
X116061885Y-104185257D01*
X116061885Y-104185257D02*
X116109504Y-104280495D01*
X116109504Y-104280495D02*
X116109504Y-104375733D01*
X116109504Y-104375733D02*
X116061885Y-104518590D01*
X116061885Y-104518590D02*
X115490457Y-105090019D01*
X115490457Y-105090019D02*
X116109504Y-105090019D01*
X125766533Y-75848380D02*
X125718914Y-75896000D01*
X125718914Y-75896000D02*
X125576057Y-75943619D01*
X125576057Y-75943619D02*
X125480819Y-75943619D01*
X125480819Y-75943619D02*
X125337962Y-75896000D01*
X125337962Y-75896000D02*
X125242724Y-75800761D01*
X125242724Y-75800761D02*
X125195105Y-75705523D01*
X125195105Y-75705523D02*
X125147486Y-75515047D01*
X125147486Y-75515047D02*
X125147486Y-75372190D01*
X125147486Y-75372190D02*
X125195105Y-75181714D01*
X125195105Y-75181714D02*
X125242724Y-75086476D01*
X125242724Y-75086476D02*
X125337962Y-74991238D01*
X125337962Y-74991238D02*
X125480819Y-74943619D01*
X125480819Y-74943619D02*
X125576057Y-74943619D01*
X125576057Y-74943619D02*
X125718914Y-74991238D01*
X125718914Y-74991238D02*
X125766533Y-75038857D01*
X126099867Y-74943619D02*
X126766533Y-74943619D01*
X126766533Y-74943619D02*
X126337962Y-75943619D01*
X122134333Y-89735819D02*
X121801000Y-89259628D01*
X121562905Y-89735819D02*
X121562905Y-88735819D01*
X121562905Y-88735819D02*
X121943857Y-88735819D01*
X121943857Y-88735819D02*
X122039095Y-88783438D01*
X122039095Y-88783438D02*
X122086714Y-88831057D01*
X122086714Y-88831057D02*
X122134333Y-88926295D01*
X122134333Y-88926295D02*
X122134333Y-89069152D01*
X122134333Y-89069152D02*
X122086714Y-89164390D01*
X122086714Y-89164390D02*
X122039095Y-89212009D01*
X122039095Y-89212009D02*
X121943857Y-89259628D01*
X121943857Y-89259628D02*
X121562905Y-89259628D01*
X123039095Y-88735819D02*
X122562905Y-88735819D01*
X122562905Y-88735819D02*
X122515286Y-89212009D01*
X122515286Y-89212009D02*
X122562905Y-89164390D01*
X122562905Y-89164390D02*
X122658143Y-89116771D01*
X122658143Y-89116771D02*
X122896238Y-89116771D01*
X122896238Y-89116771D02*
X122991476Y-89164390D01*
X122991476Y-89164390D02*
X123039095Y-89212009D01*
X123039095Y-89212009D02*
X123086714Y-89307247D01*
X123086714Y-89307247D02*
X123086714Y-89545342D01*
X123086714Y-89545342D02*
X123039095Y-89640580D01*
X123039095Y-89640580D02*
X122991476Y-89688200D01*
X122991476Y-89688200D02*
X122896238Y-89735819D01*
X122896238Y-89735819D02*
X122658143Y-89735819D01*
X122658143Y-89735819D02*
X122562905Y-89688200D01*
X122562905Y-89688200D02*
X122515286Y-89640580D01*
X123112733Y-104988419D02*
X122779400Y-104512228D01*
X122541305Y-104988419D02*
X122541305Y-103988419D01*
X122541305Y-103988419D02*
X122922257Y-103988419D01*
X122922257Y-103988419D02*
X123017495Y-104036038D01*
X123017495Y-104036038D02*
X123065114Y-104083657D01*
X123065114Y-104083657D02*
X123112733Y-104178895D01*
X123112733Y-104178895D02*
X123112733Y-104321752D01*
X123112733Y-104321752D02*
X123065114Y-104416990D01*
X123065114Y-104416990D02*
X123017495Y-104464609D01*
X123017495Y-104464609D02*
X122922257Y-104512228D01*
X122922257Y-104512228D02*
X122541305Y-104512228D01*
X123969876Y-103988419D02*
X123779400Y-103988419D01*
X123779400Y-103988419D02*
X123684162Y-104036038D01*
X123684162Y-104036038D02*
X123636543Y-104083657D01*
X123636543Y-104083657D02*
X123541305Y-104226514D01*
X123541305Y-104226514D02*
X123493686Y-104416990D01*
X123493686Y-104416990D02*
X123493686Y-104797942D01*
X123493686Y-104797942D02*
X123541305Y-104893180D01*
X123541305Y-104893180D02*
X123588924Y-104940800D01*
X123588924Y-104940800D02*
X123684162Y-104988419D01*
X123684162Y-104988419D02*
X123874638Y-104988419D01*
X123874638Y-104988419D02*
X123969876Y-104940800D01*
X123969876Y-104940800D02*
X124017495Y-104893180D01*
X124017495Y-104893180D02*
X124065114Y-104797942D01*
X124065114Y-104797942D02*
X124065114Y-104559847D01*
X124065114Y-104559847D02*
X124017495Y-104464609D01*
X124017495Y-104464609D02*
X123969876Y-104416990D01*
X123969876Y-104416990D02*
X123874638Y-104369371D01*
X123874638Y-104369371D02*
X123684162Y-104369371D01*
X123684162Y-104369371D02*
X123588924Y-104416990D01*
X123588924Y-104416990D02*
X123541305Y-104464609D01*
X123541305Y-104464609D02*
X123493686Y-104559847D01*
X84753780Y-40359057D02*
X84801400Y-40406676D01*
X84801400Y-40406676D02*
X84849019Y-40549533D01*
X84849019Y-40549533D02*
X84849019Y-40644771D01*
X84849019Y-40644771D02*
X84801400Y-40787628D01*
X84801400Y-40787628D02*
X84706161Y-40882866D01*
X84706161Y-40882866D02*
X84610923Y-40930485D01*
X84610923Y-40930485D02*
X84420447Y-40978104D01*
X84420447Y-40978104D02*
X84277590Y-40978104D01*
X84277590Y-40978104D02*
X84087114Y-40930485D01*
X84087114Y-40930485D02*
X83991876Y-40882866D01*
X83991876Y-40882866D02*
X83896638Y-40787628D01*
X83896638Y-40787628D02*
X83849019Y-40644771D01*
X83849019Y-40644771D02*
X83849019Y-40549533D01*
X83849019Y-40549533D02*
X83896638Y-40406676D01*
X83896638Y-40406676D02*
X83944257Y-40359057D01*
X84849019Y-39406676D02*
X84849019Y-39978104D01*
X84849019Y-39692390D02*
X83849019Y-39692390D01*
X83849019Y-39692390D02*
X83991876Y-39787628D01*
X83991876Y-39787628D02*
X84087114Y-39882866D01*
X84087114Y-39882866D02*
X84134733Y-39978104D01*
X83944257Y-39025723D02*
X83896638Y-38978104D01*
X83896638Y-38978104D02*
X83849019Y-38882866D01*
X83849019Y-38882866D02*
X83849019Y-38644771D01*
X83849019Y-38644771D02*
X83896638Y-38549533D01*
X83896638Y-38549533D02*
X83944257Y-38501914D01*
X83944257Y-38501914D02*
X84039495Y-38454295D01*
X84039495Y-38454295D02*
X84134733Y-38454295D01*
X84134733Y-38454295D02*
X84277590Y-38501914D01*
X84277590Y-38501914D02*
X84849019Y-39073342D01*
X84849019Y-39073342D02*
X84849019Y-38454295D01*
D11*
X126127933Y-90495965D02*
X126067457Y-90556442D01*
X126067457Y-90556442D02*
X125886028Y-90616918D01*
X125886028Y-90616918D02*
X125765076Y-90616918D01*
X125765076Y-90616918D02*
X125583647Y-90556442D01*
X125583647Y-90556442D02*
X125462695Y-90435489D01*
X125462695Y-90435489D02*
X125402218Y-90314537D01*
X125402218Y-90314537D02*
X125341742Y-90072632D01*
X125341742Y-90072632D02*
X125341742Y-89891203D01*
X125341742Y-89891203D02*
X125402218Y-89649299D01*
X125402218Y-89649299D02*
X125462695Y-89528346D01*
X125462695Y-89528346D02*
X125583647Y-89407394D01*
X125583647Y-89407394D02*
X125765076Y-89346918D01*
X125765076Y-89346918D02*
X125886028Y-89346918D01*
X125886028Y-89346918D02*
X126067457Y-89407394D01*
X126067457Y-89407394D02*
X126127933Y-89467870D01*
X126611742Y-89467870D02*
X126672218Y-89407394D01*
X126672218Y-89407394D02*
X126793171Y-89346918D01*
X126793171Y-89346918D02*
X127095552Y-89346918D01*
X127095552Y-89346918D02*
X127216504Y-89407394D01*
X127216504Y-89407394D02*
X127276980Y-89467870D01*
X127276980Y-89467870D02*
X127337457Y-89588822D01*
X127337457Y-89588822D02*
X127337457Y-89709775D01*
X127337457Y-89709775D02*
X127276980Y-89891203D01*
X127276980Y-89891203D02*
X126551266Y-90616918D01*
X126551266Y-90616918D02*
X127337457Y-90616918D01*
X74579237Y-77358518D02*
X74579237Y-76088518D01*
X75909714Y-77237565D02*
X75849238Y-77298042D01*
X75849238Y-77298042D02*
X75667809Y-77358518D01*
X75667809Y-77358518D02*
X75546857Y-77358518D01*
X75546857Y-77358518D02*
X75365428Y-77298042D01*
X75365428Y-77298042D02*
X75244476Y-77177089D01*
X75244476Y-77177089D02*
X75183999Y-77056137D01*
X75183999Y-77056137D02*
X75123523Y-76814232D01*
X75123523Y-76814232D02*
X75123523Y-76632803D01*
X75123523Y-76632803D02*
X75183999Y-76390899D01*
X75183999Y-76390899D02*
X75244476Y-76269946D01*
X75244476Y-76269946D02*
X75365428Y-76148994D01*
X75365428Y-76148994D02*
X75546857Y-76088518D01*
X75546857Y-76088518D02*
X75667809Y-76088518D01*
X75667809Y-76088518D02*
X75849238Y-76148994D01*
X75849238Y-76148994D02*
X75909714Y-76209470D01*
X76333047Y-76088518D02*
X77119238Y-76088518D01*
X77119238Y-76088518D02*
X76695904Y-76572327D01*
X76695904Y-76572327D02*
X76877333Y-76572327D01*
X76877333Y-76572327D02*
X76998285Y-76632803D01*
X76998285Y-76632803D02*
X77058761Y-76693280D01*
X77058761Y-76693280D02*
X77119238Y-76814232D01*
X77119238Y-76814232D02*
X77119238Y-77116613D01*
X77119238Y-77116613D02*
X77058761Y-77237565D01*
X77058761Y-77237565D02*
X76998285Y-77298042D01*
X76998285Y-77298042D02*
X76877333Y-77358518D01*
X76877333Y-77358518D02*
X76514476Y-77358518D01*
X76514476Y-77358518D02*
X76393523Y-77298042D01*
X76393523Y-77298042D02*
X76333047Y-77237565D01*
D10*
X74317266Y-36959819D02*
X74317266Y-37674104D01*
X74317266Y-37674104D02*
X74269647Y-37816961D01*
X74269647Y-37816961D02*
X74174409Y-37912200D01*
X74174409Y-37912200D02*
X74031552Y-37959819D01*
X74031552Y-37959819D02*
X73936314Y-37959819D01*
X74698219Y-36959819D02*
X75364885Y-36959819D01*
X75364885Y-36959819D02*
X74936314Y-37959819D01*
X77081142Y-86814819D02*
X76747809Y-86338628D01*
X76509714Y-86814819D02*
X76509714Y-85814819D01*
X76509714Y-85814819D02*
X76890666Y-85814819D01*
X76890666Y-85814819D02*
X76985904Y-85862438D01*
X76985904Y-85862438D02*
X77033523Y-85910057D01*
X77033523Y-85910057D02*
X77081142Y-86005295D01*
X77081142Y-86005295D02*
X77081142Y-86148152D01*
X77081142Y-86148152D02*
X77033523Y-86243390D01*
X77033523Y-86243390D02*
X76985904Y-86291009D01*
X76985904Y-86291009D02*
X76890666Y-86338628D01*
X76890666Y-86338628D02*
X76509714Y-86338628D01*
X78033523Y-86814819D02*
X77462095Y-86814819D01*
X77747809Y-86814819D02*
X77747809Y-85814819D01*
X77747809Y-85814819D02*
X77652571Y-85957676D01*
X77652571Y-85957676D02*
X77557333Y-86052914D01*
X77557333Y-86052914D02*
X77462095Y-86100533D01*
X78604952Y-86243390D02*
X78509714Y-86195771D01*
X78509714Y-86195771D02*
X78462095Y-86148152D01*
X78462095Y-86148152D02*
X78414476Y-86052914D01*
X78414476Y-86052914D02*
X78414476Y-86005295D01*
X78414476Y-86005295D02*
X78462095Y-85910057D01*
X78462095Y-85910057D02*
X78509714Y-85862438D01*
X78509714Y-85862438D02*
X78604952Y-85814819D01*
X78604952Y-85814819D02*
X78795428Y-85814819D01*
X78795428Y-85814819D02*
X78890666Y-85862438D01*
X78890666Y-85862438D02*
X78938285Y-85910057D01*
X78938285Y-85910057D02*
X78985904Y-86005295D01*
X78985904Y-86005295D02*
X78985904Y-86052914D01*
X78985904Y-86052914D02*
X78938285Y-86148152D01*
X78938285Y-86148152D02*
X78890666Y-86195771D01*
X78890666Y-86195771D02*
X78795428Y-86243390D01*
X78795428Y-86243390D02*
X78604952Y-86243390D01*
X78604952Y-86243390D02*
X78509714Y-86291009D01*
X78509714Y-86291009D02*
X78462095Y-86338628D01*
X78462095Y-86338628D02*
X78414476Y-86433866D01*
X78414476Y-86433866D02*
X78414476Y-86624342D01*
X78414476Y-86624342D02*
X78462095Y-86719580D01*
X78462095Y-86719580D02*
X78509714Y-86767200D01*
X78509714Y-86767200D02*
X78604952Y-86814819D01*
X78604952Y-86814819D02*
X78795428Y-86814819D01*
X78795428Y-86814819D02*
X78890666Y-86767200D01*
X78890666Y-86767200D02*
X78938285Y-86719580D01*
X78938285Y-86719580D02*
X78985904Y-86624342D01*
X78985904Y-86624342D02*
X78985904Y-86433866D01*
X78985904Y-86433866D02*
X78938285Y-86338628D01*
X78938285Y-86338628D02*
X78890666Y-86291009D01*
X78890666Y-86291009D02*
X78795428Y-86243390D01*
X125010942Y-95857219D02*
X124677609Y-95381028D01*
X124439514Y-95857219D02*
X124439514Y-94857219D01*
X124439514Y-94857219D02*
X124820466Y-94857219D01*
X124820466Y-94857219D02*
X124915704Y-94904838D01*
X124915704Y-94904838D02*
X124963323Y-94952457D01*
X124963323Y-94952457D02*
X125010942Y-95047695D01*
X125010942Y-95047695D02*
X125010942Y-95190552D01*
X125010942Y-95190552D02*
X124963323Y-95285790D01*
X124963323Y-95285790D02*
X124915704Y-95333409D01*
X124915704Y-95333409D02*
X124820466Y-95381028D01*
X124820466Y-95381028D02*
X124439514Y-95381028D01*
X125963323Y-95857219D02*
X125391895Y-95857219D01*
X125677609Y-95857219D02*
X125677609Y-94857219D01*
X125677609Y-94857219D02*
X125582371Y-95000076D01*
X125582371Y-95000076D02*
X125487133Y-95095314D01*
X125487133Y-95095314D02*
X125391895Y-95142933D01*
X126582371Y-94857219D02*
X126677609Y-94857219D01*
X126677609Y-94857219D02*
X126772847Y-94904838D01*
X126772847Y-94904838D02*
X126820466Y-94952457D01*
X126820466Y-94952457D02*
X126868085Y-95047695D01*
X126868085Y-95047695D02*
X126915704Y-95238171D01*
X126915704Y-95238171D02*
X126915704Y-95476266D01*
X126915704Y-95476266D02*
X126868085Y-95666742D01*
X126868085Y-95666742D02*
X126820466Y-95761980D01*
X126820466Y-95761980D02*
X126772847Y-95809600D01*
X126772847Y-95809600D02*
X126677609Y-95857219D01*
X126677609Y-95857219D02*
X126582371Y-95857219D01*
X126582371Y-95857219D02*
X126487133Y-95809600D01*
X126487133Y-95809600D02*
X126439514Y-95761980D01*
X126439514Y-95761980D02*
X126391895Y-95666742D01*
X126391895Y-95666742D02*
X126344276Y-95476266D01*
X126344276Y-95476266D02*
X126344276Y-95238171D01*
X126344276Y-95238171D02*
X126391895Y-95047695D01*
X126391895Y-95047695D02*
X126439514Y-94952457D01*
X126439514Y-94952457D02*
X126487133Y-94904838D01*
X126487133Y-94904838D02*
X126582371Y-94857219D01*
D11*
X102549270Y-66592752D02*
X102488794Y-66713704D01*
X102488794Y-66713704D02*
X102367842Y-66834657D01*
X102367842Y-66834657D02*
X102186413Y-67016085D01*
X102186413Y-67016085D02*
X102125937Y-67137038D01*
X102125937Y-67137038D02*
X102125937Y-67257990D01*
X102428318Y-67197514D02*
X102367842Y-67318466D01*
X102367842Y-67318466D02*
X102246889Y-67439419D01*
X102246889Y-67439419D02*
X102004984Y-67499895D01*
X102004984Y-67499895D02*
X101581651Y-67499895D01*
X101581651Y-67499895D02*
X101339746Y-67439419D01*
X101339746Y-67439419D02*
X101218794Y-67318466D01*
X101218794Y-67318466D02*
X101158318Y-67197514D01*
X101158318Y-67197514D02*
X101158318Y-66955609D01*
X101158318Y-66955609D02*
X101218794Y-66834657D01*
X101218794Y-66834657D02*
X101339746Y-66713704D01*
X101339746Y-66713704D02*
X101581651Y-66653228D01*
X101581651Y-66653228D02*
X102004984Y-66653228D01*
X102004984Y-66653228D02*
X102246889Y-66713704D01*
X102246889Y-66713704D02*
X102367842Y-66834657D01*
X102367842Y-66834657D02*
X102428318Y-66955609D01*
X102428318Y-66955609D02*
X102428318Y-67197514D01*
X102428318Y-65443704D02*
X102428318Y-66169419D01*
X102428318Y-65806562D02*
X101158318Y-65806562D01*
X101158318Y-65806562D02*
X101339746Y-65927514D01*
X101339746Y-65927514D02*
X101460699Y-66048466D01*
X101460699Y-66048466D02*
X101521175Y-66169419D01*
D10*
X109612133Y-106586580D02*
X109564514Y-106634200D01*
X109564514Y-106634200D02*
X109421657Y-106681819D01*
X109421657Y-106681819D02*
X109326419Y-106681819D01*
X109326419Y-106681819D02*
X109183562Y-106634200D01*
X109183562Y-106634200D02*
X109088324Y-106538961D01*
X109088324Y-106538961D02*
X109040705Y-106443723D01*
X109040705Y-106443723D02*
X108993086Y-106253247D01*
X108993086Y-106253247D02*
X108993086Y-106110390D01*
X108993086Y-106110390D02*
X109040705Y-105919914D01*
X109040705Y-105919914D02*
X109088324Y-105824676D01*
X109088324Y-105824676D02*
X109183562Y-105729438D01*
X109183562Y-105729438D02*
X109326419Y-105681819D01*
X109326419Y-105681819D02*
X109421657Y-105681819D01*
X109421657Y-105681819D02*
X109564514Y-105729438D01*
X109564514Y-105729438D02*
X109612133Y-105777057D01*
X110469276Y-105681819D02*
X110278800Y-105681819D01*
X110278800Y-105681819D02*
X110183562Y-105729438D01*
X110183562Y-105729438D02*
X110135943Y-105777057D01*
X110135943Y-105777057D02*
X110040705Y-105919914D01*
X110040705Y-105919914D02*
X109993086Y-106110390D01*
X109993086Y-106110390D02*
X109993086Y-106491342D01*
X109993086Y-106491342D02*
X110040705Y-106586580D01*
X110040705Y-106586580D02*
X110088324Y-106634200D01*
X110088324Y-106634200D02*
X110183562Y-106681819D01*
X110183562Y-106681819D02*
X110374038Y-106681819D01*
X110374038Y-106681819D02*
X110469276Y-106634200D01*
X110469276Y-106634200D02*
X110516895Y-106586580D01*
X110516895Y-106586580D02*
X110564514Y-106491342D01*
X110564514Y-106491342D02*
X110564514Y-106253247D01*
X110564514Y-106253247D02*
X110516895Y-106158009D01*
X110516895Y-106158009D02*
X110469276Y-106110390D01*
X110469276Y-106110390D02*
X110374038Y-106062771D01*
X110374038Y-106062771D02*
X110183562Y-106062771D01*
X110183562Y-106062771D02*
X110088324Y-106110390D01*
X110088324Y-106110390D02*
X110040705Y-106158009D01*
X110040705Y-106158009D02*
X109993086Y-106253247D01*
X42443619Y-54478133D02*
X43157904Y-54478133D01*
X43157904Y-54478133D02*
X43300761Y-54525752D01*
X43300761Y-54525752D02*
X43396000Y-54620990D01*
X43396000Y-54620990D02*
X43443619Y-54763847D01*
X43443619Y-54763847D02*
X43443619Y-54859085D01*
X42443619Y-53573371D02*
X42443619Y-53763847D01*
X42443619Y-53763847D02*
X42491238Y-53859085D01*
X42491238Y-53859085D02*
X42538857Y-53906704D01*
X42538857Y-53906704D02*
X42681714Y-54001942D01*
X42681714Y-54001942D02*
X42872190Y-54049561D01*
X42872190Y-54049561D02*
X43253142Y-54049561D01*
X43253142Y-54049561D02*
X43348380Y-54001942D01*
X43348380Y-54001942D02*
X43396000Y-53954323D01*
X43396000Y-53954323D02*
X43443619Y-53859085D01*
X43443619Y-53859085D02*
X43443619Y-53668609D01*
X43443619Y-53668609D02*
X43396000Y-53573371D01*
X43396000Y-53573371D02*
X43348380Y-53525752D01*
X43348380Y-53525752D02*
X43253142Y-53478133D01*
X43253142Y-53478133D02*
X43015047Y-53478133D01*
X43015047Y-53478133D02*
X42919809Y-53525752D01*
X42919809Y-53525752D02*
X42872190Y-53573371D01*
X42872190Y-53573371D02*
X42824571Y-53668609D01*
X42824571Y-53668609D02*
X42824571Y-53859085D01*
X42824571Y-53859085D02*
X42872190Y-53954323D01*
X42872190Y-53954323D02*
X42919809Y-54001942D01*
X42919809Y-54001942D02*
X43015047Y-54049561D01*
D12*
%TO.C,R1*%
X75844400Y-91783800D02*
X75844400Y-89523800D01*
X77564400Y-93503800D02*
G75*
G03*
X77564400Y-93503800I-1720000J0D01*
G01*
D13*
%TO.C,PS1*%
X87310800Y-78522200D02*
G75*
G03*
X87310800Y-78522200I-125000J0D01*
G01*
D14*
%TO.C,C1*%
X133248800Y-80035000D02*
G75*
G03*
X133248800Y-80035000I-3150000J0D01*
G01*
D12*
%TO.C,R20*%
X133867536Y-59923000D02*
X135321664Y-59923000D01*
X133867536Y-61743000D02*
X135321664Y-61743000D01*
%TO.C,C5*%
X120059200Y-90327800D02*
G75*
G03*
X120059200Y-90327800I-3270000J0D01*
G01*
%TO.C,R2*%
X80568800Y-79007600D02*
X80568800Y-76747600D01*
X82288800Y-80727600D02*
G75*
G03*
X82288800Y-80727600I-1720000J0D01*
G01*
%TO.C,C8*%
X116631800Y-79170200D02*
X116631800Y-76430200D01*
X116631800Y-79170200D02*
X109191800Y-79170200D01*
X116631800Y-76430200D02*
X109191800Y-76430200D01*
X109191800Y-79170200D02*
X109191800Y-76430200D01*
%TO.C,C13*%
X86282148Y-47605800D02*
X87704652Y-47605800D01*
X86282148Y-49425800D02*
X87704652Y-49425800D01*
%TO.C,R8*%
X134891200Y-89273664D02*
X134891200Y-84919536D01*
X138311200Y-89273664D02*
X138311200Y-84919536D01*
D15*
%TO.C,IC2*%
X93224600Y-38577000D02*
X93224600Y-50577000D01*
X95814600Y-35687000D02*
X133814600Y-35687000D01*
X95814600Y-53467000D02*
X133814600Y-53467000D01*
X136404600Y-38577000D02*
X136404600Y-50577000D01*
D12*
%TO.C,R19*%
X84751200Y-81916400D02*
X84751200Y-84176400D01*
X86471200Y-80196400D02*
G75*
G03*
X86471200Y-80196400I-1720000J0D01*
G01*
D15*
%TO.C,K1*%
X48575400Y-70238800D02*
X48575400Y-70238800D01*
X48575400Y-70338800D02*
X48575400Y-70338800D01*
D14*
X57575400Y-70788800D02*
X47575400Y-70788800D01*
X47575400Y-70788800D02*
X47575400Y-99288800D01*
X57575400Y-99288800D02*
X57575400Y-70788800D01*
X47575400Y-99288800D02*
X57575400Y-99288800D01*
D15*
X48575400Y-70338800D02*
G75*
G03*
X48575400Y-70238800I0J50000D01*
G01*
X48575400Y-70238800D02*
G75*
G03*
X48575400Y-70338800I0J-50000D01*
G01*
D12*
%TO.C,R7*%
X127000000Y-100280000D02*
X127000000Y-98020000D01*
X128720000Y-102000000D02*
G75*
G03*
X128720000Y-102000000I-1720000J0D01*
G01*
%TO.C,C16*%
X99155000Y-75412600D02*
G75*
G03*
X99155000Y-75412600I-3270000J0D01*
G01*
%TO.C,R16*%
X100800800Y-57353200D02*
X98540800Y-57353200D01*
X104240800Y-57353200D02*
G75*
G03*
X104240800Y-57353200I-1720000J0D01*
G01*
%TO.C,R9*%
X132384800Y-94525200D02*
X132384800Y-96785200D01*
X134104800Y-92805200D02*
G75*
G03*
X134104800Y-92805200I-1720000J0D01*
G01*
%TO.C,R4*%
X127367400Y-57378600D02*
X129627400Y-57378600D01*
X127367400Y-57378600D02*
G75*
G03*
X127367400Y-57378600I-1720000J0D01*
G01*
%TO.C,C9*%
X112606400Y-82357159D02*
X112606400Y-82987159D01*
X112921400Y-82672159D02*
X112291400Y-82672159D01*
X113997400Y-85857400D02*
X107537400Y-85857400D01*
X113997400Y-85897400D02*
X107537400Y-85897400D01*
X113997400Y-85937400D02*
X107537400Y-85937400D01*
X113995400Y-85977400D02*
X107539400Y-85977400D01*
X113994400Y-86017400D02*
X107540400Y-86017400D01*
X113991400Y-86057400D02*
X107543400Y-86057400D01*
X113989400Y-86097400D02*
X111807400Y-86097400D01*
X109727400Y-86097400D02*
X107545400Y-86097400D01*
X113985400Y-86137400D02*
X111807400Y-86137400D01*
X109727400Y-86137400D02*
X107549400Y-86137400D01*
X113982400Y-86177400D02*
X111807400Y-86177400D01*
X109727400Y-86177400D02*
X107552400Y-86177400D01*
X113978400Y-86217400D02*
X111807400Y-86217400D01*
X109727400Y-86217400D02*
X107556400Y-86217400D01*
X113973400Y-86257400D02*
X111807400Y-86257400D01*
X109727400Y-86257400D02*
X107561400Y-86257400D01*
X113968400Y-86297400D02*
X111807400Y-86297400D01*
X109727400Y-86297400D02*
X107566400Y-86297400D01*
X113962400Y-86337400D02*
X111807400Y-86337400D01*
X109727400Y-86337400D02*
X107572400Y-86337400D01*
X113956400Y-86377400D02*
X111807400Y-86377400D01*
X109727400Y-86377400D02*
X107578400Y-86377400D01*
X113949400Y-86417400D02*
X111807400Y-86417400D01*
X109727400Y-86417400D02*
X107585400Y-86417400D01*
X113942400Y-86457400D02*
X111807400Y-86457400D01*
X109727400Y-86457400D02*
X107592400Y-86457400D01*
X113934400Y-86497400D02*
X111807400Y-86497400D01*
X109727400Y-86497400D02*
X107600400Y-86497400D01*
X113926400Y-86537400D02*
X111807400Y-86537400D01*
X109727400Y-86537400D02*
X107608400Y-86537400D01*
X113917400Y-86578400D02*
X111807400Y-86578400D01*
X109727400Y-86578400D02*
X107617400Y-86578400D01*
X113908400Y-86618400D02*
X111807400Y-86618400D01*
X109727400Y-86618400D02*
X107626400Y-86618400D01*
X113898400Y-86658400D02*
X111807400Y-86658400D01*
X109727400Y-86658400D02*
X107636400Y-86658400D01*
X113888400Y-86698400D02*
X111807400Y-86698400D01*
X109727400Y-86698400D02*
X107646400Y-86698400D01*
X113877400Y-86738400D02*
X111807400Y-86738400D01*
X109727400Y-86738400D02*
X107657400Y-86738400D01*
X113865400Y-86778400D02*
X111807400Y-86778400D01*
X109727400Y-86778400D02*
X107669400Y-86778400D01*
X113853400Y-86818400D02*
X111807400Y-86818400D01*
X109727400Y-86818400D02*
X107681400Y-86818400D01*
X113841400Y-86858400D02*
X111807400Y-86858400D01*
X109727400Y-86858400D02*
X107693400Y-86858400D01*
X113828400Y-86898400D02*
X111807400Y-86898400D01*
X109727400Y-86898400D02*
X107706400Y-86898400D01*
X113814400Y-86938400D02*
X111807400Y-86938400D01*
X109727400Y-86938400D02*
X107720400Y-86938400D01*
X113800400Y-86978400D02*
X111807400Y-86978400D01*
X109727400Y-86978400D02*
X107734400Y-86978400D01*
X113785400Y-87018400D02*
X111807400Y-87018400D01*
X109727400Y-87018400D02*
X107749400Y-87018400D01*
X113769400Y-87058400D02*
X111807400Y-87058400D01*
X109727400Y-87058400D02*
X107765400Y-87058400D01*
X113753400Y-87098400D02*
X111807400Y-87098400D01*
X109727400Y-87098400D02*
X107781400Y-87098400D01*
X113737400Y-87138400D02*
X111807400Y-87138400D01*
X109727400Y-87138400D02*
X107797400Y-87138400D01*
X113719400Y-87178400D02*
X111807400Y-87178400D01*
X109727400Y-87178400D02*
X107815400Y-87178400D01*
X113701400Y-87218400D02*
X111807400Y-87218400D01*
X109727400Y-87218400D02*
X107833400Y-87218400D01*
X113683400Y-87258400D02*
X111807400Y-87258400D01*
X109727400Y-87258400D02*
X107851400Y-87258400D01*
X113663400Y-87298400D02*
X111807400Y-87298400D01*
X109727400Y-87298400D02*
X107871400Y-87298400D01*
X113643400Y-87338400D02*
X111807400Y-87338400D01*
X109727400Y-87338400D02*
X107891400Y-87338400D01*
X113623400Y-87378400D02*
X111807400Y-87378400D01*
X109727400Y-87378400D02*
X107911400Y-87378400D01*
X113601400Y-87418400D02*
X111807400Y-87418400D01*
X109727400Y-87418400D02*
X107933400Y-87418400D01*
X113579400Y-87458400D02*
X111807400Y-87458400D01*
X109727400Y-87458400D02*
X107955400Y-87458400D01*
X113557400Y-87498400D02*
X111807400Y-87498400D01*
X109727400Y-87498400D02*
X107977400Y-87498400D01*
X113533400Y-87538400D02*
X111807400Y-87538400D01*
X109727400Y-87538400D02*
X108001400Y-87538400D01*
X113509400Y-87578400D02*
X111807400Y-87578400D01*
X109727400Y-87578400D02*
X108025400Y-87578400D01*
X113483400Y-87618400D02*
X111807400Y-87618400D01*
X109727400Y-87618400D02*
X108051400Y-87618400D01*
X113457400Y-87658400D02*
X111807400Y-87658400D01*
X109727400Y-87658400D02*
X108077400Y-87658400D01*
X113431400Y-87698400D02*
X111807400Y-87698400D01*
X109727400Y-87698400D02*
X108103400Y-87698400D01*
X113403400Y-87738400D02*
X111807400Y-87738400D01*
X109727400Y-87738400D02*
X108131400Y-87738400D01*
X113374400Y-87778400D02*
X111807400Y-87778400D01*
X109727400Y-87778400D02*
X108160400Y-87778400D01*
X113345400Y-87818400D02*
X111807400Y-87818400D01*
X109727400Y-87818400D02*
X108189400Y-87818400D01*
X113315400Y-87858400D02*
X111807400Y-87858400D01*
X109727400Y-87858400D02*
X108219400Y-87858400D01*
X113283400Y-87898400D02*
X111807400Y-87898400D01*
X109727400Y-87898400D02*
X108251400Y-87898400D01*
X113251400Y-87938400D02*
X111807400Y-87938400D01*
X109727400Y-87938400D02*
X108283400Y-87938400D01*
X113217400Y-87978400D02*
X111807400Y-87978400D01*
X109727400Y-87978400D02*
X108317400Y-87978400D01*
X113183400Y-88018400D02*
X111807400Y-88018400D01*
X109727400Y-88018400D02*
X108351400Y-88018400D01*
X113147400Y-88058400D02*
X111807400Y-88058400D01*
X109727400Y-88058400D02*
X108387400Y-88058400D01*
X113110400Y-88098400D02*
X111807400Y-88098400D01*
X109727400Y-88098400D02*
X108424400Y-88098400D01*
X113072400Y-88138400D02*
X111807400Y-88138400D01*
X109727400Y-88138400D02*
X108462400Y-88138400D01*
X113032400Y-88178400D02*
X108502400Y-88178400D01*
X112991400Y-88218400D02*
X108543400Y-88218400D01*
X112949400Y-88258400D02*
X108585400Y-88258400D01*
X112904400Y-88298400D02*
X108630400Y-88298400D01*
X112859400Y-88338400D02*
X108675400Y-88338400D01*
X112811400Y-88378400D02*
X108723400Y-88378400D01*
X112762400Y-88418400D02*
X108772400Y-88418400D01*
X112711400Y-88458400D02*
X108823400Y-88458400D01*
X112657400Y-88498400D02*
X108877400Y-88498400D01*
X112601400Y-88538400D02*
X108933400Y-88538400D01*
X112543400Y-88578400D02*
X108991400Y-88578400D01*
X112481400Y-88618400D02*
X109053400Y-88618400D01*
X112417400Y-88658400D02*
X109117400Y-88658400D01*
X112348400Y-88698400D02*
X109186400Y-88698400D01*
X112276400Y-88738400D02*
X109258400Y-88738400D01*
X112199400Y-88778400D02*
X109335400Y-88778400D01*
X112117400Y-88818400D02*
X109417400Y-88818400D01*
X112029400Y-88858400D02*
X109505400Y-88858400D01*
X111932400Y-88898400D02*
X109602400Y-88898400D01*
X111826400Y-88938400D02*
X109708400Y-88938400D01*
X111707400Y-88978400D02*
X109827400Y-88978400D01*
X111569400Y-89018400D02*
X109965400Y-89018400D01*
X111400400Y-89058400D02*
X110134400Y-89058400D01*
X111169400Y-89098400D02*
X110365400Y-89098400D01*
X114037400Y-85857400D02*
G75*
G03*
X114037400Y-85857400I-3270000J0D01*
G01*
%TO.C,R13*%
X111000000Y-100280000D02*
X111000000Y-98020000D01*
X112720000Y-102000000D02*
G75*
G03*
X112720000Y-102000000I-1720000J0D01*
G01*
%TO.C,R14*%
X105173200Y-102049864D02*
X105173200Y-97695736D01*
X108593200Y-102049864D02*
X108593200Y-97695736D01*
%TO.C,C14*%
X86282148Y-44605800D02*
X87704652Y-44605800D01*
X86282148Y-46425800D02*
X87704652Y-46425800D01*
D14*
%TO.C,C3*%
X126136800Y-82849400D02*
G75*
G03*
X126136800Y-82849400I-3150000J0D01*
G01*
D13*
%TO.C,IC4*%
X114791200Y-80100800D02*
G75*
G03*
X114791200Y-80100800I-125000J0D01*
G01*
D12*
%TO.C,C11*%
X133813748Y-56595600D02*
X135236252Y-56595600D01*
X133813748Y-58415600D02*
X135236252Y-58415600D01*
%TO.C,C17*%
X74847200Y-81280000D02*
G75*
G03*
X74847200Y-81280000I-3270000J0D01*
G01*
%TO.C,R11*%
X119000000Y-100280000D02*
X119000000Y-98020000D01*
X120720000Y-102000000D02*
G75*
G03*
X120720000Y-102000000I-1720000J0D01*
G01*
D14*
%TO.C,IC1*%
X76402200Y-43851200D02*
X77927200Y-43851200D01*
X78277200Y-43981200D02*
X81477200Y-43981200D01*
X78277200Y-48881200D02*
X78277200Y-43981200D01*
X81477200Y-43981200D02*
X81477200Y-48881200D01*
X81477200Y-48881200D02*
X78277200Y-48881200D01*
D12*
%TO.C,R17*%
X80467200Y-91834600D02*
X80467200Y-89574600D01*
X82187200Y-93554600D02*
G75*
G03*
X82187200Y-93554600I-1720000J0D01*
G01*
D15*
%TO.C,K2*%
X48681400Y-32549800D02*
X48681400Y-32549800D01*
X48681400Y-32649800D02*
X48681400Y-32649800D01*
D14*
X57681400Y-33099800D02*
X47681400Y-33099800D01*
X47681400Y-33099800D02*
X47681400Y-61599800D01*
X57681400Y-61599800D02*
X57681400Y-33099800D01*
X47681400Y-61599800D02*
X57681400Y-61599800D01*
D15*
X48681400Y-32649800D02*
G75*
G03*
X48681400Y-32549800I0J50000D01*
G01*
X48681400Y-32549800D02*
G75*
G03*
X48681400Y-32649800I0J-50000D01*
G01*
D14*
%TO.C,L2*%
X91395600Y-91873400D02*
X104895600Y-91873400D01*
X104895600Y-79373400D02*
X91395600Y-79373400D01*
D12*
%TO.C,R3*%
X120003200Y-57378600D02*
X117743200Y-57378600D01*
X123443200Y-57378600D02*
G75*
G03*
X123443200Y-57378600I-1720000J0D01*
G01*
%TO.C,R15*%
X108977800Y-57302400D02*
X111237800Y-57302400D01*
X108977800Y-57302400D02*
G75*
G03*
X108977800Y-57302400I-1720000J0D01*
G01*
%TO.C,C15*%
X87194000Y-84533952D02*
X87194000Y-83111448D01*
X89014000Y-84533952D02*
X89014000Y-83111448D01*
%TO.C,C4*%
X114829400Y-105380800D02*
X114829400Y-110620800D01*
X114829400Y-105380800D02*
X129569400Y-105380800D01*
X114829400Y-110620800D02*
X129569400Y-110620800D01*
X129569400Y-105380800D02*
X129569400Y-110620800D01*
D14*
%TO.C,D1*%
X84034600Y-88658400D02*
X87684600Y-88658400D01*
X84984600Y-90208400D02*
X87684600Y-90208400D01*
D12*
%TO.C,C10*%
X110183148Y-79608000D02*
X111605652Y-79608000D01*
X110183148Y-81428000D02*
X111605652Y-81428000D01*
D14*
%TO.C,L1*%
X110316600Y-75769800D02*
X123816600Y-75769800D01*
X123816600Y-63269800D02*
X110316600Y-63269800D01*
%TO.C,D2*%
X81764600Y-66877000D02*
X81764600Y-67827000D01*
X81764600Y-67827000D02*
X88364600Y-67827000D01*
D15*
X82764600Y-72077000D02*
X82764600Y-72077000D01*
X82764600Y-72177000D02*
X82764600Y-72177000D01*
D14*
X88364600Y-67827000D02*
X88364600Y-66877000D01*
D15*
X82764600Y-72177000D02*
G75*
G03*
X82764600Y-72077000I0J50000D01*
G01*
X82764600Y-72077000D02*
G75*
G03*
X82764600Y-72177000I0J-50000D01*
G01*
D12*
%TO.C,R12*%
X115000000Y-100280000D02*
X115000000Y-98020000D01*
X116720000Y-102000000D02*
G75*
G03*
X116720000Y-102000000I-1720000J0D01*
G01*
%TO.C,C7*%
X124632800Y-79170200D02*
X124632800Y-76430200D01*
X124632800Y-79170200D02*
X117192800Y-79170200D01*
X124632800Y-76430200D02*
X117192800Y-76430200D01*
X117192800Y-79170200D02*
X117192800Y-76430200D01*
%TO.C,R5*%
X121599336Y-86542200D02*
X123053464Y-86542200D01*
X121599336Y-88362200D02*
X123053464Y-88362200D01*
%TO.C,R6*%
X123000000Y-100280000D02*
X123000000Y-98020000D01*
X124720000Y-102000000D02*
G75*
G03*
X124720000Y-102000000I-1720000J0D01*
G01*
%TO.C,C12*%
X83454200Y-39004948D02*
X83454200Y-40427452D01*
X81634200Y-39004948D02*
X81634200Y-40427452D01*
D14*
%TO.C,C2*%
X132969400Y-86720600D02*
G75*
G03*
X132969400Y-86720600I-3150000J0D01*
G01*
%TO.C,IC3*%
X75608400Y-81026600D02*
X75608400Y-79826600D01*
D12*
%TO.C,R18*%
X78374864Y-85415800D02*
X76920736Y-85415800D01*
X78374864Y-83595800D02*
X76920736Y-83595800D01*
%TO.C,R10*%
X123552936Y-91000000D02*
X127907064Y-91000000D01*
X123552936Y-94420000D02*
X127907064Y-94420000D01*
D15*
%TO.C,Q1*%
X95554800Y-70455800D02*
X95554800Y-70455800D01*
X95554800Y-70355800D02*
X95554800Y-70355800D01*
X95009800Y-69555800D02*
X95009800Y-63645800D01*
X99909800Y-69555800D02*
X99909800Y-63655800D01*
X95554800Y-70355800D02*
G75*
G03*
X95554800Y-70455800I0J-50000D01*
G01*
X95554800Y-70455800D02*
G75*
G03*
X95554800Y-70355800I0J50000D01*
G01*
D12*
%TO.C,C6*%
X109067548Y-107167000D02*
X110490052Y-107167000D01*
X109067548Y-108987000D02*
X110490052Y-108987000D01*
%TD*%
M02*
