%TF.GenerationSoftware,KiCad,Pcbnew,7.0.8*%
%TF.CreationDate,2024-02-23T11:13:45-06:00*%
%TF.ProjectId,ChargeController_Main,43686172-6765-4436-9f6e-74726f6c6c65,rev?*%
%TF.SameCoordinates,Original*%
%TF.FileFunction,Paste,Top*%
%TF.FilePolarity,Positive*%
%FSLAX46Y46*%
G04 Gerber Fmt 4.6, Leading zero omitted, Abs format (unit mm)*
G04 Created by KiCad (PCBNEW 7.0.8) date 2024-02-23 11:13:45*
%MOMM*%
%LPD*%
G01*
G04 APERTURE LIST*
G04 Aperture macros list*
%AMRoundRect*
0 Rectangle with rounded corners*
0 $1 Rounding radius*
0 $2 $3 $4 $5 $6 $7 $8 $9 X,Y pos of 4 corners*
0 Add a 4 corners polygon primitive as box body*
4,1,4,$2,$3,$4,$5,$6,$7,$8,$9,$2,$3,0*
0 Add four circle primitives for the rounded corners*
1,1,$1+$1,$2,$3*
1,1,$1+$1,$4,$5*
1,1,$1+$1,$6,$7*
1,1,$1+$1,$8,$9*
0 Add four rect primitives between the rounded corners*
20,1,$1+$1,$2,$3,$4,$5,0*
20,1,$1+$1,$4,$5,$6,$7,0*
20,1,$1+$1,$6,$7,$8,$9,0*
20,1,$1+$1,$8,$9,$2,$3,0*%
G04 Aperture macros list end*
%ADD10R,0.600000X0.350000*%
%ADD11R,1.100000X1.700000*%
%ADD12RoundRect,0.250000X-0.400000X-0.625000X0.400000X-0.625000X0.400000X0.625000X-0.400000X0.625000X0*%
%ADD13RoundRect,0.250000X-0.412500X-0.650000X0.412500X-0.650000X0.412500X0.650000X-0.412500X0.650000X0*%
%ADD14RoundRect,0.249999X1.425001X-0.450001X1.425001X0.450001X-1.425001X0.450001X-1.425001X-0.450001X0*%
%ADD15R,0.850000X0.300000*%
%ADD16R,0.300000X0.850000*%
%ADD17R,2.650000X3.650000*%
%ADD18R,1.525000X0.650000*%
%ADD19R,3.550000X4.900000*%
%ADD20RoundRect,0.250000X0.650000X-0.412500X0.650000X0.412500X-0.650000X0.412500X-0.650000X-0.412500X0*%
%ADD21R,1.200000X0.750000*%
%ADD22R,1.600000X3.000000*%
%ADD23R,6.000000X6.000000*%
%ADD24RoundRect,0.250000X-0.650000X0.412500X-0.650000X-0.412500X0.650000X-0.412500X0.650000X0.412500X0*%
%ADD25R,0.450000X1.200000*%
%ADD26RoundRect,0.250000X0.400000X0.625000X-0.400000X0.625000X-0.400000X-0.625000X0.400000X-0.625000X0*%
%ADD27RoundRect,0.249999X-0.450001X-1.425001X0.450001X-1.425001X0.450001X1.425001X-0.450001X1.425001X0*%
%ADD28R,0.610000X1.270000*%
%ADD29R,0.610000X0.710000*%
%ADD30R,1.650000X3.810000*%
%ADD31R,0.230000X0.310000*%
%ADD32RoundRect,0.250000X-0.325000X-0.650000X0.325000X-0.650000X0.325000X0.650000X-0.325000X0.650000X0*%
G04 APERTURE END LIST*
D10*
%TO.C,PS1*%
X87485800Y-79197200D03*
X87485800Y-79847200D03*
X87485800Y-80497200D03*
X89585800Y-80497200D03*
X89585800Y-79847200D03*
X89585800Y-79197200D03*
D11*
X88535800Y-79847200D03*
%TD*%
D12*
%TO.C,R20*%
X133044600Y-60833000D03*
X136144600Y-60833000D03*
%TD*%
D13*
%TO.C,C13*%
X85430900Y-48515800D03*
X88555900Y-48515800D03*
%TD*%
D14*
%TO.C,R8*%
X136601200Y-90146600D03*
X136601200Y-84046600D03*
%TD*%
%TO.C,R14*%
X106883200Y-102922800D03*
X106883200Y-96822800D03*
%TD*%
D13*
%TO.C,C14*%
X85430900Y-45515800D03*
X88555900Y-45515800D03*
%TD*%
D15*
%TO.C,IC4*%
X115091200Y-80850800D03*
X115091200Y-81350800D03*
X115091200Y-81850800D03*
X115091200Y-82350800D03*
X115091200Y-82850800D03*
X115091200Y-83350800D03*
X115091200Y-83850800D03*
X115091200Y-84350800D03*
D16*
X115791200Y-85050800D03*
X116291200Y-85050800D03*
X116791200Y-85050800D03*
X117291200Y-85050800D03*
X117791200Y-85050800D03*
X118291200Y-85050800D03*
D15*
X118991200Y-84350800D03*
X118991200Y-83850800D03*
X118991200Y-83350800D03*
X118991200Y-82850800D03*
X118991200Y-82350800D03*
X118991200Y-81850800D03*
X118991200Y-81350800D03*
X118991200Y-80850800D03*
D16*
X118291200Y-80150800D03*
X117791200Y-80150800D03*
X117291200Y-80150800D03*
X116791200Y-80150800D03*
X116291200Y-80150800D03*
X115791200Y-80150800D03*
D17*
X117041200Y-82600800D03*
%TD*%
D13*
%TO.C,C11*%
X132962500Y-57505600D03*
X136087500Y-57505600D03*
%TD*%
D18*
%TO.C,IC1*%
X77165200Y-44526200D03*
X77165200Y-45796200D03*
X77165200Y-47066200D03*
X77165200Y-48336200D03*
X82589200Y-48336200D03*
X82589200Y-47066200D03*
X82589200Y-45796200D03*
X82589200Y-44526200D03*
%TD*%
D19*
%TO.C,L2*%
X92395600Y-85623400D03*
X103895600Y-85623400D03*
%TD*%
D20*
%TO.C,C15*%
X88104000Y-85385200D03*
X88104000Y-82260200D03*
%TD*%
D21*
%TO.C,D1*%
X84634600Y-89433400D03*
X88034600Y-89433400D03*
%TD*%
D13*
%TO.C,C10*%
X109331900Y-80518000D03*
X112456900Y-80518000D03*
%TD*%
D19*
%TO.C,L1*%
X111316600Y-69519800D03*
X122816600Y-69519800D03*
%TD*%
D22*
%TO.C,D2*%
X82764600Y-70127000D03*
D23*
X85064600Y-63627000D03*
D22*
X87364600Y-70127000D03*
%TD*%
D12*
%TO.C,R5*%
X120776400Y-87452200D03*
X123876400Y-87452200D03*
%TD*%
D24*
%TO.C,C12*%
X82544200Y-38153700D03*
X82544200Y-41278700D03*
%TD*%
D25*
%TO.C,IC3*%
X76083400Y-80426600D03*
X76733400Y-80426600D03*
X77383400Y-80426600D03*
X77383400Y-78526600D03*
X76083400Y-78526600D03*
%TD*%
D26*
%TO.C,R18*%
X79197800Y-84505800D03*
X76097800Y-84505800D03*
%TD*%
D27*
%TO.C,R10*%
X122680000Y-92710000D03*
X128780000Y-92710000D03*
%TD*%
D28*
%TO.C,Q1*%
X95554800Y-69265800D03*
X96824800Y-69265800D03*
X98094800Y-69265800D03*
X99364800Y-69265800D03*
D29*
X99364800Y-63645800D03*
X98094800Y-63645800D03*
X96824800Y-63645800D03*
X95554800Y-63645800D03*
D30*
X96304800Y-65905800D03*
X98614800Y-65905800D03*
D31*
X95364800Y-64155800D03*
X99554800Y-64155800D03*
%TD*%
D32*
%TO.C,C6*%
X108303800Y-108077000D03*
X111253800Y-108077000D03*
%TD*%
M02*
