%TF.GenerationSoftware,KiCad,Pcbnew,7.0.8*%
%TF.CreationDate,2024-02-23T11:13:45-06:00*%
%TF.ProjectId,ChargeController_Main,43686172-6765-4436-9f6e-74726f6c6c65,rev?*%
%TF.SameCoordinates,Original*%
%TF.FileFunction,Soldermask,Bot*%
%TF.FilePolarity,Negative*%
%FSLAX46Y46*%
G04 Gerber Fmt 4.6, Leading zero omitted, Abs format (unit mm)*
G04 Created by KiCad (PCBNEW 7.0.8) date 2024-02-23 11:13:45*
%MOMM*%
%LPD*%
G01*
G04 APERTURE LIST*
G04 Aperture macros list*
%AMRoundRect*
0 Rectangle with rounded corners*
0 $1 Rounding radius*
0 $2 $3 $4 $5 $6 $7 $8 $9 X,Y pos of 4 corners*
0 Add a 4 corners polygon primitive as box body*
4,1,4,$2,$3,$4,$5,$6,$7,$8,$9,$2,$3,0*
0 Add four circle primitives for the rounded corners*
1,1,$1+$1,$2,$3*
1,1,$1+$1,$4,$5*
1,1,$1+$1,$6,$7*
1,1,$1+$1,$8,$9*
0 Add four rect primitives between the rounded corners*
20,1,$1+$1,$2,$3,$4,$5,0*
20,1,$1+$1,$4,$5,$6,$7,0*
20,1,$1+$1,$6,$7,$8,$9,0*
20,1,$1+$1,$8,$9,$2,$3,0*%
G04 Aperture macros list end*
%ADD10C,1.600000*%
%ADD11O,1.600000X1.600000*%
%ADD12C,2.200000*%
%ADD13RoundRect,0.250000X1.125000X1.125000X-1.125000X1.125000X-1.125000X-1.125000X1.125000X-1.125000X0*%
%ADD14C,2.750000*%
%ADD15RoundRect,0.250000X1.125000X-1.125000X1.125000X1.125000X-1.125000X1.125000X-1.125000X-1.125000X0*%
%ADD16R,1.275000X1.275000*%
%ADD17C,1.275000*%
%ADD18R,1.665000X1.665000*%
%ADD19C,1.665000*%
%ADD20C,2.475000*%
%ADD21C,1.950000*%
%ADD22R,1.600000X1.600000*%
%ADD23RoundRect,0.250000X-1.125000X1.125000X-1.125000X-1.125000X1.125000X-1.125000X1.125000X1.125000X0*%
%ADD24C,2.000000*%
G04 APERTURE END LIST*
D10*
%TO.C,R1*%
X75844400Y-93503800D03*
D11*
X75844400Y-88423800D03*
%TD*%
D12*
%TO.C,H1*%
X40000000Y-115036238D03*
%TD*%
D13*
%TO.C,J3*%
X75778200Y-103225600D03*
D14*
X70378200Y-103225600D03*
X64978200Y-103225600D03*
X59578200Y-103225600D03*
X54178200Y-103225600D03*
X48778200Y-103225600D03*
%TD*%
D15*
%TO.C,J1*%
X141706600Y-89789000D03*
D14*
X141706600Y-84389000D03*
%TD*%
D16*
%TO.C,C1*%
X130098800Y-81285000D03*
D17*
X130098800Y-78785000D03*
%TD*%
D10*
%TO.C,C5*%
X116789200Y-91577800D03*
X116789200Y-89077800D03*
%TD*%
%TO.C,R2*%
X80568800Y-80727600D03*
D11*
X80568800Y-75647600D03*
%TD*%
D10*
%TO.C,C8*%
X115411800Y-77800200D03*
X110411800Y-77800200D03*
%TD*%
D18*
%TO.C,IC2*%
X97034600Y-52197000D03*
D19*
X99574600Y-52197000D03*
X102114600Y-52197000D03*
X104654600Y-52197000D03*
X107194600Y-52197000D03*
X109734600Y-52197000D03*
X112274600Y-52197000D03*
X114814600Y-52197000D03*
X117354600Y-52197000D03*
X119894600Y-52197000D03*
X122434600Y-52197000D03*
X124974600Y-52197000D03*
X127514600Y-52197000D03*
X130054600Y-52197000D03*
X132594600Y-52197000D03*
D18*
X132594600Y-36957000D03*
D19*
X130054600Y-36957000D03*
X127514600Y-36957000D03*
X124974600Y-36957000D03*
X122434600Y-36957000D03*
X119894600Y-36957000D03*
X117354600Y-36957000D03*
X114814600Y-36957000D03*
X112274600Y-36957000D03*
X109734600Y-36957000D03*
X107194600Y-36957000D03*
X104654600Y-36957000D03*
X102114600Y-36957000D03*
X99574600Y-36957000D03*
X97034600Y-36957000D03*
D20*
X94494600Y-52197000D03*
X94494600Y-36957000D03*
X135134600Y-36957000D03*
X135134600Y-52197000D03*
%TD*%
D10*
%TO.C,R19*%
X84751200Y-80196400D03*
D11*
X84751200Y-85276400D03*
%TD*%
D21*
%TO.C,K1*%
X48765400Y-72388800D03*
X48765400Y-94588800D03*
X56385400Y-97788800D03*
X56385400Y-91388800D03*
X56385400Y-72388800D03*
%TD*%
D10*
%TO.C,R7*%
X127000000Y-102000000D03*
D11*
X127000000Y-96920000D03*
%TD*%
D10*
%TO.C,C16*%
X97135000Y-75412600D03*
X94635000Y-75412600D03*
%TD*%
%TO.C,R16*%
X102520800Y-57353200D03*
D11*
X97440800Y-57353200D03*
%TD*%
D10*
%TO.C,R9*%
X132384800Y-92805200D03*
D11*
X132384800Y-97885200D03*
%TD*%
D10*
%TO.C,R4*%
X125647400Y-57378600D03*
D11*
X130727400Y-57378600D03*
%TD*%
D22*
%TO.C,C9*%
X110767400Y-84607400D03*
D10*
X110767400Y-87107400D03*
%TD*%
D23*
%TO.C,J5*%
X40053200Y-89407600D03*
D14*
X40053200Y-94807600D03*
%TD*%
D10*
%TO.C,R13*%
X111000000Y-102000000D03*
D11*
X111000000Y-96920000D03*
%TD*%
D12*
%TO.C,H4*%
X140000000Y-115036238D03*
%TD*%
D16*
%TO.C,C3*%
X122986800Y-81599400D03*
D17*
X122986800Y-84099400D03*
%TD*%
D13*
%TO.C,J4*%
X75745200Y-65912600D03*
D14*
X70345200Y-65912600D03*
X64945200Y-65912600D03*
X59545200Y-65912600D03*
X54145200Y-65912600D03*
X48745200Y-65912600D03*
%TD*%
D10*
%TO.C,C17*%
X71577200Y-80030000D03*
X71577200Y-82530000D03*
%TD*%
%TO.C,R11*%
X119000000Y-102000000D03*
D11*
X119000000Y-96920000D03*
%TD*%
D10*
%TO.C,R17*%
X80467200Y-93554600D03*
D11*
X80467200Y-88474600D03*
%TD*%
D21*
%TO.C,K2*%
X48871400Y-34699800D03*
X48871400Y-56899800D03*
X56491400Y-60099800D03*
X56491400Y-53699800D03*
X56491400Y-34699800D03*
%TD*%
D10*
%TO.C,R3*%
X121723200Y-57378600D03*
D11*
X116643200Y-57378600D03*
%TD*%
D10*
%TO.C,R15*%
X107257800Y-57302400D03*
D11*
X112337800Y-57302400D03*
%TD*%
D12*
%TO.C,H3*%
X40000000Y-35000000D03*
%TD*%
D24*
%TO.C,C4*%
X118449400Y-108000800D03*
X125949400Y-108000800D03*
%TD*%
D10*
%TO.C,R12*%
X115000000Y-102000000D03*
D11*
X115000000Y-96920000D03*
%TD*%
D10*
%TO.C,C7*%
X123412800Y-77800200D03*
X118412800Y-77800200D03*
%TD*%
%TO.C,R6*%
X123000000Y-102000000D03*
D11*
X123000000Y-96920000D03*
%TD*%
D16*
%TO.C,C2*%
X129819400Y-85470600D03*
D17*
X129819400Y-87970600D03*
%TD*%
D13*
%TO.C,J7*%
X77350600Y-34925000D03*
D14*
X71950600Y-34925000D03*
%TD*%
D12*
%TO.C,H2*%
X140000000Y-35000000D03*
%TD*%
D23*
%TO.C,J6*%
X40408800Y-51444800D03*
D14*
X40408800Y-56844800D03*
%TD*%
M02*
