M48
; DRILL file {KiCad 7.0.8} date Fri Feb 23 11:13:40 2024
; FORMAT={-:-/ absolute / inch / decimal}
; #@! TF.CreationDate,2024-02-23T11:13:40-06:00
; #@! TF.GenerationSoftware,Kicad,Pcbnew,7.0.8
; #@! TF.FileFunction,MixedPlating,1,2
FMAT,2
INCH
; #@! TA.AperFunction,Plated,PTH,ViaDrill
T1C0.0118
; #@! TA.AperFunction,Plated,PTH,ViaDrill
T2C0.0157
; #@! TA.AperFunction,Plated,PTH,ViaDrill
T3C0.0276
; #@! TA.AperFunction,Plated,PTH,ComponentDrill
T4C0.0315
; #@! TA.AperFunction,Plated,PTH,ComponentDrill
T5C0.0335
; #@! TA.AperFunction,Plated,PTH,ComponentDrill
T6C0.0394
; #@! TA.AperFunction,Plated,PTH,ComponentDrill
T7C0.0437
; #@! TA.AperFunction,Plated,PTH,ComponentDrill
T8C0.0512
; #@! TA.AperFunction,Plated,PTH,ComponentDrill
T9C0.0650
; #@! TA.AperFunction,Plated,PTH,ComponentDrill
T10C0.0689
; #@! TA.AperFunction,NonPlated,NPTH,ComponentDrill
T11C0.0866
%
G90
G05
T1
X3.484Y-3.089
T2
X1.492Y-3.52
X1.509Y-2.025
X1.578Y-3.425
X1.578Y-3.607
X1.592Y-1.941
X1.592Y-2.114
X1.666Y-3.522
X1.676Y-2.025
X2.146Y-2.849
X2.22Y-2.915
X2.225Y-1.246
X2.34Y-1.366
X2.4Y-2.794
X2.501Y-2.891
X2.771Y-2.894
X2.772Y-2.679
X2.891Y-2.594
X2.902Y-4.064
X2.911Y-3.25
X2.946Y-1.585
X2.98Y-2.688
X2.983Y-2.505
X2.983Y-3.981
X2.983Y-4.141
X2.987Y-3.74
X3.046Y-3.222
X3.055Y-3.325
X3.067Y-4.064
X3.082Y-2.594
X3.088Y-2.37
X3.124Y-2.8784
X3.125Y-1.587
X3.168Y-3.744
X3.186Y-1.903
X3.205Y-3.356
X3.232Y-2.226
X3.2498Y-1.5636
X3.395Y-2.976
X3.402Y-3.197
X3.459Y-2.152
X3.537Y-3.236
X3.543Y-1.909
X3.544Y-1.79
X3.639Y-1.82
X3.639Y-2.03
X3.654Y-2.438
X3.7143Y-1.8563
X3.793Y-2.3
X3.797Y-2.813
X3.816Y-1.86
X3.825Y-2.897
X4.261Y-4.322
X4.31Y-4.082
X4.422Y-2.176
X4.423Y-2.341
X4.439Y-3.43
X4.446Y-3.3101
X4.488Y-2.256
X4.5218Y-3.4368
X4.598Y-3.66
X4.607Y-3.446
X4.625Y-4.075
X4.6266Y-3.409
X4.662Y-4.325
X4.711Y-3.35
X4.7136Y-3.392
X4.716Y-3.152
X4.77Y-3.2707
X4.783Y-4.076
X4.797Y-3.358
X4.92Y-1.334
X4.92Y-1.535
X5.18Y-3.499
X5.201Y-3.104
X5.211Y-3.918
X5.429Y-2.268
X5.5Y-3.537
X5.579Y-3.622
X5.661Y-3.536
T3
X1.746Y-2.365
X1.749Y-3.869
X2.348Y-4.193
X2.421Y-2.297
X2.557Y-2.027
X2.672Y-2.448
X2.769Y-4.208
X3.183Y-1.364
X3.203Y-2.013
X3.783Y-3.767
X5.385Y-3.142
T4
X2.818Y-3.1508
X2.818Y-3.2492
X2.986Y-3.4813
X2.986Y-3.6813
X3.168Y-3.4833
X3.168Y-3.6833
X3.172Y-2.9783
X3.172Y-3.1783
X3.3367Y-3.1573
X3.3367Y-3.3573
X3.7258Y-2.969
X3.8242Y-2.969
X3.8363Y-2.258
X4.0363Y-2.258
X4.2227Y-2.256
X4.3469Y-3.063
X4.3609Y-3.331
X4.3609Y-3.4294
X4.3701Y-3.8157
X4.3701Y-4.0157
X4.4227Y-2.256
X4.5276Y-3.8157
X4.5276Y-4.0157
X4.5438Y-3.063
X4.5923Y-2.259
X4.598Y-3.507
X4.598Y-3.6054
X4.6619Y-3.063
X4.685Y-3.8157
X4.685Y-4.0157
X4.7923Y-2.259
X4.8425Y-3.8157
X4.8425Y-4.0157
X4.8588Y-3.063
X4.9467Y-2.259
X5.0Y-3.8157
X5.0Y-4.0157
X5.1467Y-2.259
X5.212Y-3.6537
X5.212Y-3.8537
T5
X4.842Y-3.2126
X4.842Y-3.311
X5.111Y-3.365
X5.111Y-3.4634
X5.122Y-3.1018
X5.122Y-3.2002
T6
X4.6634Y-4.252
X4.9586Y-4.252
T7
X3.8203Y-1.455
X3.8203Y-2.055
X3.9203Y-1.455
X3.9203Y-2.055
X4.0203Y-1.455
X4.0203Y-2.055
X4.1203Y-1.455
X4.1203Y-2.055
X4.2203Y-1.455
X4.2203Y-2.055
X4.3203Y-1.455
X4.3203Y-2.055
X4.4203Y-1.455
X4.4203Y-2.055
X4.5203Y-1.455
X4.5203Y-2.055
X4.6203Y-1.455
X4.6203Y-2.055
X4.7203Y-1.455
X4.7203Y-2.055
X4.8203Y-1.455
X4.8203Y-2.055
X4.9203Y-1.455
X4.9203Y-2.055
X5.0203Y-1.455
X5.0203Y-2.055
X5.1203Y-1.455
X5.1203Y-2.055
X5.2203Y-1.455
X5.2203Y-2.055
T8
X1.9199Y-2.85
X1.9199Y-3.724
X1.9241Y-1.3661
X1.9241Y-2.2401
X2.2199Y-2.85
X2.2199Y-3.598
X2.2199Y-3.85
X2.2241Y-1.3661
X2.2241Y-2.1142
X2.2241Y-2.3661
T9
X3.7203Y-1.455
X3.7203Y-2.055
X5.3203Y-1.455
X5.3203Y-2.055
T10
X1.5769Y-3.52
X1.5769Y-3.7326
X1.5909Y-2.0254
X1.5909Y-2.238
X1.9191Y-2.595
X1.9204Y-4.064
X2.1317Y-2.595
X2.133Y-4.064
X2.3443Y-2.595
X2.3456Y-4.064
X2.5569Y-2.595
X2.5582Y-4.064
X2.7695Y-2.595
X2.7708Y-4.064
X2.8327Y-1.375
X2.9821Y-2.595
X2.9834Y-4.064
X3.0453Y-1.375
X5.579Y-3.3224
X5.579Y-3.535
T11
X1.5748Y-1.378
X1.5748Y-4.529
X5.5118Y-1.378
X5.5118Y-4.529
T0
M30
